<?xml version="1.0" standalone="no"?>
<!DOCTYPE svg PUBLIC "-//W3C//DTD SVG 20010904//EN"
 "http://www.w3.org/TR/2001/REC-SVG-20010904/DTD/svg10.dtd">
<svg version="1.0" xmlns="http://www.w3.org/2000/svg"
 width="500.000000pt" height="500.000000pt" viewBox="0 0 500.000000 500.000000"
 preserveAspectRatio="xMidYMid meet">

<g transform="translate(0.000000,500.000000) scale(0.100000,-0.100000)"
fill="#000000" stroke="none">
<path d="M1 3773 c1 -888 5 -1230 13 -1235 8 -5 7 -8 -1 -8 -16 0 -18 -126 -3
-164 6 -16 6 -27 0 -31 -13 -8 -13 -132 0 -140 6 -3 10 -20 10 -36 0 -18 -4
-28 -10 -24 -6 4 -10 -20 -10 -64 0 -39 4 -71 9 -71 11 0 24 -50 16 -58 -3 -4
-10 0 -15 8 -7 10 -10 -1 -10 -37 0 -49 2 -52 28 -56 l27 -4 -29 -2 c-24 -1
-27 -3 -16 -16 10 -12 10 -15 -1 -15 -11 0 -11 -2 1 -10 13 -9 13 -10 0 -10
-13 0 -13 -1 0 -10 10 -6 11 -10 3 -10 -17 0 -17 -83 -1 -111 10 -17 10 -23 1
-26 -10 -4 -13 -54 -13 -205 0 -186 1 -200 17 -194 16 6 16 5 0 -8 -14 -10
-17 -25 -15 -56 l3 -41 43 31 c23 18 42 28 42 23 0 -5 -20 -24 -45 -43 -40
-30 -45 -38 -45 -72 0 -21 3 -38 7 -38 3 0 20 10 37 23 58 43 61 39 8 -10
l-52 -48 0 -93 0 -94 50 42 c65 54 64 45 -1 -17 -45 -44 -50 -52 -47 -86 l3
-37 48 41 c67 58 69 42 2 -19 -41 -37 -55 -58 -55 -77 0 -25 2 -26 18 -14 16
13 16 13 0 -7 -11 -13 -18 -37 -18 -64 l0 -44 37 35 c74 68 87 72 25 8 -59
-61 -63 -69 -60 -105 l3 -39 65 60 c69 64 58 44 -23 -41 l-48 -50 3 -90 3 -89
64 65 c81 81 77 64 -6 -29 -54 -60 -63 -75 -63 -108 l1 -38 69 72 c39 40 70
70 70 65 0 -4 -32 -43 -70 -87 -63 -72 -69 -83 -68 -122 1 -42 1 -43 34 -43
27 0 40 9 75 50 23 28 44 48 47 46 2 -3 -13 -25 -33 -50 l-37 -46 313 1 c173
1 305 3 294 6 -11 3 -23 8 -27 12 -10 9 9 120 32 191 15 48 21 55 41 52 48 -5
49 -6 49 -116 l0 -104 -32 -21 -33 -21 244 0 243 0 -5 28 -6 27 12 -27 11 -28
153 0 153 0 0 140 c0 133 1 140 20 140 11 0 20 -4 20 -10 0 -5 8 -10 19 -10
25 0 31 -26 31 -152 l0 -108 86 0 86 0 -7 443 c-4 244 -4 454 0 466 6 21 11
22 128 20 67 -1 139 -4 161 -7 l38 -4 -4 -69 c-3 -50 0 -69 9 -69 6 0 16 -7
21 -16 10 -17 9 101 -1 126 -6 14 -14 74 -23 165 -10 99 -12 359 -4 455 27
294 28 387 9 457 -27 95 -25 110 10 118 29 6 48 30 31 40 -4 3 -20 1 -35 -5
-40 -15 -44 -13 -51 31 -6 33 -12 43 -35 51 -15 5 -30 17 -34 26 -3 9 -3 13 1
9 13 -13 44 47 43 83 0 34 -1 34 -32 -27 -17 -35 -37 -63 -45 -63 -7 0 -10 -5
-7 -11 7 -10 -21 -80 -37 -90 -5 -3 3 -11 17 -17 15 -7 24 -9 21 -4 -2 4 4 28
15 52 18 41 22 43 33 28 7 -10 17 -18 21 -18 17 0 31 -33 27 -62 -5 -31 -14
-32 -68 -11 -13 5 -15 3 -8 -8 11 -19 14 -40 4 -34 -4 3 -13 -2 -20 -10 -15
-18 -95 -55 -119 -55 -9 0 -21 -4 -27 -10 -30 -30 -236 12 -342 71 -18 11 -39
19 -46 19 -7 0 -26 11 -42 25 -16 14 -33 25 -38 25 -4 0 -25 14 -46 30 -21 17
-41 30 -45 30 -5 0 -36 21 -71 48 -58 43 -63 50 -62 84 1 20 5 35 10 32 4 -3
8 -1 8 4 0 5 -9 12 -20 15 -17 4 -20 2 -16 -16 3 -12 3 -16 0 -9 -3 6 -9 10
-13 7 -4 -2 -22 -7 -40 -10 -36 -6 -91 27 -91 55 0 11 -11 16 -40 17 -22 1
-40 -3 -40 -8 0 -6 -4 -8 -9 -4 -5 3 -12 1 -16 -5 -6 -9 -101 -27 -120 -21 -5
1 -19 3 -30 4 -24 1 -35 15 -35 43 0 13 -8 24 -19 27 -25 6 -60 59 -43 65 19
6 14 30 -9 43 -13 7 -19 7 -15 1 8 -13 -14 -28 -23 -16 -3 5 -21 11 -38 12
-39 4 -92 -29 -89 -55 0 -10 -5 -17 -12 -15 -8 1 -11 -2 -8 -7 4 -5 0 -12 -6
-14 -7 -3 -1 -6 14 -6 20 -1 26 3 22 14 -4 8 -1 15 6 15 6 0 10 -10 8 -22 -3
-20 -9 -23 -48 -22 -74 1 -100 7 -118 28 -16 18 -16 19 8 12 59 -18 65 -17 79
5 12 21 11 25 -13 46 -15 13 -40 23 -57 23 -19 0 -29 5 -29 15 0 8 5 15 12 15
9 0 9 3 0 12 -14 14 -16 48 -4 48 5 0 21 -13 37 -30 16 -16 32 -30 35 -30 11
0 50 109 50 140 0 44 -39 82 -90 89 -24 3 -45 12 -48 19 -5 17 42 16 76 -2 33
-17 92 -83 92 -102 0 -10 12 -14 40 -14 46 0 58 16 40 50 -24 46 0 30 31 -20
21 -34 36 -49 46 -46 8 3 17 6 21 6 3 0 -5 11 -18 25 -35 37 -17 41 24 5 22
-20 36 -27 36 -19 1 10 4 9 10 -3 6 -10 29 -19 58 -23 82 -12 155 -36 231 -78
l74 -40 -5 26 c-4 22 -3 25 8 16 11 -9 14 -8 14 2 1 8 7 3 15 -11 11 -19 14
-21 15 -7 0 22 30 23 30 0 0 -14 2 -15 13 -4 10 10 9 15 -3 24 -8 7 -22 26
-30 42 -9 17 -28 36 -43 43 -16 8 -27 21 -27 33 0 10 0 21 0 24 0 3 3 5 8 4 4
0 6 -6 4 -13 -1 -8 11 -19 28 -26 16 -7 30 -17 30 -23 0 -26 18 11 25 49 5 36
3 41 -19 53 -13 8 -32 11 -40 8 -9 -4 -16 -2 -16 3 0 5 -7 7 -15 4 -12 -5 -15
3 -15 42 0 27 5 56 11 64 8 11 9 7 4 -16 -4 -22 -1 -35 11 -45 16 -13 16 -9
10 56 -8 82 8 70 23 -17 l9 -53 1 48 c0 26 4 47 9 47 4 0 17 -19 28 -42 18
-36 21 -55 17 -115 -4 -59 -2 -74 10 -79 12 -4 15 -21 13 -77 -2 -40 -1 -60 1
-44 2 15 9 27 15 27 7 0 9 -19 5 -53 -6 -63 -3 -69 43 -87 19 -8 53 -27 75
-41 57 -39 185 -93 290 -124 50 -15 102 -30 116 -35 41 -12 81 -42 75 -56 -2
-6 2 -20 9 -31 12 -16 13 -14 6 18 -5 20 -16 49 -25 65 -17 29 -17 31 18 111
20 44 54 113 76 152 22 39 40 74 40 79 0 4 29 59 65 121 35 63 69 128 75 145
5 17 40 71 77 120 50 66 83 99 128 127 33 20 86 54 119 75 32 20 70 38 85 40
25 3 27 0 26 -24 -2 -15 -6 -36 -10 -46 -6 -14 -5 -17 4 -12 6 4 19 2 27 -5
12 -10 13 -9 8 6 -6 14 -4 16 9 9 9 -5 34 -8 56 -6 33 3 41 9 50 33 12 36 20
38 17 4 -2 -13 0 -22 4 -20 11 7 9 55 -2 55 -5 0 -6 5 -3 10 4 6 1 9 -7 8 -8
-2 -12 5 -11 17 11 88 23 132 23 87 0 -25 0 -25 32 -13 19 7 24 16 23 42 0 22
-6 33 -18 36 -9 1 -23 4 -31 6 -7 1 -24 10 -37 19 -20 15 -22 19 -9 27 64 43
66 56 8 45 -57 -9 -76 -9 -118 -1 -43 9 -131 90 -137 125 -1 8 -8 21 -16 29
-13 13 -14 11 -10 -14 5 -26 4 -27 -12 -12 -15 15 -17 38 -16 193 0 97 -3 176
-8 176 -7 0 -19 31 -36 96 -4 16 -15 23 -43 27 -20 2 -68 13 -107 23 -61 17
-66 19 -37 22 19 2 52 -4 73 -12 22 -9 56 -15 77 -15 20 1 29 3 20 6 -10 2
-18 11 -18 19 0 8 -5 14 -11 14 -5 0 -8 -4 -4 -9 3 -5 1 -12 -4 -15 -5 -4 -11
4 -13 16 -2 16 -12 24 -33 28 -16 4 -29 11 -28 18 2 6 -2 23 -7 37 -8 22 -6
26 16 31 19 5 22 9 14 19 -9 10 -6 15 12 18 44 10 -347 -1 -407 -11 -33 -6
-95 -13 -138 -17 -42 -4 -75 -10 -72 -15 3 -4 35 -11 71 -15 37 -4 85 -13 108
-21 24 -9 67 -14 103 -12 50 2 65 -1 75 -15 7 -10 40 -26 73 -37 52 -17 54
-19 20 -15 -22 3 -51 8 -63 11 -19 6 -23 3 -22 -12 1 -10 2 -49 1 -86 l-1 -67
-55 -26 c-51 -25 -55 -30 -56 -64 -1 -32 -2 -33 -8 -11 l-8 25 -5 -25 c-4 -22
-5 -21 -12 11 -7 31 -13 38 -46 48 -21 6 -43 18 -50 26 -12 14 -22 187 -12
213 2 6 13 12 24 12 37 0 7 19 -40 25 -26 4 -63 11 -83 16 -43 11 -65 4 -81
-24 -8 -16 -7 -23 6 -32 21 -16 20 -25 -1 -25 -12 0 -7 -8 17 -30 32 -26 33
-29 13 -30 -12 0 -25 5 -28 11 -4 6 -13 8 -19 6 -7 -3 -18 4 -24 14 -7 10 -19
19 -27 19 -8 0 -15 5 -15 10 0 6 5 10 12 10 6 0 3 9 -7 20 -19 21 -45 27 -45
10 0 -5 9 -10 20 -10 11 0 20 -4 20 -10 0 -16 -25 -11 -46 9 -15 13 -25 16
-37 9 -13 -7 -37 5 -103 54 -47 35 -100 73 -119 85 -18 12 -36 27 -40 33 -3 5
-21 10 -40 10 -18 0 -36 6 -38 13 -3 6 -6 -2 -6 -20 -1 -32 14 -54 50 -74 11
-6 59 -38 107 -71 48 -34 96 -62 107 -63 32 -4 32 -4 38 -24 2 -10 26 -33 52
-51 38 -26 51 -31 65 -22 10 6 21 8 24 5 3 -4 6 -51 6 -106 0 -114 -6 -126
-12 -22 l-4 70 -175 117 c-95 64 -191 126 -213 138 l-38 22 2 -278 c2 -290 1
-316 -10 -309 -12 7 -22 286 -19 505 0 52 -8 221 -12 224 -2 2 -19 11 -37 20
-18 9 -38 26 -45 37 -6 11 -52 50 -102 87 -49 36 -176 130 -282 209 -160 120
-197 143 -226 143 -27 0 -36 5 -42 23 -8 22 -8 22 -12 -3 -2 -14 -12 -31 -20
-37 -15 -11 -13 -16 13 -43 16 -16 32 -30 36 -30 4 0 54 -32 110 -71 57 -39
131 -89 166 -111 34 -22 62 -44 62 -48 0 -8 39 -23 53 -21 15 3 77 -40 77 -52
0 -7 34 -35 77 -64 68 -46 79 -50 105 -41 16 6 32 8 35 5 3 -4 7 -176 8 -384
3 -392 0 -419 -14 -148 -5 93 -11 151 -16 138 -5 -17 -14 -21 -41 -20 -31 2
-50 17 -21 17 8 0 7 3 -3 10 -10 6 -15 35 -18 109 l-4 101 48 43 48 44 -39 27
c-192 132 -644 436 -649 436 -8 0 -8 -80 0 -157 6 -57 8 -61 40 -72 18 -6 46
-27 62 -45 16 -18 35 -36 43 -39 8 -3 3 -6 -11 -6 -15 -1 -30 3 -35 8 -6 5
-29 11 -52 14 l-43 5 1 -56 c1 -52 14 -168 18 -149 0 4 19 -2 42 -13 23 -12
38 -24 35 -27 -3 -3 -17 2 -30 11 -35 23 -39 20 -31 -16 4 -18 8 -57 8 -85 0
-41 4 -53 16 -54 10 0 8 -4 -6 -9 -24 -10 -30 -25 -13 -35 6 -4 8 -11 4 -16
-3 -5 -10 -7 -15 -4 -5 4 -9 -3 -9 -15 0 -11 7 -23 15 -26 9 -4 20 -15 26 -27
10 -18 9 -19 -15 -15 -20 4 -26 1 -26 -12 0 -27 24 -41 58 -34 27 5 29 9 19
25 -17 27 -3 32 39 13 34 -15 36 -18 17 -21 -22 -4 -33 -23 -13 -23 6 0 10
-11 10 -25 0 -28 7 -30 34 -10 21 16 21 17 -9 33 -20 11 -20 11 1 12 11 0 25
5 32 12 14 14 17 11 26 -24 7 -30 -1 -41 -62 -88 -37 -29 -39 -46 -13 -98 21
-42 23 -108 4 -105 -7 2 -13 -1 -13 -5 0 -5 -6 -9 -12 -9 -7 -1 -37 -7 -65
-14 -38 -10 -53 -19 -53 -31 0 -9 -4 -19 -9 -22 -14 -9 -32 263 -46 674 -3 96
-10 244 -16 328 -5 84 -10 205 -10 268 0 63 -2 121 -6 129 -4 11 -24 15 -79
15 l-74 0 1 -1227z m139 953 c0 -16 -14 -36 -25 -36 -17 0 -28 17 -20 30 6 10
45 15 45 6z m281 -298 c16 -27 19 -45 16 -96 -3 -34 -10 -69 -17 -76 -9 -12
-8 -20 6 -41 22 -34 11 -44 -13 -11 l-18 24 -30 -26 -30 -27 23 26 c15 17 20
32 16 44 -6 14 -4 17 9 12 13 -5 18 5 27 46 10 46 9 57 -9 100 -24 56 -24 57
-11 57 6 0 20 -15 31 -32z m170 -178 c4 -36 14 -92 23 -125 9 -33 16 -72 16
-86 0 -15 11 -36 26 -50 50 -45 63 -76 52 -122 -5 -23 -20 -60 -32 -82 -24
-41 -40 -131 -25 -140 4 -3 6 -27 3 -53 -4 -26 1 -84 10 -131 21 -110 21 -198
1 -198 -8 0 -15 6 -15 14 0 7 -10 13 -21 13 -20 0 -21 4 -15 43 3 23 9 91 13
151 l6 108 -33 -7 c-27 -6 -32 -5 -27 8 5 13 2 13 -23 -1 -16 -9 -32 -14 -35
-10 -11 11 18 46 33 40 10 -3 13 -1 8 6 -4 7 -12 12 -17 12 -12 0 -80 -69 -70
-71 3 -1 -12 -5 -34 -8 -25 -4 -45 -2 -52 6 -21 19 -15 23 32 23 25 0 45 4 45
9 0 4 11 20 24 34 l24 26 -34 13 c-36 13 -42 22 -21 32 6 3 0 5 -15 3 -23 -3
-25 -1 -19 17 9 22 31 34 31 17 0 -6 8 -11 18 -11 9 0 32 -9 50 -20 18 -11 37
-18 43 -15 5 4 9 -6 9 -21 0 -21 3 -24 14 -15 16 13 27 61 15 61 -5 0 -10 15
-10 33 -2 30 -2 30 -8 -8 -6 -35 -8 -37 -14 -17 -5 12 -12 22 -16 22 -4 0 -20
22 -34 49 -27 49 -52 70 -59 49 -4 -12 -48 11 -48 24 0 5 30 8 66 8 75 0 115
-18 132 -59 10 -24 11 -22 11 22 2 83 0 131 -4 152 -2 11 -4 31 -5 45 l-1 25
-11 -25 c-6 -14 -10 -30 -10 -35 1 -6 -7 -11 -18 -12 -11 -1 -20 4 -20 13 0
17 -5 17 -55 0 -46 -16 -69 -11 -62 15 5 19 -6 24 -45 20 -10 -1 -18 3 -18 8
0 6 -7 11 -16 11 -8 0 -13 4 -10 9 3 4 17 6 31 3 14 -2 33 2 42 9 12 10 14 10
9 2 -4 -7 -3 -13 2 -13 6 0 10 10 10 23 4 129 42 233 42 113 l0 -55 43 18 c35
15 43 23 45 49 2 23 -3 37 -22 53 -24 21 -24 23 -8 35 34 26 47 13 53 -56z
m767 -46 c18 -8 32 -20 32 -25 0 -5 7 -9 15 -9 8 0 15 -5 15 -11 0 -5 4 -8 8
-5 5 3 16 -4 26 -15 20 -24 29 -172 16 -269 l-7 -55 -3 70 c-2 39 -4 107 -4
151 l-1 82 -67 48 c-38 26 -68 50 -68 51 0 5 7 3 38 -13z m216 -160 c42 -30
76 -58 76 -60 0 -7 -19 5 -73 48 -27 21 -60 38 -73 38 -15 0 -24 6 -24 15 0
24 13 18 94 -41z m-532 -59 c0 -5 -5 -11 -11 -13 -6 -2 -11 4 -11 13 0 9 5 15
11 13 6 -2 11 -8 11 -13z m158 -15 c9 -31 0 -55 -20 -56 -8 -1 -26 -4 -39 -9
-17 -5 -22 -4 -19 6 5 14 8 15 51 18 35 2 -1 21 -40 21 -22 0 -36 6 -43 19
-16 31 -13 32 47 29 51 -3 57 -6 63 -28z m536 -51 c11 -19 -29 7 -51 32 l-20
23 32 -23 c18 -12 35 -27 39 -32z m-1212 6 c5 -22 4 -26 -4 -15 -5 8 -10 24
-10 34 0 26 6 18 14 -19z m1136 -21 c0 -8 -4 -12 -10 -9 -5 3 -10 13 -10 21 0
8 5 12 10 9 6 -3 10 -13 10 -21z m-450 -23 c0 -6 -4 -13 -10 -16 -5 -3 -10 1
-10 9 0 9 5 16 10 16 6 0 10 -4 10 -9z m-144 -56 c-4 -14 -11 -25 -16 -25 -5
0 -7 7 -5 15 3 8 7 22 10 31 9 26 18 8 11 -21z m-621 -15 c15 0 17 -3 7 -9
-10 -6 -7 -10 12 -15 14 -3 26 -11 26 -16 0 -5 -6 -7 -14 -4 -8 3 -23 1 -34
-5 -15 -8 -23 -7 -31 3 -9 11 -9 15 1 19 10 4 11 7 1 18 -17 17 -17 37 -1 21
7 -7 21 -12 33 -12z m-405 -70 c0 -5 -2 -10 -4 -10 -3 0 -8 5 -11 10 -3 6 -1
10 4 10 6 0 11 -4 11 -10z m1014 -56 c14 -41 14 -51 0 -107 -13 -47 -14 -65
-5 -80 11 -16 10 -17 -8 -8 -26 14 -34 28 -21 36 5 3 10 11 10 16 0 6 -4 7
-10 4 -15 -9 -12 31 5 72 18 43 19 85 3 101 -8 8 -8 12 -1 12 6 0 18 -21 27
-46z m105 -24 c4 -3 7 -18 7 -35 -1 -24 4 -31 21 -33 17 -3 22 -9 21 -28 -2
-15 -7 -23 -15 -20 -17 7 -16 2 2 -37 14 -29 14 -30 0 -13 -20 26 -19 2 1 -29
11 -16 12 -25 5 -25 -9 0 -11 -47 -9 -170 3 -143 5 -170 18 -170 13 -1 13 -2
-1 -13 -13 -10 -15 -33 -13 -132 l2 -120 -10 128 c-6 70 -15 127 -20 127 -6 0
-7 -30 -3 -75 5 -53 4 -75 -4 -75 -6 0 -11 -10 -12 -22 0 -18 -5 -15 -19 17
-13 28 -15 42 -8 47 9 5 8 45 0 150 -7 79 -15 154 -19 167 -11 44 -21 -7 -13
-69 8 -60 7 -66 -10 -55 -8 5 -11 33 -9 81 2 40 0 76 -4 80 -11 11 -8 82 4 89
6 4 16 0 23 -10 11 -15 13 -15 30 4 10 11 23 18 27 15 12 -7 11 0 -3 31 -8 17
-8 29 -1 36 6 6 7 32 2 67 -4 31 -9 82 -12 112 -5 49 -5 51 4 20 6 -19 14 -37
18 -40z m-881 -106 c12 -4 22 -14 22 -24 0 -24 -46 -15 -53 11 -6 21 -3 22 31
13z m212 -4 c0 -5 -5 -10 -11 -10 -5 0 -7 5 -4 10 3 6 8 10 11 10 2 0 4 -4 4
-10z m620 -26 c0 -8 -19 -13 -24 -6 -3 5 1 9 9 9 8 0 15 -2 15 -3z m390 -18
c5 -15 5 -37 0 -57 -10 -33 1 -69 22 -69 22 0 48 -33 48 -61 0 -18 -9 -35 -25
-48 -25 -19 -26 -21 -14 -85 6 -36 9 -71 6 -78 -3 -7 -6 -2 -6 11 l-1 23 -20
-23 c-22 -28 -27 -14 -5 15 19 25 19 36 0 36 -10 0 -15 10 -16 28 0 15 -2 40
-4 56 -2 16 1 38 6 48 7 13 7 23 -1 32 -9 12 -11 196 -2 196 1 0 7 -11 12 -24z
m-1074 -10 c18 -19 18 -19 -11 -12 -17 4 -42 10 -57 13 -41 8 -34 21 10 20 23
-1 46 -10 58 -21z m54 -16 c0 -5 -2 -10 -4 -10 -3 0 -8 5 -11 10 -3 6 -1 10 4
10 6 0 11 -4 11 -10z m645 -10 c3 -5 -1 -10 -10 -10 -9 0 -13 5 -10 10 3 6 8
10 10 10 2 0 7 -4 10 -10z m-762 -24 c37 -15 63 -43 69 -71 2 -10 14 -22 27
-25 34 -8 39 -30 8 -30 -14 0 -28 -6 -30 -12 -4 -9 -11 -6 -24 9 -10 13 -33
26 -50 29 -29 6 -48 34 -23 34 6 0 10 11 10 24 0 22 -4 24 -47 23 -38 -2 -48
2 -51 16 -3 14 4 17 38 17 22 0 55 -6 73 -14z m212 -32 c2 -21 7 -56 11 -76 5
-30 3 -39 -10 -44 -9 -3 -13 -10 -10 -15 3 -5 1 -9 -4 -9 -14 0 -23 28 -11 36
6 3 10 20 9 38 -3 55 0 120 5 114 3 -3 7 -23 10 -44z m32 -26 c-3 -8 -6 -5 -6
6 -1 11 2 17 5 13 3 -3 4 -12 1 -19z m-298 -23 c2 -14 -1 -16 -15 -11 -15 6
-17 5 -6 -5 15 -16 16 -29 2 -29 -12 0 -41 61 -34 72 8 13 49 -9 53 -27z m738
-37 c-3 -7 -5 -2 -5 12 0 14 2 19 5 13 2 -7 2 -19 0 -25z m1435 -53 c-4 -26
-22 -45 -22 -25 0 12 18 50 24 50 2 0 1 -11 -2 -25z m-1867 -72 c-10 -42 -18
-18 -9 29 6 32 9 37 12 19 2 -12 1 -34 -3 -48z m-235 46 c0 -3 -12 -11 -27
-18 -22 -10 -29 -9 -44 6 -18 17 -17 18 26 18 25 0 45 -3 45 -6z m1184 -184
c-4 -60 -10 -119 -15 -130 -7 -17 -8 -18 -8 -2 -1 16 -3 16 -26 1 -14 -9 -25
-12 -25 -6 0 5 7 13 16 16 10 4 14 14 11 26 -3 11 -1 18 3 15 15 -9 34 35 21
48 -14 14 -14 54 0 63 8 4 10 32 7 83 -5 75 -5 75 9 36 10 -30 12 -67 7 -150z
m-974 144 c0 -10 -7 -19 -15 -19 -12 0 -13 4 -6 19 6 10 7 22 3 26 -4 5 -1 5
6 1 6 -4 12 -16 12 -27z m90 21 c0 -5 -5 -10 -11 -10 -5 0 -7 5 -4 10 3 6 8
10 11 10 2 0 4 -4 4 -10z m-233 -26 c-3 -3 -12 -4 -19 -1 -8 3 -5 6 6 6 11 1
17 -2 13 -5z m243 -38 c0 -8 7 -19 15 -26 16 -14 21 -65 6 -74 -5 -3 -12 -55
-16 -115 -4 -66 -13 -117 -21 -128 -12 -16 -13 -16 -8 7 4 16 2 20 -3 13 -13
-19 -53 -3 -64 24 -5 13 -9 55 -9 92 0 63 -2 69 -26 80 -15 6 -24 15 -20 18 3
4 12 1 18 -5 20 -20 28 -14 30 21 l1 32 4 -32 c7 -52 21 -38 29 27 4 33 10 62
14 65 6 4 4 -56 -7 -217 -3 -45 -1 -68 6 -68 6 0 12 18 13 40 0 22 2 58 4 80
1 22 3 61 4 88 2 39 3 43 10 22 8 -24 8 -24 9 7 1 17 -3 34 -9 38 -5 3 -7 12
-4 20 7 17 24 10 24 -9z m-345 -88 c7 -20 20 -24 98 -33 39 -4 57 -11 57 -20
0 -11 -13 -13 -65 -8 -62 6 -65 5 -65 -16 0 -30 -35 -61 -67 -60 -28 1 -27 1
4 10 65 19 65 71 2 156 -22 29 -39 55 -39 59 0 11 69 -70 75 -88z m764 -58 c1
-13 0 -13 -9 0 -5 8 -9 26 -9 40 l1 25 8 -25 c4 -14 8 -32 9 -40z m-795 25 c4
-11 -1 -15 -19 -15 -16 0 -25 6 -25 15 0 8 9 15 19 15 10 0 21 -7 25 -15z
m259 -157 c-5 -23 -15 -44 -22 -46 -11 -4 -13 7 -7 59 4 35 10 75 14 89 10 42
25 -52 15 -102z m972 -15 c-8 -44 -32 -93 -44 -93 -5 0 -1 17 10 38 10 20 21
49 24 65 3 15 8 27 11 27 4 0 3 -17 -1 -37z m-1219 16 c3 -6 2 -15 -3 -20 -12
-12 -53 1 -53 17 0 17 46 19 56 3z m165 1 c11 0 19 -7 19 -15 0 -13 -13 -15
-77 -13 -67 3 -78 6 -81 22 -4 18 1 19 58 13 35 -4 71 -7 81 -7z m-41 -70 c8
-5 11 -12 7 -16 -4 -4 -15 0 -24 9 -18 18 -8 23 17 7z m134 -19 c-2 -3 -12 3
-22 13 -16 17 -16 18 5 5 12 -7 20 -15 17 -18z m-214 -66 c18 -13 20 -16 5
-10 -45 16 -58 18 -51 7 4 -7 2 -12 -4 -12 -7 0 -9 8 -5 20 4 11 2 20 -4 20
-6 0 -11 8 -11 17 0 14 3 14 23 -4 12 -11 33 -28 47 -38z m820 -102 c-11 -17
-11 -17 -6 0 3 10 7 33 8 50 l1 32 4 -32 c2 -18 -1 -41 -7 -50z m-824 -6 c4
-4 0 -7 -9 -7 -9 0 -18 4 -21 9 -7 10 20 9 30 -2z m228 -152 c-4 -8 -11 -15
-16 -15 -6 0 -5 6 2 15 7 8 14 15 16 15 2 0 1 -7 -2 -15z m-1 -63 c-2 -6 3 -9
11 -6 17 6 30 -12 22 -31 -11 -29 -116 27 -116 62 0 8 -7 16 -16 20 -12 4 -12
8 -3 13 14 9 105 -43 102 -58z m-210 1 c3 -10 8 -30 11 -46 5 -22 11 -26 29
-22 12 3 36 1 52 -4 28 -9 27 -9 -18 -10 -41 -1 -54 -6 -77 -31 -26 -27 -69
-43 -55 -20 3 6 13 10 20 10 12 0 12 5 3 25 -6 14 -19 25 -30 25 -10 0 -18 5
-18 11 0 7 14 10 35 7 24 -3 35 0 35 9 0 12 -9 15 -55 17 -32 2 -25 31 8 31
15 -1 27 3 27 7 0 16 29 8 33 -9z m-53 -98 c14 -16 10 -18 -14 -9 -9 3 -16 10
-16 15 0 14 16 11 30 -6z m185 -15 c-3 -5 19 -20 49 -33 60 -28 91 -65 81 -97
-5 -15 -15 -20 -39 -20 -17 0 -37 -5 -43 -11 -8 -8 -28 -9 -58 -4 -48 7 -54
16 -13 20 43 5 43 7 3 20 l-40 13 63 1 c56 1 62 3 62 22 0 15 -14 26 -54 44
-44 19 -53 28 -49 43 3 14 11 18 24 15 10 -3 17 -9 14 -13z m76 -1 l24 -20
-30 17 c-39 24 -40 24 -28 24 6 0 21 -9 34 -21z m-184 -55 c-3 -3 -12 -4 -19
-1 -8 3 -5 6 6 6 11 1 17 -2 13 -5z m736 -37 c36 -32 47 -49 47 -72 1 -29 1
-29 15 -11 20 27 20 -2 0 -31 -8 -11 -13 -34 -10 -52 2 -21 -2 -34 -13 -41
-16 -9 -16 -9 1 -10 9 0 17 -4 17 -10 0 -5 -7 -10 -15 -10 -8 0 -15 -4 -15
-10 0 -5 6 -9 12 -7 7 1 14 -8 16 -20 2 -13 -2 -23 -8 -23 -6 0 -8 -5 -4 -12
5 -7 9 -19 9 -28 1 -8 6 -55 10 -105 8 -78 8 -132 0 -207 -1 -10 -4 -21 -8
-24 -4 -4 -1 -14 6 -22 10 -13 9 -15 -11 -9 -23 5 -23 4 -17 -36 4 -23 11 -43
16 -45 5 -2 9 -8 9 -13 0 -6 -4 -7 -10 -4 -5 3 -10 1 -10 -4 0 -6 7 -11 15
-11 17 0 20 -35 4 -46 -8 -4 -7 -9 2 -16 12 -8 12 -10 0 -15 -10 -4 -11 -7 -1
-13 10 -6 9 -16 -7 -42 -18 -30 -18 -35 -5 -48 14 -13 15 -12 9 3 -4 12 1 26
14 40 l21 22 -11 -23 c-23 -44 -11 -150 25 -227 18 -38 36 -83 39 -100 3 -16
2 -23 -1 -15 -42 102 -58 130 -75 130 -11 0 -19 -4 -19 -10 0 -5 6 -9 12 -7 7
1 14 -8 16 -20 2 -13 -2 -23 -9 -23 -9 0 -8 -4 1 -15 10 -12 9 -15 -6 -15 -18
-1 -18 -1 -1 -11 20 -11 23 -49 5 -49 -9 0 -8 -4 2 -10 13 -9 13 -11 0 -21
-11 -8 -12 -12 -2 -16 6 -2 12 -13 12 -24 0 -10 -6 -19 -12 -19 -9 0 -8 -4 2
-11 11 -8 12 -12 3 -16 -7 -2 -13 -9 -13 -14 0 -6 5 -7 10 -4 6 4 10 -5 10
-19 0 -14 -5 -26 -12 -26 -6 0 -3 -7 8 -15 17 -13 17 -14 2 -15 -10 0 -18 -4
-18 -10 0 -5 6 -9 13 -7 7 1 11 -6 9 -17 -3 -17 -1 -18 12 -7 13 11 15 10 11
-9 -3 -16 0 -20 10 -16 19 7 19 -3 0 -45 -16 -38 -17 -38 -19 10 -2 35 -34 69
-43 45 -8 -23 -41 -3 -38 22 1 13 -2 21 -6 18 -9 -5 -14 31 -11 80 1 16 -2 34
-8 41 -8 9 -8 15 0 20 6 3 7 11 3 18 -4 6 -7 36 -8 67 -1 30 -5 65 -9 77 -4
12 -3 30 2 40 5 10 6 29 2 43 -5 21 -7 22 -13 8 -3 -10 -4 -25 -1 -33 4 -9 0
-15 -10 -15 -10 0 -16 9 -16 25 0 14 4 25 9 25 16 0 18 34 3 63 -20 42 -23 67
-7 67 7 0 15 -6 18 -12 6 -19 19 -3 19 24 -1 56 -5 78 -14 78 -5 0 -6 6 -1 13
4 6 6 21 5 33 -2 11 2 41 8 67 11 51 -1 86 -30 88 -9 0 -6 5 8 12 17 8 22 16
18 31 -3 12 -6 27 -6 35 0 9 -8 12 -27 8 l-27 -5 25 19 c53 43 57 43 68 -3
l10 -43 -5 51 c-5 42 -2 55 14 70 22 22 30 108 11 120 -8 4 -9 3 -5 -4 4 -7 2
-12 -4 -12 -7 0 -9 -7 -6 -16 7 -19 -3 -64 -14 -64 -4 0 -8 22 -8 50 -1 42
-32 140 -45 140 -8 0 6 -55 15 -61 12 -8 20 -86 12 -111 -3 -10 -10 -18 -15
-18 -6 0 -8 8 -5 18 4 13 1 19 -9 19 -8 0 -15 -7 -15 -16 0 -9 -5 -23 -11 -31
-8 -11 -9 0 -4 40 3 30 1 70 -4 88 -6 18 -6 30 -1 27 5 -3 12 -22 16 -43 9
-51 17 -61 24 -32 7 26 -5 70 -21 80 -5 4 -11 22 -14 41 -3 19 -8 46 -10 62
-5 29 3 35 23 15 9 -9 12 -8 12 5 0 9 -9 26 -21 38 -11 11 -19 23 -16 25 2 2
12 -5 22 -16 10 -11 25 -20 33 -20 8 0 12 -6 9 -14 -4 -10 -1 -13 9 -9 16 6
19 29 4 38 -7 4 -6 13 1 27 10 19 9 20 -33 13 -31 -4 -39 -3 -28 4 8 6 23 11
33 11 27 0 31 26 8 49 l-21 21 -8 -21 c-8 -20 -9 -20 -25 -4 -9 9 -17 28 -16
43 l1 27 8 -25 8 -25 1 28 c1 19 8 30 23 36 18 6 19 9 5 14 -20 7 -23 57 -4
57 6 0 33 -19 60 -43z m-464 -50 l9 -42 2 35 2 35 8 -30 c9 -36 12 -162 4
-191 -4 -16 -11 -19 -36 -16 -28 4 -29 3 -19 -17 7 -12 9 -27 5 -33 -4 -6 -3
-9 2 -6 16 10 29 -15 31 -58 1 -23 15 -68 32 -102 16 -32 33 -84 37 -113 4
-30 11 -63 17 -74 6 -11 13 -49 16 -85 6 -63 7 -64 21 -40 9 15 14 49 13 87
-1 63 -29 173 -44 173 -5 0 -6 6 -3 13 2 7 -12 39 -31 72 -20 33 -28 51 -17
42 11 -10 36 -54 56 -100 21 -45 42 -90 47 -100 42 -78 52 -103 56 -140 7 -58
-24 -98 -72 -95 -27 2 -39 -4 -55 -25 -16 -20 -28 -26 -44 -22 -15 5 -17 4 -7
-3 22 -15 3 -51 -39 -72 -38 -19 -38 -19 -43 0 -3 11 -2 20 3 20 17 0 60 54
55 70 -3 10 6 29 22 46 23 24 28 40 31 94 4 63 3 64 -13 42 -11 -15 -15 -32
-11 -48 4 -13 3 -24 -2 -24 -5 0 -14 26 -21 58 -7 31 -19 71 -26 87 -7 17 -21
53 -31 80 -10 28 -20 43 -22 34 -2 -10 13 -60 32 -112 23 -59 36 -111 35 -138
0 -24 -3 -38 -6 -30 -5 11 -7 11 -14 0 -5 -9 -9 -10 -9 -3 0 7 -14 27 -31 45
-24 25 -30 29 -26 14 3 -11 8 -30 12 -42 5 -17 2 -23 -9 -23 -16 0 -31 -18
-22 -27 3 -3 13 0 21 7 13 11 18 10 29 -6 10 -13 11 -21 4 -25 -6 -4 -7 -12
-4 -18 4 -6 0 -14 -8 -17 -21 -8 -20 -24 1 -24 13 0 14 -3 5 -12 -6 -6 -34
-11 -62 -9 -39 2 -50 -1 -50 -14 0 -8 -8 -15 -18 -15 -15 0 -19 9 -21 45 -1
25 -6 56 -11 68 l-9 22 0 -23 c-1 -13 -6 -33 -13 -45 -14 -26 -18 -77 -6 -77
4 0 8 5 8 10 0 6 5 10 10 10 17 0 11 -27 -13 -57 -13 -15 -26 -36 -30 -45 -9
-25 -51 -8 -55 22 -3 18 0 21 17 15 12 -4 29 0 41 8 18 13 19 15 5 21 -9 3
-27 3 -40 0 -22 -5 -23 -3 -21 47 1 50 2 53 36 66 34 12 34 13 4 8 l-30 -6
-12 77 c-8 53 -9 81 -2 88 5 5 10 20 10 33 0 13 5 23 11 23 11 0 10 -19 -5
-88 -4 -20 -2 -22 12 -16 9 4 25 7 34 8 13 0 16 6 12 21 -10 31 -40 78 -68
104 -31 29 -35 52 -5 25 l22 -19 -7 30 c-6 30 -6 30 13 -5 11 -19 17 -38 15
-41 -2 -3 11 -19 28 -35 30 -28 30 -28 23 -5 -15 51 -34 87 -64 124 -39 50
-32 78 13 44 17 -13 41 -39 54 -58 24 -35 38 -40 36 -13 -2 12 1 12 12 3 11
-9 13 -9 8 2 -3 8 -37 41 -75 73 -37 33 -66 62 -64 65 3 2 13 -3 23 -12 25
-23 31 -21 25 6 -2 12 8 0 24 -28 16 -27 35 -49 41 -47 7 1 12 -4 12 -10 0 -7
12 -24 27 -38 l26 -25 -8 25 c-4 14 -14 35 -22 48 -14 22 -13 23 5 13 11 -6
30 -35 42 -66 12 -30 26 -55 31 -55 5 0 9 -12 9 -26 0 -14 4 -23 10 -19 6 3
10 19 10 34 0 27 -20 57 -93 137 -21 23 -34 45 -30 47 5 3 29 -19 53 -48 25
-30 46 -52 48 -51 2 2 -4 21 -14 42 -9 22 -17 48 -18 59 -1 11 -5 30 -10 42
-4 12 -2 24 4 28 5 3 10 -2 10 -14 0 -11 6 -26 14 -33 7 -8 16 -23 20 -35 4
-11 16 -29 28 -39 l21 -19 -17 32 c-19 38 -21 57 -3 47 10 -6 9 -4 0 7 -7 7
-13 20 -13 28 1 13 3 13 14 -2 13 -17 14 -17 20 0 3 10 8 23 11 29 4 7 -5 9
-24 6 -27 -4 -29 -1 -41 47 -13 54 -7 76 38 141 12 19 6 15 -25 -12 -49 -43
-99 -71 -116 -64 -7 2 -5 5 4 5 9 1 20 11 24 24 4 13 8 17 12 10 7 -18 26 -16
20 1 -4 10 -1 13 9 9 17 -6 54 23 54 44 0 7 4 13 10 13 15 0 33 81 27 125 -7
52 10 23 22 -38z m69 -77 c2 -36 -1 -83 -6 -105 -7 -31 -8 -20 -5 50 4 75 2
99 -16 145 -26 69 -26 79 2 20 12 -26 22 -72 25 -110z m-122 23 c-4 -4 -11 -1
-16 7 -16 25 -11 35 7 17 9 -9 13 -20 9 -24z m-26 8 c13 -25 13 -34 0 -26 -16
10 -32 45 -21 45 6 0 15 -9 21 -19z m-123 3 c-3 -3 -12 -4 -19 -1 -8 3 -5 6 6
6 11 1 17 -2 13 -5z m-117 -19 c0 -8 -4 -15 -9 -15 -5 0 -17 -7 -25 -16 -15
-14 -16 -13 -16 10 0 22 9 30 43 35 4 0 7 -6 7 -14z m217 -20 c3 -18 2 -18 -5
-2 -7 16 -11 15 -37 -13 l-30 -31 28 10 c17 7 27 7 27 1 0 -6 -8 -10 -19 -10
-10 0 -30 -9 -45 -21 -14 -11 -26 -16 -26 -10 0 6 -8 12 -17 12 -15 1 -16 2
-2 6 9 2 31 22 49 44 35 44 73 51 77 14z m-247 -49 c0 -3 -4 -8 -10 -11 -5 -3
-10 -1 -10 4 0 6 5 11 10 11 6 0 10 -2 10 -4z m260 -117 c0 -3 -11 -4 -24 -2
-24 5 -41 37 -29 56 5 8 52 -39 53 -54z m-175 41 c3 -5 -1 -10 -10 -10 -9 0
-13 5 -10 10 3 6 8 10 10 10 2 0 7 -4 10 -10z m62 4 c-3 -3 -12 -4 -19 -1 -8
3 -5 6 6 6 11 1 17 -2 13 -5z m-113 -18 c-8 -20 -44 -28 -44 -9 0 9 6 13 15 9
8 -3 15 -1 15 4 0 6 4 10 10 10 5 0 7 -6 4 -14z m126 -56 c-13 -9 -13 -10 0
-11 8 -1 20 -1 27 0 6 1 14 -3 18 -9 3 -5 -2 -10 -12 -11 -10 0 -28 -2 -40 -5
-12 -2 -25 1 -28 6 -3 6 0 10 7 11 7 0 -3 7 -22 14 l-35 13 50 1 c36 1 46 -2
35 -9z m-80 -31 c0 -4 -8 -10 -17 -12 -11 -3 -7 -5 10 -6 29 -1 38 -20 10 -22
-57 -4 -103 16 -89 39 7 11 86 13 86 1z m-360 -29 c0 -11 -4 -20 -10 -20 -5 0
-10 9 -10 20 0 11 5 20 10 20 6 0 10 -9 10 -20z m303 -260 c-3 -11 -7 -20 -9
-20 -2 0 -4 9 -4 20 0 11 4 20 9 20 5 0 7 -9 4 -20z m52 -70 c-3 -5 -14 -10
-23 -10 -15 0 -15 2 -2 10 20 13 33 13 25 0z m805 -21 c0 -5 -4 -9 -10 -9 -5
0 -10 7 -10 16 0 8 5 12 10 9 6 -3 10 -10 10 -16z m-520 -67 c0 -5 -9 -17 -20
-27 -23 -21 -26 -14 -8 15 13 20 28 27 28 12z m-30 -61 c0 -6 -4 -13 -10 -16
-5 -3 -10 1 -10 9 0 9 5 16 10 16 6 0 10 -4 10 -9z m-580 -66 c0 -2 -10 -9
-22 -15 -22 -11 -22 -10 -4 4 21 17 26 19 26 11z m466 -69 c-7 -21 -19 -42
-27 -47 -12 -8 -12 -11 1 -19 13 -8 12 -10 -2 -10 -21 0 -23 17 -7 57 10 27
39 66 45 60 2 -1 -3 -20 -10 -41z m47 5 c-10 -17 -21 -31 -25 -31 -4 0 2 16
14 35 11 20 22 34 25 32 2 -2 -4 -18 -14 -36z m-93 -6 c-7 -8 -17 -12 -22 -9
-5 3 -1 12 9 19 22 17 30 11 13 -10z m-93 -87 c-3 -8 -6 -5 -6 6 -1 11 2 17 5
13 3 -3 4 -12 1 -19z m328 -28 c-9 -14 -66 -43 -72 -36 -6 5 56 46 70 46 5 0
5 -5 2 -10z m-655 -70 c13 -9 11 -14 -13 -35 -46 -40 -64 -27 -29 20 19 28 21
28 42 15z m595 -30 c-10 -11 -21 -18 -23 -15 -6 6 31 44 37 39 2 -2 -4 -13
-14 -24z m78 -37 c-6 -16 -28 -76 -49 -135 -28 -77 -44 -108 -55 -108 -22 0
-34 100 -14 115 7 6 16 33 18 60 4 36 12 55 29 69 13 10 22 22 21 27 -2 5 3 6
11 3 8 -3 17 0 21 6 5 8 10 9 18 1 8 -8 8 -19 0 -38z m798 -15 c1 -2 4 -125 8
-274 4 -191 10 -275 18 -286 11 -12 8 -14 -16 -10 -28 4 -28 4 -35 100 -3 54
-6 181 -6 285 0 160 2 187 15 187 8 0 16 -1 16 -2z m-825 -135 c-27 -79 -54
-134 -41 -83 12 51 58 171 62 166 3 -3 -7 -40 -21 -83z m559 -78 c-8 -30 -19
-56 -23 -59 -5 -3 -1 18 9 47 10 29 19 81 21 117 l2 65 3 -58 c3 -34 -2 -81
-12 -112z m-529 -53 c-19 -62 -30 -128 -27 -176 1 -23 -3 -43 -11 -47 -9 -6
-9 -9 -1 -9 9 0 8 -12 -4 -45 -10 -32 -20 -45 -33 -45 -11 0 -19 7 -19 18 -3
90 -1 97 31 111 16 7 27 16 23 19 -3 3 -11 0 -17 -6 -7 -7 -18 -12 -25 -12
-21 0 -15 55 7 75 11 10 20 24 20 32 0 7 7 24 15 37 13 19 13 28 4 50 -10 22
-9 39 12 104 l24 77 8 -68 c6 -51 5 -79 -7 -115z m-646 44 c0 -2 -8 -10 -17
-17 -16 -13 -17 -12 -4 4 13 16 21 21 21 13z m647 -188 c-3 -7 -5 -2 -5 12 0
14 2 19 5 13 2 -7 2 -19 0 -25z m523 -8 c0 -25 -4 -30 -25 -30 -30 0 -30 4 -7
35 23 33 32 31 32 -5z m-513 -90 c-2 -27 0 -47 5 -44 4 3 8 0 8 -5 0 -6 -6
-11 -12 -12 -10 0 -10 -2 0 -6 19 -8 14 -23 -8 -23 -15 0 -20 7 -20 26 0 27
20 114 26 114 2 0 2 -22 1 -50z m-652 29 c8 -11 -19 -45 -47 -60 -23 -13 -23
-2 2 39 20 33 34 40 45 21z m1144 2 c8 -5 -5 -7 -35 -4 -68 6 -77 11 -24 12
25 0 51 -3 59 -8z m291 -141 c0 -5 -4 -10 -10 -10 -5 0 -10 5 -10 10 0 6 5 10
10 10 6 0 10 -4 10 -10z m-875 -105 c-4 -25 -10 -44 -12 -41 -3 3 -2 26 2 51
3 26 9 45 12 42 2 -3 1 -26 -2 -52z m482 -142 c-3 -10 -5 -4 -5 12 0 17 2 24
5 18 2 -7 2 -21 0 -30z m43 -8 c0 -5 -5 -3 -10 5 -5 8 -10 20 -10 25 0 6 5 3
10 -5 5 -8 10 -19 10 -25z m79 -46 c-20 -12 -22 -4 -7 20 11 18 14 19 16 5 2
-9 -2 -20 -9 -25z"/>
<path d="M485 4100 c-10 -11 -13 -20 -8 -20 13 0 38 29 31 35 -3 3 -13 -4 -23
-15z"/>
<path d="M538 4103 c-9 -10 -18 -25 -21 -33 -3 -8 -6 -10 -6 -3 -1 8 -7 8 -26
0 -33 -16 -32 -34 3 -33 31 1 72 38 72 67 0 23 -3 24 -22 2z"/>
<path d="M650 3930 c0 -19 20 -27 33 -13 8 7 -11 33 -24 33 -5 0 -9 -9 -9 -20z"/>
<path d="M632 3836 c-2 -35 1 -67 6 -70 10 -6 36 45 46 90 6 27 4 32 -16 38
-13 3 -25 6 -28 6 -3 0 -6 -29 -8 -64z"/>
<path d="M524 3854 c-8 -4 -8 -14 0 -39 18 -50 23 -51 35 -9 14 49 3 64 -35
48z"/>
<path d="M610 3639 c0 -5 5 -7 10 -4 6 3 10 8 10 11 0 2 -4 4 -10 4 -5 0 -10
-5 -10 -11z"/>
<path d="M647 3439 c4 -13 8 -18 11 -10 2 7 -1 18 -6 23 -8 8 -9 4 -5 -13z"/>
<path d="M632 3340 c0 -19 2 -27 5 -17 2 9 2 25 0 35 -3 9 -5 1 -5 -18z"/>
<path d="M1070 3378 c0 -16 5 -28 10 -28 13 0 13 20 0 40 -8 12 -10 9 -10 -12z"/>
<path d="M1157 3393 c-10 -9 -9 -101 1 -107 5 -3 6 -43 4 -89 -3 -56 -1 -87 7
-91 8 -5 11 28 10 116 0 85 -3 117 -10 103 -7 -15 -8 -8 -5 28 4 49 3 51 -7
40z"/>
<path d="M1114 3376 c-3 -7 -1 -29 4 -47 l10 -34 1 48 c1 47 -5 60 -15 33z"/>
<path d="M1142 3055 c0 -16 2 -22 5 -12 2 9 2 23 0 30 -3 6 -5 -1 -5 -18z"/>
<path d="M1153 2985 c0 -22 2 -30 4 -17 2 12 2 30 0 40 -3 9 -5 -1 -4 -23z"/>
<path d="M1500 3360 c0 -5 8 -25 17 -44 13 -28 19 -33 30 -25 18 16 16 43 -5
62 -21 19 -42 22 -42 7z"/>
<path d="M360 3396 c0 -17 7 -25 25 -28 19 -4 25 -1 25 11 0 20 -19 41 -37 41
-7 0 -13 -11 -13 -24z"/>
<path d="M690 3116 c0 -14 5 -28 10 -31 6 -3 10 5 10 19 0 14 -4 28 -10 31 -6
3 -10 -5 -10 -19z"/>
<path d="M670 3064 c0 -8 5 -12 10 -9 6 4 8 11 5 16 -9 14 -15 11 -15 -7z"/>
<path d="M670 2943 c0 -47 2 -84 4 -82 9 11 16 169 6 169 -6 0 -10 -34 -10
-87z"/>
<path d="M601 2953 c1 -53 3 -61 9 -38 11 45 11 105 0 105 -6 0 -10 -28 -9
-67z"/>
<path d="M592 2203 c2 -10 11 -19 21 -21 23 -5 21 10 -4 26 -18 12 -20 11 -17
-5z"/>
<path d="M1060 1927 c0 -2 14 -16 32 -33 30 -28 30 -17 0 19 -13 15 -32 23
-32 14z"/>
<path d="M656 2085 c-3 -8 -1 -25 4 -37 8 -20 9 -18 9 15 1 39 -3 47 -13 22z"/>
<path d="M600 1941 c0 -5 5 -13 10 -16 6 -3 10 -2 10 4 0 5 -4 13 -10 16 -5 3
-10 2 -10 -4z"/>
<path d="M612 1899 c2 -7 10 -15 17 -17 8 -3 12 1 9 9 -2 7 -10 15 -17 17 -8
3 -12 -1 -9 -9z"/>
<path d="M672 1765 c6 -14 13 -24 14 -22 6 6 -9 47 -17 47 -5 0 -3 -11 3 -25z"/>
<path d="M665 1715 c4 -16 13 -37 21 -45 20 -20 17 -1 -7 40 l-20 35 6 -30z"/>
<path d="M696 1717 c3 -10 9 -15 12 -12 3 3 0 11 -7 18 -10 9 -11 8 -5 -6z"/>
<path d="M380 1706 c0 -2 8 -10 18 -17 15 -13 16 -12 3 4 -13 16 -21 21 -21
13z"/>
<path d="M411 1665 c21 -47 45 -85 56 -89 10 -4 7 7 -9 35 -20 36 -58 80 -47
54z"/>
<path d="M680 1633 c4 -16 10 -35 13 -43 3 -8 8 -24 11 -34 5 -14 10 -16 17
-9 7 7 3 26 -15 62 -29 56 -39 65 -26 24z"/>
<path d="M550 1570 c6 -11 13 -20 16 -20 2 0 0 9 -6 20 -6 11 -13 20 -16 20
-2 0 0 -9 6 -20z"/>
<path d="M483 1515 c0 -27 2 -38 4 -22 2 15 2 37 0 50 -2 12 -4 0 -4 -28z"/>
<path d="M839 1488 c-4 -46 -11 -73 -23 -87 -24 -26 -2 -29 32 -5 26 18 30 79
8 129 -13 29 -13 28 -17 -37z"/>
<path d="M564 1526 c-16 -18 -25 -63 -18 -92 l7 -27 13 24 c17 31 17 56 2 62
-10 4 -10 8 1 15 7 5 12 14 10 20 -3 6 -8 6 -15 -2z"/>
<path d="M520 1516 c0 -8 5 -18 10 -21 6 -3 10 1 10 9 0 8 -4 18 -10 21 -5 3
-10 -1 -10 -9z"/>
<path d="M761 1483 c-1 -17 -6 -44 -11 -59 -6 -15 -8 -35 -5 -43 6 -14 8 -13
21 3 15 22 18 79 4 111 -7 17 -9 15 -9 -12z"/>
<path d="M451 1460 c15 -45 24 -54 15 -15 -4 17 -12 34 -17 40 -5 5 -4 -6 2
-25z"/>
<path d="M661 1474 c0 -11 3 -14 6 -6 3 7 2 16 -1 19 -3 4 -6 -2 -5 -13z"/>
<path d="M501 1453 c-19 -21 -21 -70 -4 -85 11 -8 12 -7 7 6 -4 10 0 18 10 22
17 6 21 40 8 60 -5 9 -11 7 -21 -3z"/>
<path d="M422 1451 c-16 -10 -6 -38 13 -38 16 0 17 3 7 29 -4 11 -12 14 -20 9z"/>
<path d="M367 1433 c-10 -9 -9 -23 2 -23 5 0 11 7 15 15 5 15 -5 20 -17 8z"/>
<path d="M482 1314 c1 -35 1 -35 21 -15 22 21 17 51 -7 51 -11 0 -15 -10 -14
-36z"/>
<path d="M368 1302 c-10 -11 -8 -13 12 -10 13 1 25 8 27 14 5 16 -25 13 -39
-4z"/>
<path d="M4430 4392 c-36 -6 -41 -20 -19 -56 11 -18 19 -49 19 -73 0 -43 -14
-58 -24 -25 -3 9 -17 30 -30 47 l-24 29 -27 -54 -28 -55 -3 -275 c-2 -151 -6
-347 -10 -435 -4 -88 -5 -221 -3 -295 2 -74 3 -166 3 -205 -5 -343 -9 -457
-12 -372 -1 54 -7 95 -11 92 -5 -2 -11 6 -13 20 -3 15 -1 25 6 25 6 0 4 5 -4
10 -11 8 -12 12 -3 18 10 6 9 20 -2 62 -8 30 -15 69 -15 87 0 44 -10 69 -21
51 -7 -10 -9 -10 -9 2 0 9 4 20 9 25 12 14 21 70 13 81 -4 5 -3 191 2 414 14
673 10 768 -35 831 -28 40 -61 51 -128 43 -45 -6 -51 -8 -33 -15 22 -8 22 -10
6 -34 -9 -14 -21 -25 -26 -25 -6 0 -6 -6 1 -14 7 -9 8 -17 2 -20 -5 -3 -12 0
-14 6 -4 8 -8 4 -12 -9 -7 -23 -25 -32 -25 -13 0 6 -4 10 -10 10 -5 0 -10 -7
-10 -15 0 -18 -16 -20 -23 -2 -3 8 -9 7 -18 -5 -8 -10 -26 -19 -41 -20 -20 -2
-24 -5 -17 -15 8 -9 4 -10 -20 -3 -19 5 -31 5 -31 -1 0 -15 -27 -10 -34 6 -3
8 -14 15 -24 15 -15 0 -19 -6 -16 -26 2 -19 -3 -28 -17 -31 -10 -3 -19 -10
-19 -15 0 -6 -11 -3 -25 6 -14 9 -30 14 -35 11 -6 -3 -10 2 -11 12 -1 34 -17
-19 -19 -62 -1 -22 -6 -49 -11 -60 -7 -16 -8 -14 -8 15 2 68 -1 90 -12 90 -6
0 -8 -9 -4 -22 5 -18 4 -20 -4 -8 -9 12 -13 13 -20 2 -6 -9 -19 -11 -45 -7
-24 5 -36 3 -36 -4 0 -15 -27 -14 -34 2 -5 10 -7 10 -12 0 -8 -18 -24 -16 -40
5 -13 16 -13 16 -14 0 0 -12 -8 -18 -25 -18 -14 0 -25 5 -25 10 0 15 -26 12
-40 -5 -11 -14 -14 -13 -25 2 -11 15 -13 15 -19 -5 -4 -13 -13 -19 -21 -15 -8
3 -12 9 -9 14 3 5 -2 9 -10 9 -8 0 -20 -8 -25 -17 -9 -16 -12 -16 -21 -3 -8
13 -10 12 -10 -3 0 -13 -5 -17 -17 -13 -37 11 -123 15 -128 5 -4 -5 -10 -7
-14 -5 -4 3 -8 -8 -9 -24 -1 -35 9 -39 113 -46 44 -3 100 -10 125 -15 51 -10
334 -23 458 -20 45 2 82 -1 82 -6 0 -5 -86 -8 -197 -5 -109 2 -220 4 -248 3
-27 0 -70 4 -95 9 -25 5 -89 11 -142 15 l-98 5 0 -35 c0 -20 7 -52 15 -72 16
-38 18 -76 9 -136 -5 -28 -14 -42 -35 -53 -27 -13 -29 -19 -29 -72 0 -76 8
-102 31 -102 11 0 27 -10 37 -21 9 -12 22 -26 28 -33 6 -6 23 -31 38 -55 20
-31 41 -49 79 -66 29 -12 103 -48 166 -79 94 -46 123 -56 170 -58 53 -1 54 -1
15 -7 l-41 -6 66 -59 c124 -111 167 -194 225 -436 31 -126 66 -346 66 -415 0
-27 5 -70 11 -94 5 -24 7 -46 4 -50 -11 -10 -44 43 -35 54 13 15 -68 19 -104
6 -14 -6 -53 -38 -86 -71 -33 -33 -66 -60 -74 -60 -7 0 -33 -8 -56 -19 l-42
-19 75 2 c47 0 73 5 70 11 -2 5 4 1 14 -11 10 -11 24 -19 31 -16 6 2 12 -4 12
-13 0 -9 4 -14 9 -10 5 3 12 -7 14 -22 l4 -28 2 29 c0 17 11 36 26 48 14 11
25 26 25 34 0 12 3 12 20 2 18 -12 20 -24 20 -145 0 -87 4 -133 11 -133 5 0 8
4 5 9 -3 5 10 11 30 13 30 4 37 1 44 -18 14 -37 45 -47 81 -29 l31 16 -4 -53
-3 -53 -70 3 c-105 5 -103 3 -108 89 0 7 -4 10 -9 7 -4 -3 -8 -26 -8 -51 0
-70 -20 -174 -32 -166 -7 4 -8 -4 -4 -23 4 -16 5 -26 1 -22 -11 11 -52 -36
-42 -49 5 -7 4 -20 -2 -32 -6 -11 -11 -29 -11 -40 0 -12 -4 -21 -10 -21 -5 0
-10 -9 -10 -19 0 -11 -4 -22 -10 -26 -5 -3 -6 -13 -3 -22 5 -13 2 -15 -20 -9
-17 4 -27 2 -27 -5 0 -6 9 -13 20 -16 21 -6 28 -25 8 -21 -7 2 -14 -4 -14 -12
-1 -8 -2 -21 -3 -27 0 -7 -8 -13 -16 -13 -19 0 -19 -5 0 -33 8 -13 12 -32 8
-45 l-6 -23 -23 22 c-26 24 -30 20 -13 -13 9 -16 7 -24 -9 -41 -25 -28 -37
-77 -20 -77 10 0 9 -3 -1 -9 -7 -5 -10 -14 -7 -20 4 -6 -4 -16 -18 -23 -30
-13 -32 -23 -9 -46 16 -16 16 -17 0 -20 -18 -4 -24 -32 -6 -32 5 0 7 -5 4 -10
-4 -6 -10 -8 -15 -5 -4 3 -11 -2 -14 -11 -9 -22 -8 -26 5 -18 7 4 7 -1 -1 -16
-7 -13 -8 -25 -3 -29 9 -6 8 -46 -3 -99 -4 -22 -2 -32 5 -32 7 0 9 -5 6 -10
-4 -6 -14 -9 -23 -6 -10 3 -24 0 -33 -7 -17 -13 -35 -52 -19 -42 6 3 10 2 10
-4 0 -5 -4 -13 -10 -16 -17 -10 -11 -33 10 -40 13 -4 20 -15 20 -33 0 -15 4
-34 10 -42 5 -8 5 -19 1 -25 -12 -16 -11 -59 1 -66 6 -4 2 -10 -11 -14 -15 -4
-21 -15 -21 -35 0 -24 -5 -31 -27 -37 -16 -4 -34 -6 -41 -4 -8 1 -19 -5 -26
-15 -10 -13 -20 -15 -42 -10 -16 4 -49 10 -74 13 -61 7 -71 17 -69 72 0 25 -2
66 -6 91 -5 37 -2 53 19 90 14 25 29 44 34 43 6 -1 13 9 16 23 6 21 9 24 22
13 12 -10 13 -9 8 6 -5 12 -4 16 3 12 14 -9 23 15 23 56 0 72 33 108 46 50 10
-49 14 -49 9 0 -2 26 -1 47 4 47 9 0 9 2 12 78 1 28 6 52 10 52 4 0 7 54 7
120 -1 65 -5 117 -9 115 -4 -3 -6 -22 -4 -42 2 -21 -2 -46 -8 -58 -6 -11 -14
-38 -18 -60 -14 -73 -30 -129 -42 -143 -7 -10 -23 -12 -48 -8 -21 3 -41 2 -44
-4 -3 -5 -30 -11 -58 -11 l-52 -2 60 -7 c33 -5 75 -7 93 -6 18 1 32 -1 32 -5
0 -4 -37 -9 -83 -10 -78 -4 -90 -8 -207 -66 -169 -83 -254 -110 -372 -119
-101 -7 -122 -2 -166 43 -7 7 -32 18 -55 24 -23 6 -60 17 -82 23 l-39 12 2 55
c1 30 5 82 8 117 4 39 3 62 -4 62 -18 0 -24 -33 -26 -127 0 -51 -4 -93 -7 -93
-3 0 -14 9 -24 20 -21 23 -28 20 -32 -18 -4 -32 -29 -167 -43 -237 -6 -27 -10
-95 -9 -150 1 -61 -5 -129 -15 -173 -9 -40 -16 -84 -16 -98 l0 -24 798 1 c438
1 790 3 781 6 -16 4 -32 37 -22 46 2 3 38 -8 79 -24 73 -28 81 -29 242 -28
117 0 158 3 137 10 -16 5 -45 7 -64 4 -51 -8 -71 2 -71 34 0 15 -5 32 -11 38
-8 8 -8 13 0 17 6 4 11 18 11 31 0 25 -26 40 -53 29 -8 -3 -48 3 -89 14 -40
11 -85 23 -99 26 -20 4 -26 11 -23 28 11 76 11 157 0 151 -8 -5 -8 -3 1 8 6 8
13 28 15 44 3 33 -4 31 192 50 52 5 69 11 73 24 2 9 26 24 52 34 64 22 128 71
147 110 22 45 6 80 -47 107 -34 18 -40 25 -35 43 3 12 6 26 6 30 0 5 5 5 10 2
6 -3 12 0 15 7 4 10 29 13 103 11 53 -2 103 -4 111 -5 15 -1 15 -9 -11 -449
-6 -113 -9 -213 -5 -222 5 -14 19 -17 71 -17 36 0 67 4 70 8 2 4 10 91 16 192
6 102 17 250 25 330 7 80 9 147 4 150 -5 4 -10 23 -11 44 -3 33 -11 44 -67 89
l-63 52 46 3 c42 3 45 5 36 23 -16 29 -4 39 45 39 l44 0 5 43 c5 36 21 375 29
577 l2 65 -120 2 c-131 3 -165 8 -165 24 0 7 51 9 150 7 135 -3 151 -5 156
-21 3 -10 12 -16 19 -13 8 3 19 -2 25 -10 7 -8 9 -14 4 -14 -4 0 10 -16 32
-36 43 -40 56 -51 165 -138 41 -33 104 -86 142 -119 l67 -59 0 30 c0 28 -21
47 -247 225 -271 212 -255 193 -238 285 l6 33 187 -128 c103 -69 209 -142 235
-161 49 -34 77 -37 41 -3 -10 9 -119 82 -241 162 -123 79 -223 150 -223 158 0
10 6 9 28 -5 161 -106 428 -277 439 -281 7 -3 13 -1 13 5 0 6 -108 77 -240
159 -229 141 -262 168 -230 188 6 3 10 22 10 41 0 38 9 35 -120 37 l-65 1 -3
-46 c-6 -91 -93 -140 -153 -87 l-24 21 25 -16 c70 -45 140 4 140 98 0 58 -16
88 -59 111 -28 14 -73 17 -65 4 2 -4 2 -14 -2 -22 -4 -12 -11 -13 -35 -4 -16
6 -29 15 -29 20 0 4 -4 6 -9 3 -12 -8 -41 3 -41 15 0 4 8 5 17 2 11 -4 4 9
-17 35 -25 32 -30 45 -22 55 13 15 17 80 9 115 -4 16 -2 22 6 19 18 -6 17
-108 -1 -129 -12 -15 -10 -22 24 -62 52 -62 69 -60 89 10 9 31 13 64 10 72 -3
9 -3 13 1 9 15 -15 44 37 45 82 1 25 4 35 6 23 5 -24 -13 -180 -23 -206 -3 -8
7 -18 26 -26 17 -7 41 -25 54 -40 l23 -28 6 172 c4 94 7 241 7 326 0 85 3 165
6 178 6 21 11 22 100 22 67 0 96 4 99 13 2 6 8 184 13 395 l10 383 25 27 c25
27 25 27 33 281 l7 253 28 33 c25 28 29 41 29 89 l0 56 -127 -2 c-71 -1 -139
-3 -153 -6z m-641 -199 c14 3 21 1 18 -6 -2 -7 -10 -12 -18 -13 -8 0 -22 -4
-32 -8 -24 -11 -31 -2 -23 30 6 24 8 25 20 9 9 -12 20 -16 35 -12z m699 -193
c-4 -189 -3 -222 10 -229 8 -5 13 -15 10 -23 -6 -16 -78 -13 -78 3 0 5 -7 9
-16 9 -15 0 -16 12 -10 113 9 162 10 266 2 274 -6 7 -10 -27 -6 -62 2 -20 2
-20 -13 0 -10 13 -12 22 -5 26 15 9 0 49 -18 49 -26 0 -13 44 14 48 18 3 22
-1 22 -22 0 -14 5 -26 10 -26 6 0 10 7 10 15 0 24 22 44 49 45 l24 0 -5 -220z
m-92 -28 c-13 -12 -17 8 -10 40 l9 33 3 -33 c2 -19 1 -36 -2 -40z m-169 31
c-8 -7 -480 -34 -486 -27 -12 12 22 16 170 20 89 2 165 6 167 9 3 3 39 5 80 5
42 0 72 -3 69 -7z m160 -95 c-3 -8 -6 -5 -6 6 -1 11 2 17 5 13 3 -3 4 -12 1
-19z m1 -63 c-1 -24 -6 -41 -10 -37 -7 7 0 82 8 82 2 0 3 -20 2 -45z m152
-111 c0 -31 -17 -64 -32 -64 -9 0 -9 3 0 12 7 7 12 27 12 45 0 18 5 33 10 33
6 0 10 -12 10 -26z m-81 -70 c14 -12 -19 -1 -35 12 -18 14 -18 14 6 3 14 -6
27 -13 29 -15z m-409 -451 c0 -9 -16 -13 -47 -13 l-48 1 29 23 c24 20 32 22
48 13 10 -7 18 -17 18 -24z m-137 2 c1 -5 -6 -11 -15 -13 -11 -2 -18 3 -18 13
0 17 30 18 33 0z m37 -5 c0 -5 -5 -10 -11 -10 -5 0 -7 5 -4 10 3 6 8 10 11 10
2 0 4 -4 4 -10z m181 -150 c-2 -182 -14 -390 -21 -390 -4 0 -5 11 -2 25 4 25
-12 35 -21 13 -3 -7 -6 -2 -6 11 -1 17 3 22 14 17 11 -4 15 1 15 19 0 26 -15
34 -23 13 -3 -7 -6 -3 -6 9 -1 16 3 21 14 17 11 -4 15 0 15 16 0 16 -4 20 -15
16 -13 -5 -15 18 -15 165 l0 170 26 -3 27 -3 -2 -95z m83 15 c-4 -8 -8 -15
-10 -15 -2 0 -4 7 -4 15 0 8 4 15 10 15 5 0 7 -7 4 -15z m-20 -139 c-3 -15 -8
-25 -11 -23 -2 3 -1 17 3 31 3 15 8 25 11 23 2 -3 1 -17 -3 -31z m-11 -111
c-3 -9 -8 -14 -10 -11 -3 3 -2 9 2 15 9 16 15 13 8 -4z m-106 -442 c-3 -10 -5
-4 -5 12 0 17 2 24 5 18 2 -7 2 -21 0 -30z m95 -438 c11 -21 10 -20 -37 35
l-30 35 28 -25 c16 -14 33 -34 39 -45z m-194 16 c-12 -15 -29 -37 -36 -47 -10
-16 -11 -15 -1 6 11 24 48 70 57 70 2 0 -7 -13 -20 -29z m153 -13 c16 -29 2
-21 -22 15 -17 23 -18 28 -6 18 10 -8 23 -23 28 -33z m-30 -40 c27 -33 32 -43
15 -28 -29 25 -71 80 -63 80 3 0 24 -24 48 -52z m-271 -36 c0 -14 -20 -38 -20
-24 0 6 -5 12 -11 12 -5 0 -8 -4 -4 -9 8 -13 -38 -10 -47 4 -14 19 -8 22 37
23 25 1 45 -2 45 -6z m215 -82 c-3 -5 -22 -10 -41 -10 -19 0 -34 5 -34 10 0 6
18 10 41 10 24 0 38 -4 34 -10z m-401 -642 c-4 -18 -7 -93 -6 -167 2 -118 1
-133 -14 -127 -8 3 -22 6 -29 6 -10 0 -11 9 -3 43 5 23 7 56 5 72 -5 34 33
205 46 205 5 0 5 -15 1 -32z m-65 -244 c-7 -24 -17 -44 -22 -44 -11 0 -1 61
16 98 18 39 22 1 6 -54z m-289 -14 c0 -5 -5 -10 -11 -10 -5 0 -7 5 -4 10 3 6
8 10 11 10 2 0 4 -4 4 -10z m704 -65 c-3 -22 -7 -41 -8 -41 0 -1 -22 -4 -49
-6 -52 -5 -63 1 -77 52 -7 25 -6 31 4 27 7 -3 18 -2 23 1 6 4 34 7 63 7 l51 0
-7 -40z m-574 -535 c0 -5 -5 -10 -11 -10 -5 0 -7 5 -4 10 3 6 8 10 11 10 2 0
4 -4 4 -10z m430 -186 c0 -3 -6 -12 -14 -20 -12 -11 -20 -12 -40 -3 -14 7 -23
16 -20 20 6 10 74 12 74 3z"/>
<path d="M4100 3125 c0 -8 5 -15 10 -15 6 0 10 7 10 15 0 8 -4 15 -10 15 -5 0
-10 -7 -10 -15z"/>
<path d="M4095 3080 c-4 -6 -3 -16 3 -22 6 -6 12 -6 17 2 4 6 3 16 -3 22 -6 6
-12 6 -17 -2z"/>
<path d="M4096 3023 c-12 -12 -6 -33 9 -33 8 0 15 6 15 14 0 17 -14 28 -24 19z"/>
<path d="M4240 4388 c0 -2 11 -25 25 -52 14 -27 25 -60 25 -73 0 -35 13 -28
32 19 17 39 17 42 1 61 -22 24 -83 57 -83 45z"/>
<path d="M4330 4366 c14 -13 28 -21 33 -19 4 2 7 -1 7 -7 0 -7 9 -23 20 -37
22 -28 26 -18 9 19 -10 23 -66 68 -84 68 -5 0 2 -11 15 -24z"/>
<path d="M2808 4233 c7 -3 16 -2 19 1 4 3 -2 6 -13 5 -11 0 -14 -3 -6 -6z"/>
<path d="M242 4210 c0 -14 2 -19 5 -12 2 6 2 18 0 25 -3 6 -5 1 -5 -13z"/>
<path d="M3515 4190 c3 -5 14 -10 23 -10 15 0 15 2 2 10 -20 13 -33 13 -25 0z"/>
<path d="M2860 4175 c1 -11 1 -22 0 -25 -7 -19 -7 -39 1 -34 5 3 9 -4 9 -15 0
-12 -4 -21 -9 -21 -5 0 -9 -13 -9 -30 1 -16 5 -27 10 -24 4 3 8 -7 8 -21 0
-18 6 -29 19 -32 13 -3 17 -11 14 -24 -3 -11 0 -19 7 -19 6 0 10 6 7 13 -2 6
0 22 4 35 5 13 5 22 -1 22 -6 0 -10 9 -10 20 0 11 -5 20 -11 20 -7 0 -9 -10
-5 -24 3 -14 2 -28 -4 -31 -16 -10 -11 47 5 69 8 11 15 27 15 35 0 14 -1 14
-10 1 -5 -8 -10 -13 -10 -10 -1 3 -3 25 -6 50 -2 24 -9 49 -15 55 -8 7 -10 4
-9 -10z m25 -115 c-3 -5 -10 -10 -16 -10 -5 0 -9 5 -9 10 0 6 7 10 16 10 8 0
12 -4 9 -10z"/>
<path d="M2240 4176 c0 -2 9 -6 20 -9 11 -3 18 -1 14 4 -5 9 -34 13 -34 5z"/>
<path d="M892 4125 c0 -16 2 -22 5 -12 2 9 2 23 0 30 -3 6 -5 -1 -5 -18z"/>
<path d="M2305 4100 c-3 -5 -1 -10 4 -10 6 0 11 5 11 10 0 6 -2 10 -4 10 -3 0
-8 -4 -11 -10z"/>
<path d="M2603 4033 c-7 -2 -13 -11 -13 -18 0 -11 6 -12 33 -3 46 15 56 28 22
27 -17 0 -36 -3 -42 -6z"/>
<path d="M2380 4010 c-12 -7 -8 -10 15 -10 17 0 37 -4 45 -10 12 -8 12 -10 -4
-16 -14 -5 -15 -9 -4 -15 10 -7 9 -9 -4 -9 -9 0 -24 -3 -34 -7 -12 -4 -15 -3
-10 5 5 8 2 10 -9 6 -9 -4 -23 -20 -31 -37 -15 -28 -15 -30 2 -22 17 7 83 29
122 41 27 8 26 37 -4 61 -31 24 -59 29 -84 13z"/>
<path d="M2587 3989 c-37 -21 -1 -37 86 -38 l82 0 -24 19 c-13 11 -28 20 -35
20 -6 0 -5 -4 3 -9 10 -6 -1 -9 -32 -9 -45 1 -61 11 -34 21 6 3 3 6 -8 6 -11
0 -28 -4 -38 -10z"/>
<path d="M2336 3975 c-3 -8 -1 -15 3 -15 5 0 11 7 15 15 3 8 1 15 -3 15 -5 0
-11 -7 -15 -15z"/>
<path d="M292 3921 c-8 -5 -10 -18 -6 -39 7 -33 18 -35 26 -4 7 26 -5 53 -20
43z"/>
<path d="M2425 3901 c-6 -5 -21 -11 -35 -14 l-25 -4 26 -2 c14 0 34 6 45 14
10 8 14 15 9 15 -6 0 -15 -4 -20 -9z"/>
<path d="M242 3820 c0 -62 6 -72 29 -44 10 13 10 17 0 24 -11 6 -11 9 0 13 12
5 12 6 0 6 -10 1 -11 4 -2 14 8 11 6 18 -8 31 -17 16 -18 14 -19 -44z"/>
<path d="M2557 3819 c-10 -6 -33 -8 -51 -5 -37 7 -71 -16 -40 -28 40 -15 131
-1 144 23 6 13 4 17 -13 18 -12 1 -30 -3 -40 -8z"/>
<path d="M300 3780 c0 -35 19 -49 35 -27 7 9 15 13 20 9 4 -4 6 2 4 12 -2 11
-16 23 -31 27 -26 7 -28 5 -28 -21z"/>
<path d="M2395 3760 c-4 -12 -5 -24 -2 -27 3 -2 8 5 12 17 4 12 5 24 2 27 -3
2 -8 -5 -12 -17z"/>
<path d="M4256 3734 c-7 -53 -8 -270 -1 -263 5 5 16 309 11 309 -2 0 -6 -21
-10 -46z"/>
<path d="M2460 3729 l-45 -20 24 -20 c30 -24 41 -24 41 1 0 10 9 24 19 30 30
16 112 13 125 -5 10 -14 13 -14 34 0 12 9 22 20 22 24 0 4 -39 8 -87 9 -71 2
-97 -2 -133 -19z"/>
<path d="M4622 3628 c-7 -7 -12 -27 -12 -45 0 -25 4 -31 15 -27 21 8 19 -16
-2 -33 -10 -8 -12 -12 -5 -8 15 8 16 -7 0 -23 -6 -6 -9 -15 -5 -19 17 -16 32
23 35 92 4 73 -2 87 -26 63z"/>
<path d="M2926 3514 c-3 -9 -6 -23 -6 -31 0 -13 3 -13 15 -3 16 13 21 50 6 50
-5 0 -12 -7 -15 -16z"/>
<path d="M2705 3160 c-3 -5 0 -10 9 -10 8 0 17 -6 19 -12 4 -8 6 -9 6 -2 1 18
-26 37 -34 24z"/>
<path d="M2744 3119 c-5 -8 -3 -9 6 -4 9 6 10 2 5 -16 -7 -20 -6 -22 6 -12 24
19 41 -1 41 -47 -1 -35 1 -40 14 -29 8 6 12 14 9 17 -3 3 2 13 10 22 15 16 13
19 -22 41 -21 13 -43 27 -50 31 -6 5 -15 3 -19 -3z"/>
<path d="M2392 3039 c-35 -73 -41 -136 -8 -68 22 43 50 62 78 53 21 -6 21 -7
3 -20 -17 -13 -14 -14 30 -14 31 0 55 -6 67 -17 10 -9 21 -14 24 -11 3 4 -15
27 -40 52 -25 25 -46 50 -46 56 0 6 -9 10 -20 8 -10 -2 -19 1 -19 6 1 8 -20
26 -31 26 -3 0 -20 -32 -38 -71z"/>
<path d="M2683 3084 c3 -18 -4 -36 -30 -66 -39 -47 -57 -78 -46 -78 12 0 66
70 81 103 15 36 16 67 1 67 -7 0 -9 -10 -6 -26z"/>
<path d="M2695 3019 c-4 -6 -5 -12 -2 -15 2 -3 7 2 10 11 7 17 1 20 -8 4z"/>
<path d="M3245 2970 c-3 -5 -1 -10 4 -10 6 0 11 5 11 10 0 6 -2 10 -4 10 -3 0
-8 -4 -11 -10z"/>
<path d="M4587 2953 c-2 -5 -8 -41 -11 -82 -7 -69 -6 -73 11 -67 16 5 16 5 -1
-9 -11 -8 -23 -15 -28 -15 -4 0 -8 -34 -8 -75 0 -43 4 -75 10 -75 6 0 10 -6
10 -14 0 -9 8 -12 25 -8 18 3 25 0 25 -12 0 -10 -9 -16 -25 -16 -14 0 -25 -4
-25 -8 0 -17 36 -41 55 -38 19 3 21 15 29 195 8 177 7 193 -9 211 -18 20 -50
27 -58 13z m42 -108 c-2 -25 -7 -45 -12 -45 -5 0 -6 7 -3 16 3 9 6 29 6 45 0
16 2 29 5 29 3 0 5 -20 4 -45z"/>
<path d="M1101 2865 c0 -16 4 -37 9 -45 8 -12 10 -10 9 10 0 14 -4 34 -9 45
-7 17 -9 16 -9 -10z"/>
<path d="M446 2673 c-3 -7 -2 -13 3 -13 5 0 14 6 20 13 8 10 7 14 -4 14 -8 0
-16 -6 -19 -14z"/>
<path d="M558 2673 c19 -8 3 -23 -25 -23 -20 0 -23 -3 -14 -13 15 -19 4 -27
-23 -18 -31 10 -67 6 -77 -10 -13 -21 -11 -29 10 -29 11 0 21 -5 23 -10 2 -6
14 -7 35 -1 23 7 37 5 50 -4 15 -11 22 -11 45 1 41 21 93 6 93 -26 0 -17 7
-26 20 -28 11 -3 24 -10 28 -18 4 -8 13 -14 19 -14 6 0 5 7 -3 18 -7 9 -1 6
14 -7 15 -14 27 -21 27 -17 0 5 8 2 17 -5 11 -10 14 -10 9 -1 -5 8 2 12 26 12
18 0 41 6 50 14 15 11 11 15 -35 30 -29 10 -65 23 -82 29 l-30 12 30 6 c28 6
29 7 8 14 -13 4 -23 13 -23 20 0 7 -11 16 -24 19 -29 7 -126 -12 -126 -25 0
-5 -4 -9 -10 -9 -14 0 -13 43 1 57 16 16 2 33 -24 32 -12 0 -16 -3 -9 -6z"/>
<path d="M3171 2604 c0 -11 3 -14 6 -6 3 7 2 16 -1 19 -3 4 -6 -2 -5 -13z"/>
<path d="M408 2538 c9 -9 15 -9 24 0 9 9 7 12 -12 12 -19 0 -21 -3 -12 -12z"/>
<path d="M3313 2542 c-7 -4 -9 -13 -5 -19 4 -7 13 -9 19 -5 7 4 9 13 5 19 -4
7 -13 9 -19 5z"/>
<path d="M3182 2510 c0 -14 2 -19 5 -12 2 6 2 18 0 25 -3 6 -5 1 -5 -13z"/>
<path d="M2220 2465 c0 -8 5 -15 10 -15 6 0 10 7 10 15 0 8 -4 15 -10 15 -5 0
-10 -7 -10 -15z"/>
<path d="M2513 2465 c0 -8 4 -12 9 -9 4 3 8 9 8 15 0 5 -4 9 -8 9 -5 0 -9 -7
-9 -15z"/>
<path d="M2121 2423 c0 -31 2 -34 9 -18 12 28 12 55 0 55 -5 0 -10 -17 -9 -37z"/>
<path d="M3191 2394 c0 -11 3 -14 6 -6 3 7 2 16 -1 19 -3 4 -6 -2 -5 -13z"/>
<path d="M3165 2390 c3 -5 8 -10 11 -10 2 0 4 5 4 10 0 6 -5 10 -11 10 -5 0
-7 -4 -4 -10z"/>
<path d="M3146 2348 c-3 -13 -6 -36 -5 -53 0 -28 1 -27 18 15 11 25 17 48 14
53 -8 14 -21 7 -27 -15z"/>
<path d="M2213 2315 c0 -22 2 -30 4 -17 2 12 2 30 0 40 -3 9 -5 -1 -4 -23z"/>
<path d="M2121 2315 c0 -16 11 -57 23 -90 18 -46 26 -56 31 -42 5 11 -2 40
-18 75 -13 31 -27 64 -30 72 -3 8 -6 2 -6 -15z"/>
<path d="M2913 2208 c-6 -31 -7 -62 -2 -75 5 -14 5 -23 -1 -23 -6 0 -10 -9
-10 -20 0 -11 6 -20 13 -20 9 0 16 26 23 85 5 47 8 90 6 95 -8 23 -19 7 -29
-42z"/>
<path d="M3126 2184 c-3 -26 -4 -49 -2 -52 3 -2 8 17 11 43 4 25 5 48 3 51 -3
2 -8 -17 -12 -42z"/>
<path d="M3433 2213 c-16 -6 -5 -33 13 -33 8 0 14 6 14 14 0 18 -11 25 -27 19z"/>
<path d="M1847 2171 c23 -23 48 -41 54 -41 15 0 16 -1 -46 45 l-50 36 42 -40z"/>
<path d="M2205 2139 c-8 -24 10 -48 25 -33 10 10 2 54 -10 54 -5 0 -12 -9 -15
-21z"/>
<path d="M3260 2151 c0 -6 5 -13 11 -17 6 -3 17 -20 25 -38 14 -33 18 -18 8
33 -5 21 -12 31 -25 31 -11 0 -19 -4 -19 -9z"/>
<path d="M2450 2115 c0 -8 5 -15 10 -15 6 0 10 7 10 15 0 8 -4 15 -10 15 -5 0
-10 -7 -10 -15z"/>
<path d="M2217 2073 c-3 -5 -1 -17 4 -28 7 -17 8 -17 8 8 1 27 -4 34 -12 20z"/>
<path d="M3035 2070 c-3 -5 1 -10 10 -10 9 0 13 5 10 10 -3 6 -8 10 -10 10 -2
0 -7 -4 -10 -10z"/>
<path d="M3130 2061 c0 -5 5 -13 10 -16 6 -3 10 -2 10 4 0 5 -4 13 -10 16 -5
3 -10 2 -10 -4z"/>
<path d="M3127 2023 c-2 -5 -7 -37 -11 -71 -5 -44 -4 -62 3 -57 6 3 11 -1 11
-9 0 -9 -4 -16 -10 -16 -5 0 -10 -9 -10 -20 0 -11 6 -20 14 -20 14 0 26 67 26
153 0 42 -11 61 -23 40z"/>
<path d="M2221 1980 c-8 -152 -7 -870 0 -870 8 0 11 50 11 183 0 31 3 57 8 57
5 0 17 3 27 7 10 3 15 3 11 -2 -9 -9 19 -65 32 -65 5 0 7 7 3 16 -5 13 -2 15
14 10 15 -5 22 -1 26 14 4 16 0 20 -18 20 -13 0 -30 7 -39 15 -8 8 -23 15 -34
15 -22 0 -32 39 -32 128 l0 52 37 -4 c32 -4 34 -3 21 10 -8 8 -24 16 -36 17
-21 1 -21 5 -19 170 1 93 0 192 -4 220 l-6 52 -2 -45z"/>
<path d="M3333 1920 c2 -36 7 -71 12 -79 4 -8 14 -39 21 -68 11 -46 10 -55 -2
-60 -20 -8 -17 -23 5 -23 38 0 41 83 7 172 -13 35 -29 77 -35 93 -9 26 -10 21
-8 -35z"/>
<path d="M2903 1963 c-16 -6 -18 -109 -3 -118 15 -9 22 16 18 72 -2 34 -7 48
-15 46z"/>
<path d="M2429 1930 c-7 -35 -4 -48 7 -38 3 4 4 21 2 40 l-3 33 -6 -35z"/>
<path d="M2419 1838 c-1 -2 -4 -64 -8 -138 -5 -120 -8 -135 -23 -134 -31 3
-19 -12 18 -24 l35 -11 -8 32 c-4 18 -6 87 -5 155 1 101 -1 137 -9 120z"/>
<path d="M3674 1802 c-18 -12 -34 -49 -34 -79 l1 -28 15 28 c8 15 23 27 34 27
16 0 20 7 20 30 0 29 -13 38 -36 22z"/>
<path d="M4570 1760 c0 -5 5 -10 11 -10 5 0 7 5 4 10 -3 6 -8 10 -11 10 -2 0
-4 -4 -4 -10z"/>
<path d="M3118 1722 c-18 -42 -40 -204 -31 -228 5 -13 7 -12 18 3 7 10 13 30
13 43 0 14 5 68 10 120 6 52 10 95 9 97 -2 1 -10 -15 -19 -35z"/>
<path d="M3778 1713 c6 -2 18 -2 25 0 6 3 1 5 -13 5 -14 0 -19 -2 -12 -5z"/>
<path d="M3860 1710 c0 -5 5 -10 10 -10 6 0 10 5 10 10 0 6 -4 10 -10 10 -5 0
-10 -4 -10 -10z"/>
<path d="M2579 1603 c-1 -27 -2 -70 -3 -96 -1 -27 2 -51 6 -53 5 -3 8 40 8 95
0 101 -9 143 -11 54z"/>
<path d="M2315 1540 c3 -5 8 -10 11 -10 2 0 4 5 4 10 0 6 -5 10 -11 10 -5 0
-7 -4 -4 -10z"/>
<path d="M2891 1524 c0 -11 3 -14 6 -6 3 7 2 16 -1 19 -3 4 -6 -2 -5 -13z"/>
<path d="M3235 1530 c28 -4 64 -11 81 -15 24 -5 33 -3 37 9 6 14 -5 16 -81 15
-78 -2 -82 -3 -37 -9z"/>
<path d="M3370 1529 c0 -5 5 -7 10 -4 6 3 10 8 10 11 0 2 -4 4 -10 4 -5 0 -10
-5 -10 -11z"/>
<path d="M2267 1435 c3 -8 9 -12 14 -9 12 7 11 11 -5 17 -10 4 -13 1 -9 -8z"/>
<path d="M2398 1394 c-5 -4 -8 -15 -8 -25 0 -9 -6 -19 -12 -22 -10 -3 -10 -7
0 -19 7 -9 14 -39 16 -68 5 -79 26 -89 26 -12 0 35 4 62 10 62 15 0 12 27 -4
33 -8 3 -16 18 -18 32 -2 15 -6 23 -10 19z"/>
<path d="M2563 1383 c-8 -160 -8 -166 6 -171 11 -4 13 4 9 36 -3 22 -3 44 1
49 9 10 2 103 -8 103 -4 0 -7 -8 -8 -17z"/>
<path d="M3107 1323 c-10 -10 -8 -43 2 -43 5 0 7 -9 4 -20 -3 -11 0 -20 6 -20
6 0 11 10 12 23 0 12 2 32 5 45 4 21 -14 31 -29 15z"/>
<path d="M2890 1300 c0 -11 7 -20 15 -20 8 0 15 9 15 20 0 11 -7 20 -15 20 -8
0 -15 -9 -15 -20z"/>
<path d="M3310 1303 c0 -13 5 -23 10 -23 13 0 13 11 0 30 -8 12 -10 11 -10 -7z"/>
<path d="M3377 1253 c-4 -3 -7 -11 -7 -17 0 -6 5 -5 12 2 6 6 9 14 7 17 -3 3
-9 2 -12 -2z"/>
<path d="M2895 1240 c-3 -5 -2 -10 4 -10 5 0 13 5 16 10 3 6 2 10 -4 10 -5 0
-13 -4 -16 -10z"/>
<path d="M2341 1233 c-1 -7 -11 -13 -23 -14 -22 0 -22 0 2 -10 13 -6 28 -15
32 -22 14 -22 16 -2 3 28 -7 17 -14 24 -14 18z"/>
<path d="M2560 1190 c-8 -18 -8 -350 0 -355 6 -4 11 16 12 52 0 32 2 94 3 138
2 69 -8 180 -15 165z"/>
<path d="M2409 1143 c0 -29 -10 -107 -14 -120 -2 -7 -11 -10 -20 -7 -10 4 -15
20 -16 53 0 40 -1 43 -10 21 -14 -34 -28 -41 -74 -35 -37 6 -39 5 -21 -10 11
-8 24 -15 29 -15 4 0 5 -9 2 -20 -5 -16 -2 -20 15 -20 12 0 19 4 16 9 -3 5 3
11 14 14 11 3 20 2 20 -2 0 -4 11 -13 25 -19 18 -9 24 -17 21 -34 -3 -13 -5
-52 -6 -88 -2 -58 -3 -62 -13 -37 -7 17 -16 26 -25 22 -7 -3 -36 -5 -63 -5
-27 0 -49 -4 -49 -10 0 -5 19 -10 43 -10 52 0 87 -22 87 -56 0 -13 9 -33 20
-44 13 -13 20 -34 21 -62 0 -32 2 -38 8 -23 5 11 8 41 6 68 -1 33 2 47 12 47
21 0 15 18 -12 36 -17 11 -23 23 -20 38 2 11 7 85 9 164 3 79 8 148 11 153 4
5 1 9 -4 9 -6 0 -11 -8 -12 -17z"/>
<path d="M2890 1098 c0 -13 -3 -33 -6 -45 -5 -17 -2 -23 10 -23 9 0 17 3 17 8
7 46 6 62 -4 62 -7 0 -6 4 3 10 13 8 12 10 -2 10 -12 0 -18 -8 -18 -22z"/>
<path d="M3116 1091 c-2 -9 -3 -27 -1 -41 2 -14 4 -28 4 -32 1 -5 7 -8 14 -8
9 0 14 15 15 48 1 36 -3 49 -13 49 -8 0 -17 -7 -19 -16z"/>
<path d="M2199 1073 c-7 -18 -7 -29 0 -31 5 -2 7 -11 4 -20 -4 -13 -2 -12 10
3 18 23 22 61 7 70 -6 3 -15 -6 -21 -22z"/>
<path d="M4993 985 c0 -22 2 -30 4 -17 2 12 2 30 0 40 -3 9 -5 -1 -4 -23z"/>
<path d="M3120 975 c0 -8 7 -15 15 -15 8 0 15 7 15 15 0 8 -7 15 -15 15 -8 0
-15 -7 -15 -15z"/>
<path d="M2184 965 c-8 -20 3 -48 16 -40 13 8 13 55 0 55 -6 0 -13 -7 -16 -15z"/>
<path d="M2890 929 c0 -29 4 -48 10 -44 5 3 7 12 3 20 -3 8 0 15 6 15 6 0 11
14 11 30 0 20 -5 30 -15 30 -11 0 -15 -12 -15 -51z"/>
<path d="M2345 961 c-3 -6 -15 -11 -27 -11 -17 0 -18 -3 -8 -15 7 -8 17 -12
23 -8 6 3 7 1 3 -5 -4 -7 -1 -21 7 -32 17 -25 25 -11 21 38 -2 38 -9 48 -19
33z"/>
<path d="M3122 908 c3 -7 13 -15 22 -16 12 -3 17 1 14 10 -3 7 -13 15 -22 16
-12 3 -17 -1 -14 -10z"/>
<path d="M3130 830 c0 -5 4 -10 9 -10 6 0 13 5 16 10 3 6 -1 10 -9 10 -9 0
-16 -4 -16 -10z"/>
<path d="M2521 765 c-23 -13 -23 -13 -3 -24 14 -8 21 -21 21 -43 0 -57 12
-106 28 -112 13 -5 15 3 11 51 -3 32 -7 65 -9 73 -3 10 7 16 31 21 22 4 27 7
12 8 -12 0 -30 10 -39 21 -20 23 -20 23 -52 5z"/>
<path d="M2884 768 c-4 -6 -2 -14 4 -16 7 -2 10 -8 6 -13 -8 -14 3 -10 20 7 9
8 14 20 11 25 -9 13 -32 11 -41 -3z"/>
<path d="M2953 763 c9 -2 25 -2 35 0 9 3 1 5 -18 5 -19 0 -27 -2 -17 -5z"/>
<path d="M2760 750 l-55 -7 55 -1 c30 -1 62 3 70 8 17 11 21 11 -70 0z"/>
<path d="M2400 609 c0 -5 5 -7 10 -4 6 3 10 8 10 11 0 2 -4 4 -10 4 -5 0 -10
-5 -10 -11z"/>
<path d="M3140 300 c0 -5 5 -10 11 -10 5 0 7 5 4 10 -3 6 -8 10 -11 10 -2 0
-4 -4 -4 -10z"/>
<path d="M4410 129 c0 -11 4 -18 10 -14 5 3 7 12 3 20 -7 21 -13 19 -13 -6z"/>
</g>
</svg>
