<?xml version="1.0" standalone="no"?>
<!DOCTYPE svg PUBLIC "-//W3C//DTD SVG 20010904//EN"
 "http://www.w3.org/TR/2001/REC-SVG-20010904/DTD/svg10.dtd">
<svg version="1.0" xmlns="http://www.w3.org/2000/svg"
 width="500.000000pt" height="500.000000pt" viewBox="0 0 500.000000 500.000000"
 preserveAspectRatio="xMidYMid meet">

<g transform="translate(0.000000,500.000000) scale(0.100000,-0.100000)"
fill="#000000" stroke="none">
<path d="M2300 4761 c0 -6 -16 -13 -37 -17 -20 -4 -80 -28 -133 -55 l-98 -48
-26 -77 -26 -78 52 -46 52 -47 -27 -7 c-50 -12 -171 53 -153 83 3 4 7 36 11
71 3 36 8 78 11 93 6 27 4 28 -17 22 -13 -4 -30 -12 -36 -17 -7 -6 -19 -8 -27
-5 -13 5 -196 -78 -196 -89 0 -10 65 8 72 20 4 6 8 7 8 1 0 -5 5 -3 10 5 7 11
12 12 21 3 8 -8 4 -16 -17 -29 -16 -10 -31 -21 -34 -24 -3 -3 -21 -11 -40 -17
-29 -11 -37 -11 -49 2 -14 13 -13 15 2 15 9 0 17 5 17 10 0 12 -2 12 -35 0
l-26 -10 21 -22 c14 -16 17 -24 9 -27 -7 -2 -20 6 -30 18 l-18 21 -58 -29
c-32 -16 -101 -50 -154 -75 -66 -31 -98 -52 -102 -66 -4 -15 -13 -20 -34 -19
-15 2 -38 -1 -50 -5 -25 -8 -31 -26 -10 -27 6 0 22 -2 35 -5 12 -2 43 6 68 17
24 12 48 19 51 15 4 -3 -1 -6 -10 -6 -9 0 -17 -4 -17 -10 0 -5 -7 -10 -16 -10
-9 0 -28 -8 -42 -18 -64 -44 -107 -57 -200 -60 -71 -3 -95 -8 -99 -19 -3 -8
-65 -44 -136 -79 -126 -61 -163 -84 -141 -84 6 0 64 26 130 59 l119 58 205 -4
c113 -3 210 -10 217 -15 9 -7 16 0 27 25 19 46 25 48 66 27 35 -18 35 -18 10
-25 -15 -4 -31 -20 -41 -41 -16 -33 -16 -35 5 -50 21 -15 21 -15 2 -29 -28
-21 -36 -19 -118 25 l-73 39 -157 -8 c-88 -5 -164 -13 -171 -20 -8 -6 -68 -38
-134 -70 l-121 -60 -51 -95 c-28 -52 -51 -100 -51 -107 0 -7 18 -36 40 -65 22
-29 40 -55 40 -58 0 -3 -12 -12 -27 -20 -26 -13 -32 -12 -93 25 -36 22 -66 43
-68 48 -1 4 16 59 38 121 22 62 38 115 36 117 -6 7 -75 -27 -84 -41 -26 -41
-64 -150 -69 -198 l-6 -58 32 0 c32 0 36 -8 32 -57 -1 -13 3 -23 9 -23 6 0 10
-6 9 -12 -1 -7 1 -21 6 -31 11 -26 0 -31 -27 -13 -20 13 -27 13 -56 0 l-34
-14 21 -28 c11 -16 72 -78 137 -138 64 -60 133 -126 153 -147 27 -30 40 -37
59 -32 19 5 40 -10 120 -83 53 -49 118 -100 143 -115 49 -28 80 -57 60 -57 -6
0 -11 -9 -11 -19 0 -23 -23 -33 -58 -25 -25 6 -23 3 18 -38 25 -25 50 -53 55
-63 10 -16 17 -13 83 30 42 27 80 44 88 41 26 -10 74 22 74 49 0 30 -3 30 45
5 49 -25 53 -25 89 5 25 20 28 26 16 40 -18 21 -8 28 22 15 21 -10 31 -6 83
30 33 22 78 53 100 67 22 14 103 68 180 118 77 51 150 98 163 104 23 12 23 13
6 32 -19 21 -16 26 18 43 13 6 23 19 23 28 0 11 65 60 180 136 402 266 458
302 462 302 2 0 28 18 58 40 30 22 56 40 59 40 20 0 136 94 136 109 0 4 10 11
22 16 13 6 24 18 26 29 3 11 0 16 -7 12 -17 -11 -13 10 4 24 12 10 15 9 15 -4
0 -10 5 -14 10 -11 6 3 10 15 10 26 0 11 14 33 31 50 16 16 39 49 49 72 l20
42 -28 23 -27 22 22 18 c20 16 49 112 34 112 -4 0 -47 -25 -97 -56 -49 -31
-102 -64 -119 -73 -16 -9 -56 -34 -88 -54 -31 -21 -61 -36 -65 -33 -7 4 -211
16 -329 18 -59 1 -64 4 -104 44 -40 41 -44 64 -12 64 8 0 44 -16 78 -35 l64
-35 151 6 c164 6 159 4 277 80 35 22 53 41 53 54 0 20 27 32 65 27 17 -2 20 5
23 39 l3 40 -108 85 c-86 68 -134 97 -233 141 -111 50 -134 57 -206 61 -45 2
-86 7 -93 11 -6 4 -11 3 -11 -3z m247 -125 c3 -2 0 -21 -7 -40 -11 -33 -9 -39
14 -67 33 -39 33 -61 0 -94 -24 -24 -33 -26 -88 -24 -126 6 -209 87 -147 143
24 22 129 33 159 17 17 -9 15 -2 -13 41 -19 28 -32 55 -29 59 4 8 99 -22 111
-35z m-331 19 c-11 -8 -29 -15 -40 -15 -19 1 -19 2 4 15 35 20 62 19 36 0z
m172 3 c22 -22 12 -29 -18 -13 -16 9 -30 18 -30 20 0 10 36 5 48 -7z m237 -68
c6 -10 -33 -75 -41 -68 -6 7 19 78 27 78 4 0 11 -5 14 -10z m-835 -10 c8 -5
11 -12 7 -16 -4 -4 -15 0 -24 9 -18 18 -8 23 17 7z m840 -90 c-8 -5 -22 -10
-30 -10 -13 0 -13 1 0 10 8 5 22 10 30 10 13 0 13 -1 0 -10z m-1050 -30 c0 -6
-7 -10 -16 -10 -9 0 -12 -5 -8 -12 5 -7 0 -9 -14 -6 -13 4 -23 0 -26 -8 -3 -8
-15 -14 -26 -14 -11 0 -20 -4 -20 -9 0 -5 -14 -17 -32 -25 -36 -18 -41 -19
-33 -7 3 5 1 12 -5 16 -20 13 -9 25 17 19 22 -6 25 -4 20 10 -4 10 -1 16 8 16
8 0 15 5 15 10 0 6 11 10 25 10 14 0 25 4 25 10 0 5 7 7 15 3 9 -3 15 -2 14 3
-3 20 2 24 21 14 11 -6 20 -15 20 -20z m1248 0 c18 -15 23 -27 20 -57 -4 -48
-21 -46 -28 4 l-5 38 -47 -3 c-36 -3 -48 0 -48 11 0 21 10 27 49 27 20 -1 46
-9 59 -20z m-138 -10 c0 -5 -5 -10 -11 -10 -5 0 -7 5 -4 10 3 6 8 10 11 10 2
0 4 -4 4 -10z m-1340 -114 c0 -3 -4 -8 -10 -11 -5 -3 -10 -1 -10 4 0 6 5 11
10 11 6 0 10 -2 10 -4z m1240 -6 c0 -5 -4 -10 -9 -10 -6 0 -13 5 -16 10 -3 6
1 10 9 10 9 0 16 -4 16 -10z m-678 -117 c44 -30 57 -72 34 -108 -27 -41 -57
-49 -167 -46 -52 1 -122 64 -122 110 0 44 22 62 90 76 68 14 110 5 165 -32z
m238 -29 c0 -21 -25 -44 -55 -50 -56 -10 -62 1 -15 29 43 25 70 34 70 21z
m-12 -81 c-3 -18 -55 -37 -63 -23 -3 5 7 15 22 23 38 20 45 20 41 0z m391 -64
c-8 -5 -22 -9 -31 -9 -10 0 -18 -7 -18 -16 0 -8 -4 -13 -9 -10 -5 3 -12 -1
-15 -10 -5 -13 -9 -14 -21 -4 -12 10 -15 9 -15 -4 0 -20 -7 -20 -27 0 -14 14
-14 16 3 30 11 8 31 17 46 20 15 4 29 12 32 20 3 8 10 14 16 14 6 0 8 -4 5
-10 -3 -5 1 -10 9 -10 9 0 16 8 16 18 1 15 2 15 11 -2 9 -14 8 -20 -2 -27z
m-886 -167 c47 -28 56 -37 52 -55 -3 -12 -7 -35 -9 -52 -32 -241 -32 -241 -53
-248 -10 -4 -92 -52 -183 -109 l-165 -103 -160 2 c-88 2 -201 5 -252 9 l-91 6
-41 57 -40 57 28 17 c28 16 29 16 109 -34 67 -41 88 -49 114 -45 18 3 98 8
178 11 l145 6 95 56 c184 109 162 80 226 290 l13 42 -46 56 c-43 53 -45 56
-27 69 21 16 28 14 107 -32z m417 -2 c0 -5 -5 -10 -11 -10 -5 0 -7 5 -4 10 3
6 8 10 11 10 2 0 4 -4 4 -10z m-910 -25 c19 -6 47 -28 63 -48 26 -32 28 -38
18 -69 -21 -62 -75 -90 -170 -87 -97 3 -161 52 -161 122 0 42 35 74 110 100
20 7 96 -3 140 -18z m970 10 c0 -2 -10 -9 -22 -15 -22 -11 -22 -10 -4 4 21 17
26 19 26 11z m-785 -35 c-3 -5 -16 -15 -28 -21 -22 -12 -22 -12 -3 10 19 21
43 30 31 11z m728 -1 c-6 -6 -32 -25 -59 -43 -46 -30 -49 -35 -48 -72 0 -40 0
-41 -77 -87 -83 -50 -105 -57 -95 -31 3 9 6 28 6 43 0 23 10 35 55 65 30 20
57 36 59 36 2 0 40 22 83 49 80 51 95 59 76 40z m-793 -44 c-7 -9 -15 -13 -19
-10 -3 3 1 10 9 15 21 14 24 12 10 -5z m210 0 c0 -2 -9 -9 -20 -15 -16 -9 -20
-8 -20 5 0 8 9 15 20 15 11 0 20 -2 20 -5z m583 -7 c-4 -7 -6 -20 -5 -28 1 -8
-7 -21 -18 -28 -17 -10 -21 -10 -27 4 -4 10 4 24 22 40 31 27 40 30 28 12z
m-318 -557 c-3 -6 -14 -10 -23 -10 -15 1 -15 2 1 6 9 2 17 9 17 15 0 6 3 9 6
5 3 -3 3 -10 -1 -16z m-88 -66 c3 -9 3 -19 -1 -22 -7 -7 -36 16 -36 28 0 15
30 10 37 -6z m-37 -30 c0 -8 -9 -19 -19 -25 -29 -15 -38 -12 -15 5 18 14 18
14 -4 15 -13 0 -20 4 -17 10 10 16 55 12 55 -5z m-62 -38 c2 -10 -3 -17 -11
-17 -16 0 -30 24 -19 34 10 10 27 1 30 -17z m-50 -19 c18 -18 15 -28 -8 -28
-13 0 -20 7 -20 20 0 23 10 26 28 8z m-45 -37 c3 -11 2 -22 -1 -25 -8 -9 -32
14 -32 30 0 21 27 17 33 -5z"/>
<path d="M1922 4160 c0 -14 2 -19 5 -12 2 6 2 18 0 25 -3 6 -5 1 -5 -13z"/>
<path d="M1845 4100 c-3 -5 -1 -10 4 -10 6 0 11 5 11 10 0 6 -2 10 -4 10 -3 0
-8 -4 -11 -10z"/>
<path d="M935 3789 c-4 -6 -5 -12 -2 -15 2 -3 7 2 10 11 7 17 1 20 -8 4z"/>
<path d="M960 3725 c-10 -12 -10 -15 4 -15 9 0 16 7 16 15 0 8 -2 15 -4 15 -2
0 -9 -7 -16 -15z"/>
<path d="M1150 3725 c0 -8 5 -15 10 -15 6 0 10 7 10 15 0 8 -4 15 -10 15 -5 0
-10 -7 -10 -15z"/>
<path d="M2020 4710 c-13 -8 -13 -10 2 -10 9 0 20 5 23 10 8 13 -5 13 -25 0z"/>
<path d="M1985 4690 c-3 -5 -1 -10 4 -10 6 0 11 5 11 10 0 6 -2 10 -4 10 -3 0
-8 -4 -11 -10z"/>
<path d="M1945 4670 c-3 -5 -2 -10 4 -10 5 0 13 5 16 10 3 6 2 10 -4 10 -5 0
-13 -4 -16 -10z"/>
<path d="M127 3454 c-49 -26 -52 -35 -30 -94 3 -8 7 -24 8 -34 3 -25 73 -89
90 -82 8 3 15 1 17 -5 2 -5 16 -4 36 3 25 10 37 10 51 1 15 -10 21 -10 24 0 3
7 6 5 6 -5 1 -25 117 -143 124 -126 3 7 6 4 6 -9 1 -12 -5 -23 -11 -26 -10 -3
-10 -8 1 -21 18 -22 8 -32 -12 -11 -20 19 -27 19 -27 0 0 -8 5 -15 10 -15 6 0
9 -3 8 -7 -1 -5 12 -23 30 -42 25 -26 36 -31 44 -23 9 9 6 18 -12 37 -25 27
-32 57 -20 89 6 18 8 17 14 -8 4 -18 12 -26 20 -23 8 3 22 -3 32 -14 9 -10 26
-19 36 -19 11 0 16 -4 13 -10 -3 -5 0 -10 8 -10 8 0 42 -29 76 -65 33 -36 58
-65 55 -65 -4 0 5 -12 20 -26 14 -15 26 -33 26 -40 0 -21 32 -16 65 10 25 20
28 26 16 40 -16 19 -42 21 -59 4 -9 -9 -12 -8 -12 5 0 9 5 17 10 17 22 0 7 25
-48 79 -124 120 -152 141 -178 135 -21 -5 -24 -3 -24 20 0 17 -10 36 -27 51
-25 21 -29 22 -35 7 -5 -12 -7 -9 -7 11 -1 17 -6 27 -16 27 -8 0 -15 5 -15 10
0 6 -19 29 -41 51 -32 32 -43 38 -50 28 -6 -10 -9 -5 -10 16 -1 29 -1 30 -9 5
l-8 -25 -1 26 c-1 33 -51 95 -62 77 -6 -9 -10 -8 -15 5 -3 10 -4 20 -1 23 9 9
42 -18 146 -118 53 -51 159 -151 235 -223 77 -71 169 -158 204 -192 36 -35 66
-63 68 -63 18 0 -29 49 -243 251 -381 361 -395 374 -405 371 -5 -1 -22 5 -38
13 -16 8 -30 15 -32 14 -2 0 -24 -12 -51 -25z m260 -226 c-3 -8 -6 -5 -6 6 -1
11 2 17 5 13 3 -3 4 -12 1 -19z m30 -70 c-3 -7 -5 -2 -5 12 0 14 2 19 5 13 2
-7 2 -19 0 -25z m100 -70 c-3 -7 -5 -2 -5 12 0 14 2 19 5 13 2 -7 2 -19 0 -25z"/>
<path d="M270 3182 c0 -10 20 -38 45 -62 37 -36 48 -42 55 -30 9 15 -31 64
-77 95 -21 14 -23 14 -23 -3z"/>
<path d="M550 2991 c0 -27 152 -174 162 -157 5 10 -18 40 -72 95 -43 45 -81
81 -85 81 -3 0 -5 -8 -5 -19z"/>
<path d="M2031 2987 c-1 -10 -12 -22 -25 -27 -14 -5 -26 -19 -29 -32 -4 -19
-5 -18 -6 7 -1 23 -4 26 -13 17 -10 -10 -13 -82 -13 -290 0 -320 3 -407 17
-442 5 -14 12 -35 14 -48 6 -33 35 -62 62 -62 16 0 22 -5 20 -17 -2 -11 3 -18
12 -18 9 0 15 9 15 24 0 19 7 26 29 32 16 5 33 6 37 3 5 -2 17 12 27 33 21 42
85 149 138 230 19 28 37 60 41 70 4 10 42 65 85 123 55 74 74 106 63 108 -12
3 -9 13 15 47 29 43 29 43 5 31 -14 -6 -25 -14 -25 -18 0 -4 -15 -17 -32 -29
-37 -26 -36 -23 34 63 27 33 34 46 21 44 -9 -2 -19 -10 -22 -19 -3 -8 -18 -25
-33 -37 -16 -12 -28 -25 -28 -29 0 -4 -18 -27 -40 -50 -51 -53 -52 -43 -2 18
46 54 60 77 44 67 -7 -4 -12 -2 -12 4 0 29 -121 -101 -235 -253 -27 -36 -52
-66 -55 -67 -9 0 1 74 12 87 9 12 31 413 23 422 -3 2 -5 -1 -5 -8 0 -16 -49
-9 -60 9 -5 8 -18 11 -38 7 -20 -4 -32 -2 -36 6 -2 7 -5 4 -5 -6z"/>
<path d="M550 2907 c0 -22 68 -89 81 -81 7 4 9 3 5 -4 -3 -6 -1 -14 5 -18 8
-4 9 -3 5 4 -4 7 -2 12 6 12 7 0 -10 23 -37 50 -51 51 -65 60 -65 37z"/>
<path d="M2755 2835 c-57 -34 -122 -111 -145 -173 -25 -67 -25 -93 0 -125 11
-14 20 -31 20 -37 0 -23 41 -68 84 -94 58 -34 70 -34 20 0 -49 33 -47 31 -40
43 4 6 27 -1 59 -17 55 -28 85 -41 150 -63 59 -21 62 -32 22 -68 -26 -22 -46
-31 -73 -31 -20 -1 -57 -5 -82 -10 -25 -5 -72 -7 -105 -3 -54 5 -64 10 -97 46
-21 22 -38 47 -38 54 0 8 -8 13 -17 11 -12 -2 -19 4 -21 19 -5 31 -43 40 -77
17 -22 -14 -26 -23 -21 -46 5 -23 2 -28 -14 -28 -24 0 -26 -13 -5 -30 8 -7 15
-26 15 -42 0 -20 11 -43 31 -66 24 -27 28 -37 17 -44 -10 -7 -9 -8 4 -6 9 2
23 -5 30 -14 7 -9 48 -27 91 -39 72 -22 83 -22 175 -11 63 8 101 18 108 28 7
8 35 17 64 21 55 6 111 44 158 107 20 26 23 39 18 80 -3 28 -13 57 -22 65 -15
15 -16 14 -9 -9 8 -25 7 -25 -13 -7 -11 10 -23 29 -26 43 -4 15 -25 35 -59 54
-59 34 -89 41 -39 9 18 -12 31 -23 29 -26 -7 -6 -164 73 -183 91 -14 15 -14
17 0 22 13 5 12 9 -7 24 l-22 19 51 49 c52 50 126 102 206 143 l43 23 -72 17
c-127 30 -163 31 -208 4z m-155 -712 c37 -8 96 -13 138 -11 39 2 72 0 72 -4 0
-8 -53 -12 -120 -10 -60 2 -148 20 -177 37 -27 15 -27 16 -3 10 14 -4 54 -14
90 -22z"/>
<path d="M3000 2762 c-92 -46 -210 -132 -210 -153 0 -5 28 13 61 40 34 27 99
69 145 92 46 24 84 44 84 46 0 9 -31 -1 -80 -25z"/>
<path d="M700 2755 c0 -9 11 -20 25 -27 13 -6 22 -14 20 -18 -3 -4 3 -7 12 -6
9 0 18 -5 21 -13 3 -9 0 -11 -9 -6 -8 5 -11 4 -6 -1 5 -5 12 -9 15 -9 4 0 13
-4 20 -8 28 -18 9 12 -35 56 -49 50 -63 57 -63 32z"/>
<path d="M2490 2611 c0 -5 -17 -31 -38 -58 -45 -57 -65 -91 -28 -48 48 55 87
115 77 115 -6 0 -11 -4 -11 -9z"/>
<path d="M2276 2283 c-6 -14 -5 -15 5 -6 7 7 10 15 7 18 -3 3 -9 -2 -12 -12z"/>
<path d="M2246 2233 c-6 -14 -5 -15 5 -6 7 7 10 15 7 18 -3 3 -9 -2 -12 -12z"/>
<path d="M3050 2174 c-25 -26 -58 -55 -75 -65 -35 -22 -26 -25 13 -5 25 13 70
57 101 99 24 31 6 18 -39 -29z"/>
<path d="M2647 2038 c-7 -4 9 -8 36 -8 26 0 47 4 47 9 0 11 -66 10 -83 -1z"/>
<path d="M3593 1398 c-37 -10 -54 -48 -33 -73 17 -20 70 -28 103 -16 21 8 27
17 27 40 0 15 -7 34 -15 41 -13 11 -15 8 -13 -21 2 -25 -1 -34 -14 -37 -13 -2
-17 5 -20 36 -3 38 -3 38 -35 30z m17 -43 c0 -28 -17 -34 -27 -9 -3 9 0 20 8
25 19 12 19 12 19 -16z"/>
<path d="M3822 1380 c0 -14 2 -19 5 -12 2 6 2 18 0 25 -3 6 -5 1 -5 -13z"/>
<path d="M3791 1374 c0 -11 3 -14 6 -6 3 7 2 16 -1 19 -3 4 -6 -2 -5 -13z"/>
<path d="M3561 1263 c11 -13 11 -17 2 -20 -34 -12 -6 -23 57 -23 56 0 70 3 70
15 0 11 -12 15 -45 15 -31 0 -47 5 -51 15 -4 8 -15 15 -26 15 -18 0 -19 -2 -7
-17z"/>
<path d="M3826 1263 c5 -5 12 -12 16 -18 4 -6 8 -2 8 8 0 9 -7 17 -17 17 -9 0
-12 -3 -7 -7z"/>
<path d="M3804 1192 c22 -26 33 -28 33 -7 0 8 -4 12 -9 9 -5 -3 -17 0 -26 7
-13 11 -12 8 2 -9z"/>
<path d="M3568 1179 c-28 -16 -21 -79 9 -79 11 0 13 7 8 30 -5 23 -3 30 9 30
9 0 18 -11 22 -25 7 -29 35 -48 58 -39 11 4 15 18 14 50 l-2 44 -51 0 c-27 0
-58 -5 -67 -11z m106 -34 c7 -20 -23 -32 -35 -14 -13 21 -11 29 10 29 10 0 22
-7 25 -15z"/>
<path d="M3780 1126 c0 -2 8 -10 18 -17 15 -13 16 -12 3 4 -13 16 -21 21 -21
13z"/>
<path d="M3840 1060 c0 -11 4 -20 9 -20 5 0 7 9 4 20 -3 11 -7 20 -9 20 -2 0
-4 -9 -4 -20z"/>
<path d="M3550 1061 c0 -6 20 -13 45 -17 56 -8 58 -20 5 -29 -38 -6 -58 -20
-47 -32 3 -2 24 -7 46 -10 52 -7 52 -19 1 -28 -36 -6 -58 -20 -48 -30 2 -2 34
5 71 17 76 23 87 43 27 53 -47 8 -45 20 5 29 49 9 44 31 -9 45 -55 13 -96 14
-96 2z"/>
<path d="M3797 1059 c7 -7 15 -10 18 -7 3 3 -2 9 -12 12 -14 6 -15 5 -6 -5z"/>
<path d="M3986 1038 c-23 -35 -71 -157 -85 -213 -6 -28 -15 -90 -20 -138 -11
-114 -50 -182 -139 -244 -75 -51 -151 -74 -268 -81 l-91 -5 -62 41 -61 41 0
-59 0 -59 56 -43 56 -42 141 18 c78 9 176 19 217 21 41 3 114 10 162 16 68 9
105 9 162 0 77 -13 303 -28 366 -25 96 4 102 7 35 14 -99 11 -212 69 -294 151
-34 34 -60 66 -58 73 2 6 37 23 78 39 199 74 418 99 654 74 17 -2 20 4 20 33
l0 35 -75 17 c-41 10 -119 21 -172 25 l-98 6 0 54 c0 30 -4 63 -10 73 -14 26
-71 43 -103 31 -46 -18 -55 -57 -32 -137 6 -20 2 -22 -77 -28 -46 -4 -128 -16
-183 -27 -54 -10 -102 -15 -106 -11 -12 13 -29 112 -29 170 0 32 9 89 19 127
21 76 21 89 -3 53z m403 -281 c1 -5 -3 -5 -9 -2 -5 3 -10 16 -9 28 0 21 1 21
9 2 5 -11 9 -24 9 -28z m-515 -330 c-3 -9 -21 -21 -40 -27 -18 -6 -33 -17 -31
-23 1 -7 -8 -12 -20 -11 -13 0 -21 -2 -18 -4 7 -7 -44 -32 -66 -32 -10 0 -21
-5 -24 -10 -4 -6 -14 -10 -23 -8 -10 1 -28 -4 -41 -11 -13 -7 -51 -17 -85 -22
-68 -9 -115 -17 -133 -24 -9 -3 -13 7 -13 29 l0 34 91 1 c50 1 112 6 137 12
70 15 182 59 227 90 43 29 49 30 39 6z"/>
<path d="M3827 1006 c-5 -12 0 -16 21 -15 16 0 21 3 12 6 -8 3 -18 10 -21 15
-3 5 -9 3 -12 -6z"/>
<path d="M3666 885 c-6 -17 -76 -21 -76 -5 0 6 -9 10 -20 10 -11 0 -20 -4 -20
-10 0 -5 -9 -10 -21 -10 -26 0 -15 -18 18 -31 16 -6 30 -6 37 0 6 5 32 11 56
13 38 2 46 7 48 26 4 25 -13 30 -22 7z"/>
<path d="M3496 811 c-10 -16 4 -39 27 -45 39 -10 167 6 167 20 0 13 -18 16
-132 18 -14 1 -30 4 -34 9 -10 10 -22 9 -28 -2z"/>
<path d="M3590 733 c-19 -7 -40 -33 -40 -49 0 -42 92 -61 123 -26 46 50 -11
101 -83 75z m76 -34 c8 -13 -3 -25 -31 -33 -26 -7 -49 8 -42 28 7 18 62 22 73
5z"/>
<path d="M3611 607 c-14 -6 -32 -25 -40 -41 -9 -16 -21 -28 -26 -28 -14 1 -19
32 -6 32 6 0 11 7 11 15 0 28 -41 15 -53 -17 -14 -39 23 -73 67 -62 15 3 31
20 41 41 12 25 22 33 37 31 29 -4 35 -28 9 -35 -24 -6 -29 -33 -6 -33 21 0 55
36 55 59 0 36 -51 58 -89 38z"/>
</g>
</svg>
