<?xml version="1.0" standalone="no"?>
<!DOCTYPE svg PUBLIC "-//W3C//DTD SVG 20010904//EN"
 "http://www.w3.org/TR/2001/REC-SVG-20010904/DTD/svg10.dtd">
<svg version="1.0" xmlns="http://www.w3.org/2000/svg"
 width="500.000000pt" height="500.000000pt" viewBox="0 0 500.000000 500.000000"
 preserveAspectRatio="xMidYMid meet">

<g transform="translate(0.000000,500.000000) scale(0.100000,-0.100000)"
fill="#000000" stroke="none">
<path d="M0 4765 l0 -234 25 -25 c14 -14 25 -37 25 -51 0 -30 -26 -85 -40 -85
-6 0 -10 -213 -10 -588 0 -584 0 -588 21 -611 l21 -22 24 22 c15 14 31 20 48
17 32 -6 50 14 42 45 -5 20 -11 23 -36 19 -27 -4 -32 0 -46 33 -9 23 -13 48
-9 64 4 14 9 51 11 81 5 63 16 261 19 335 4 93 4 93 19 72 8 -10 16 -62 21
-130 3 -61 16 -161 27 -222 17 -96 20 -167 25 -575 6 -476 -2 -664 -32 -805
-21 -101 -19 -187 5 -235 11 -22 20 -52 20 -68 0 -31 -49 -134 -67 -139 -6 -2
-16 11 -22 29 -10 31 -11 75 -8 298 2 157 -9 375 -20 394 -12 21 -6 94 10 114
5 6 24 12 43 12 18 0 36 5 39 11 8 12 7 483 -1 504 -4 10 -21 15 -53 15 -41 0
-49 -3 -59 -25 -7 -14 -19 -28 -27 -31 -23 -9 -19 -44 5 -44 31 0 42 -63 36
-203 -9 -206 -12 -227 -35 -243 -23 -16 -28 -53 -10 -71 8 -8 8 -13 0 -17 -8
-5 -11 -354 -11 -1207 l0 -1199 2500 0 2500 0 0 2500 0 2500 -2500 0 -2500 0
0 -235z m1908 203 c-6 -16 -33 -22 -56 -13 -14 5 -14 7 -2 15 22 14 62 12 58
-2z m1730 -31 c2 -10 -13 -34 -36 -57 -38 -38 -42 -40 -104 -40 -99 0 -118 38
-46 90 39 28 48 31 112 28 59 -3 71 -6 74 -21z m699 -53 c16 -43 -42 -88 -86
-64 -26 13 -28 55 -3 69 27 16 82 13 89 -5z m-2243 -30 c22 -21 20 -60 -4 -84
-28 -28 -39 -25 -54 12 -26 61 17 114 58 72z m2540 -66 c9 -12 16 -39 16 -60
0 -73 -84 -124 -129 -79 -29 29 -29 98 0 135 27 35 90 37 113 4z m-3456 0 c18
-18 15 -45 -8 -68 -27 -27 -46 -25 -66 5 -15 23 -15 27 0 50 18 27 54 33 74
13z m218 -23 c7 -27 -9 -55 -31 -55 -22 0 -38 28 -31 55 5 18 13 25 31 25 18
0 26 -7 31 -25z m-833 -26 c14 -23 0 -69 -21 -69 -24 0 -42 19 -42 45 0 42 42
58 63 24z m483 -64 c10 -8 31 -15 47 -15 37 0 36 -27 -3 -63 -16 -16 -30 -35
-30 -42 0 -8 14 -23 30 -35 36 -26 38 -49 5 -84 -44 -48 -125 -21 -125 42 0
19 -11 36 -36 57 -32 27 -36 34 -30 63 16 72 93 114 142 77z m2582 -49 c5 -38
-6 -46 -66 -51 -27 -2 -73 -15 -101 -29 -59 -30 -112 -33 -161 -8 -37 18 -45
39 -20 53 77 42 124 57 153 48 46 -13 108 -10 137 6 35 21 54 14 58 -19z
m-1615 -56 c20 -22 27 -41 27 -70 0 -47 -25 -69 -89 -77 -37 -5 -44 -2 -81 35
-53 52 -51 73 7 117 57 44 92 42 136 -5z m1615 -72 c17 -17 15 -54 -4 -72 -17
-17 -90 -22 -112 -7 -25 15 -8 46 38 69 51 25 61 27 78 10z m-2968 -27 c0 -42
-11 -91 -21 -91 -5 0 -16 11 -25 25 -15 23 -15 27 6 60 26 42 40 45 40 6z
m-189 -12 c13 -13 18 -26 13 -37 -4 -9 -12 -32 -18 -51 -12 -38 -76 -91 -111
-91 -11 0 -29 6 -39 13 -17 12 -17 16 -3 43 8 16 24 38 36 48 12 11 21 28 21
39 0 52 63 74 101 36z m2113 -215 c9 -8 16 -24 16 -34 0 -22 -36 -51 -55 -44
-21 8 -26 47 -9 71 17 27 27 29 48 7z m2374 -472 c4 -42 -14 -64 -47 -60 -35
4 -41 48 -11 78 30 30 54 22 58 -18z m-4489 -361 c17 -11 8 -27 -18 -34 -26
-6 -43 6 -35 26 7 18 31 22 53 8z m3906 -97 c18 -18 16 -33 -7 -47 -35 -22
-66 21 -36 51 16 16 23 15 43 -4z m273 -6 c-3 -7 -11 -13 -18 -13 -7 0 -15 6
-17 13 -3 7 4 12 17 12 13 0 20 -5 18 -12z m-4077 -48 c77 -26 87 -35 90 -80
3 -61 0 -70 -35 -91 -22 -13 -39 -34 -50 -62 -15 -41 -15 -46 1 -78 15 -28 18
-57 16 -174 -3 -169 -8 -199 -35 -225 -20 -18 -20 -21 -5 -38 9 -10 19 -32 23
-48 5 -25 1 -33 -20 -47 -34 -23 -33 -30 10 -53 l35 -19 18 24 c18 24 29 20
26 -9 -1 -8 -3 -22 -3 -31 -2 -14 -19 -16 -113 -18 -72 -1 -116 3 -125 10 -8
6 -14 30 -14 55 0 23 -5 55 -10 69 -7 19 -7 39 1 66 11 36 10 42 -16 79 -27
39 -28 43 -17 88 7 26 11 81 10 122 -2 53 3 90 17 127 15 43 17 57 7 78 -14
31 -15 173 -2 230 5 22 16 45 25 51 18 14 73 5 166 -26z m4051 -221 c50 -13
68 -49 69 -138 2 -121 -26 -140 -196 -141 -95 0 -131 -15 -127 -51 2 -13 3
-45 3 -72 0 -39 4 -50 24 -63 13 -8 28 -29 34 -45 12 -34 24 -36 58 -9 20 16
41 20 99 20 73 0 75 -1 94 -32 14 -23 20 -51 20 -91 0 -51 -4 -62 -28 -87 -25
-25 -34 -27 -78 -23 -44 5 -75 20 -140 68 -10 7 -20 6 -34 -2 -41 -26 -60 3
-60 90 0 79 -28 105 -81 77 -15 -9 -19 -22 -19 -63 0 -29 -3 -62 -6 -74 -7
-24 -38 -31 -49 -12 -4 5 -9 81 -11 167 -4 154 -4 157 -29 175 -14 11 -36 38
-50 61 -43 73 -28 197 27 227 43 24 410 38 480 18z m-2137 -104 c17 -16 25
-35 25 -60 0 -29 -6 -39 -32 -55 -49 -29 -122 -27 -153 5 -16 15 -25 36 -25
55 0 19 9 40 25 55 20 21 34 25 80 25 46 0 60 -4 80 -25z m-1182 -46 c15 -24
1 -49 -28 -49 -21 0 -25 5 -25 28 0 16 3 32 7 36 11 10 35 3 46 -15z m3325
-256 c6 -41 -79 -60 -86 -20 -5 24 26 48 58 44 17 -1 26 -9 28 -24z m-697
-121 c8 -58 -3 -117 -20 -117 -22 0 -34 51 -26 111 5 44 10 55 23 52 12 -2 19
-17 23 -46z m-297 -28 c9 -8 16 -29 16 -45 0 -44 -34 -56 -100 -34 -54 18 -70
37 -53 64 19 29 113 40 137 15z m173 -16 c-3 -8 -6 -5 -6 6 -1 11 2 17 5 13 3
-3 4 -12 1 -19z m-3281 -630 c54 -18 72 -20 96 -10 36 13 43 1 42 -76 0 -75
-10 -81 -89 -53 -47 17 -78 22 -108 18 -29 -4 -64 2 -112 17 -57 18 -71 27
-79 48 -13 38 6 58 58 58 22 0 48 5 56 10 24 15 64 12 136 -12z m482 -214 c42
-29 19 -102 -28 -86 -25 8 -60 45 -60 63 0 36 51 49 88 23z m367 -149 c0 -28
-29 -25 -33 3 -3 19 0 23 15 20 10 -2 18 -12 18 -23z m552 -122 c63 -20 75
-37 71 -96 -3 -37 -6 -42 -30 -45 -76 -9 -168 51 -168 109 0 50 39 60 127 32z
m1511 -127 c3 -12 -1 -17 -10 -14 -7 3 -15 13 -16 22 -3 12 1 17 10 14 7 -3
15 -13 16 -22z m-1311 -48 c-3 -7 -5 -2 -5 12 0 14 2 19 5 13 2 -7 2 -19 0
-25z m393 -8 c39 -39 20 -140 -26 -140 -28 0 -54 38 -54 81 0 75 37 102 80 59z
m1365 -45 c0 -25 -4 -30 -25 -30 -16 0 -26 6 -28 18 -6 30 6 49 30 45 18 -2
23 -9 23 -33z m483 -97 c17 -17 15 -45 -4 -52 -18 -7 -44 10 -44 28 0 13 20
36 30 36 3 0 11 -5 18 -12z m-884 -129 c62 -24 111 -49 116 -60 30 -54 20
-159 -16 -173 -33 -13 -181 28 -275 75 -61 30 -79 57 -79 120 0 68 11 79 84
79 51 0 86 -8 170 -41z m401 -33 c35 -15 43 -34 29 -70 -8 -21 -62 -21 -92 0
-21 15 -31 62 -15 77 10 11 41 8 78 -7z m249 -102 c20 -8 20 -28 1 -44 -13
-11 -13 -14 2 -25 14 -11 18 -29 18 -99 1 -93 -6 -104 -50 -84 -27 12 -32 27
-14 45 8 8 7 16 -2 31 -10 16 -10 23 0 35 10 12 10 20 -1 37 -11 18 -10 23 6
35 19 14 19 16 2 34 -28 31 -5 51 38 35z m120 -24 c22 -8 25 -15 25 -47 -1
-21 -1 -78 0 -127 1 -49 -2 -93 -8 -99 -12 -12 -55 -2 -74 17 -13 14 -14 35
-8 224 1 46 13 52 65 32z m-453 -31 c49 -12 62 -30 54 -76 -8 -53 -17 -59 -67
-39 -94 37 -113 50 -116 79 -7 60 12 65 129 36z m704 -119 c58 -36 74 -139 32
-201 -21 -30 -28 -34 -62 -31 -82 7 -124 47 -132 126 -5 50 -3 59 21 91 23 30
33 35 68 35 23 0 55 -9 73 -20z m-2055 -200 c0 -21 -24 -28 -35 -10 -8 14 3
30 21 30 8 0 14 -9 14 -20z m-430 -86 c0 -14 -6 -24 -14 -24 -16 0 -31 34 -21
49 10 18 35 0 35 -25z m0 -119 c0 -28 -24 -34 -34 -9 -10 26 -7 34 14 34 15 0
20 -7 20 -25z"/>
</g>
</svg>
