<?xml version="1.0" standalone="no"?>
<!DOCTYPE svg PUBLIC "-//W3C//DTD SVG 20010904//EN"
 "http://www.w3.org/TR/2001/REC-SVG-20010904/DTD/svg10.dtd">
<svg version="1.0" xmlns="http://www.w3.org/2000/svg"
 width="895.000000pt" height="895.000000pt" viewBox="0 0 895.000000 895.000000"
 preserveAspectRatio="xMidYMid meet">

<g transform="translate(0.000000,895.000000) scale(0.100000,-0.100000)"
fill="#000000" stroke="none">
<path d="M1115 8944 c-99 -22 -197 -49 -184 -52 30 -6 32 -102 3 -102 -7 0
-14 -12 -16 -27 -5 -40 -25 -39 -32 3 -5 26 -3 41 8 53 30 33 9 58 -24 29 -12
-11 -12 -10 -2 4 9 11 10 18 2 23 -13 8 -36 1 -125 -37 -312 -135 -570 -417
-673 -738 -66 -203 -75 -317 -70 -838 4 -369 6 -413 24 -467 30 -92 127 -179
241 -215 21 -7 54 -28 74 -47 32 -30 36 -39 33 -75 -1 -23 1 -49 6 -58 5 -9 5
-22 0 -31 -7 -10 -11 -6 -16 18 -7 34 -57 73 -93 73 -9 0 -22 5 -29 12 -7 7
-40 22 -75 34 -34 12 -78 28 -97 34 -19 7 -43 17 -52 21 -16 8 -18 3 -18 -50
0 -51 3 -61 20 -66 24 -7 50 -32 50 -47 0 -6 -13 -8 -35 -4 l-35 7 0 -1720 c0
-946 4 -1722 9 -1725 4 -3 23 -1 42 5 70 22 109 27 109 14 0 -8 -18 -15 -42
-19 -24 -3 -60 -8 -80 -12 l-38 -6 0 -698 0 -698 78 23 c42 13 194 58 337 100
143 42 357 105 475 140 118 35 285 84 370 109 85 25 256 75 379 111 123 36
315 92 425 125 308 89 712 208 801 235 44 13 123 35 175 49 52 14 142 39 200
57 149 44 212 61 235 60 11 0 39 -1 63 -2 23 0 49 4 56 11 8 6 31 11 53 10 57
-1 234 36 244 51 5 8 30 14 66 15 32 0 74 6 93 13 19 6 47 11 62 11 14 0 35 8
44 18 17 16 18 16 11 0 -7 -21 -3 -22 24 -7 11 5 17 14 14 20 -4 5 15 9 44 9
30 0 55 6 64 14 8 8 23 15 33 15 11 0 39 5 64 11 25 7 56 14 70 16 58 9 87 13
127 16 26 2 43 8 43 16 0 8 16 12 46 12 26 0 93 12 149 26 l103 25 183 -89
c101 -49 270 -131 374 -182 105 -51 326 -159 493 -241 167 -82 307 -147 312
-144 5 3 13 -3 19 -12 8 -15 13 -16 30 -5 13 7 21 8 21 2 0 -5 6 -10 14 -10 8
0 16 -5 18 -11 2 -7 18 -12 35 -13 17 0 31 -5 30 -11 -1 -5 6 -9 17 -7 10 2
15 -1 12 -6 -7 -11 49 -34 59 -24 3 4 3 -1 -1 -11 -5 -13 -2 -16 10 -11 9 3
16 2 16 -3 0 -9 68 -43 88 -43 5 0 12 -3 14 -7 5 -12 100 -43 130 -43 37 0
176 73 229 120 24 22 52 40 61 40 9 0 20 5 23 10 4 6 15 8 26 5 12 -4 19 -2
19 7 0 12 29 34 82 63 10 5 18 15 18 22 0 7 8 13 18 13 10 0 56 20 102 45 47
25 104 55 128 66 23 12 42 25 42 30 0 5 7 9 15 9 18 0 20 37 3 42 -7 3 9 15
34 28 45 22 48 26 58 79 6 31 15 76 21 101 9 41 27 129 49 233 11 57 -4 175
-25 191 -17 12 -17 21 -5 127 8 63 14 155 15 204 1 84 3 94 32 135 17 25 52
59 77 75 35 23 53 45 76 93 17 34 30 73 30 87 0 24 -28 95 -42 105 -37 28 -39
182 -4 261 33 75 49 89 101 89 37 0 46 -5 69 -34 18 -24 56 -49 124 -81 89
-43 102 -46 155 -42 109 10 166 -16 264 -115 21 -22 46 -38 59 -38 13 0 31 -8
41 -18 10 -11 26 -22 36 -25 18 -7 23 -32 8 -41 -5 -3 -7 -15 -4 -26 4 -16 2
-19 -11 -14 -10 4 -25 -1 -36 -11 -32 -29 -20 -145 16 -145 9 0 34 16 57 35
47 40 62 43 70 14 3 -12 10 -18 16 -14 20 11 11 34 -14 41 -21 5 -23 9 -14 21
7 8 13 26 14 40 0 13 9 29 19 35 10 6 25 19 34 29 9 10 22 19 29 19 11 0 13
374 13 1948 0 2112 2 2015 -55 2217 -34 122 -124 299 -205 403 -187 242 -426
391 -750 469 -71 17 -241 18 -3440 19 -1851 1 -3374 0 -3385 -2z m2611 -27 c8
-8 -31 -44 -57 -52 -13 -4 -35 -16 -49 -27 -14 -10 -50 -21 -80 -25 -30 -3
-67 -14 -82 -24 -14 -11 -30 -19 -34 -19 -4 0 -15 -6 -23 -14 -14 -12 -91 -56
-161 -92 -37 -19 -209 -42 -326 -43 -93 -1 -170 8 -354 38 -36 6 -110 18 -165
26 -55 8 -120 19 -145 25 -25 6 -87 15 -139 20 -51 5 -107 14 -125 19 -17 6
-51 13 -76 16 -24 4 -48 9 -52 11 -4 3 -40 7 -80 9 -82 5 -136 13 -158 25 -15
8 -60 83 -60 100 0 5 10 11 23 13 33 6 2137 1 2143 -6z m2952 3 c33 0 33 -1
30 -37 -2 -31 1 -38 16 -41 15 -3 18 0 14 16 -4 13 0 23 9 26 7 3 13 14 11 23
-3 17 25 18 477 21 264 1 495 0 513 -3 18 -3 32 -12 32 -20 0 -20 51 -154 147
-384 72 -171 84 -207 74 -223 -10 -16 -7 -25 19 -56 34 -41 43 -112 15 -112
-23 0 -18 -18 6 -22 26 -4 57 -43 61 -78 3 -23 0 -25 -37 -23 -22 0 -62 6 -89
12 -58 13 -78 4 -82 -37 -4 -36 9 -47 74 -55 35 -4 45 -2 57 15 14 21 14 21
26 -5 8 -18 20 -27 36 -27 42 0 80 -27 97 -69 8 -22 27 -48 41 -57 14 -9 28
-28 32 -42 3 -15 15 -41 26 -59 17 -30 17 -33 3 -39 -9 -4 -79 3 -154 15 -75
11 -190 28 -256 38 -65 9 -125 23 -132 31 -20 19 -17 76 6 127 27 59 41 282
19 289 -14 5 -100 16 -489 61 -124 15 -349 42 -500 61 -274 33 -632 74 -656
74 -22 0 -44 30 -44 59 0 48 43 70 166 86 l52 7 6 71 c3 40 8 133 12 207 3 74
7 141 9 148 4 9 40 11 162 7 87 -2 173 -5 191 -5z m-5643 -151 c7 -53 30 -75
47 -46 14 27 71 30 237 16 190 -16 225 -15 297 12 36 14 59 18 63 11 3 -5 24
-11 46 -13 22 -2 47 -6 55 -10 105 -47 145 -61 202 -68 36 -5 87 -19 113 -30
25 -11 83 -27 128 -36 86 -16 228 -46 337 -72 35 -8 76 -17 90 -19 14 -2 81
-15 150 -29 149 -30 362 -66 560 -95 80 -12 174 -26 210 -31 36 -5 117 -9 180
-8 63 1 131 -3 150 -9 32 -9 33 -10 8 -11 -15 -1 -30 -5 -33 -11 -3 -5 -16
-10 -27 -10 -70 0 -152 -25 -211 -63 -56 -36 -101 -52 -177 -62 -130 -18 -140
-18 -210 4 -66 21 -73 22 -96 6 -13 -9 -29 -13 -35 -10 -5 4 -16 1 -24 -5 -8
-7 -41 -13 -72 -14 -38 -1 -62 -6 -69 -16 -10 -12 -17 -12 -38 -2 -32 14 -39
15 -31 2 8 -14 -39 -42 -59 -34 -10 4 -22 16 -27 28 -7 15 -8 10 -3 -19 l6
-39 -21 24 c-21 26 -25 21 -15 -17 3 -12 13 -24 23 -26 11 -3 9 -5 -6 -6 -16
-1 -27 9 -39 34 -9 19 -14 41 -11 48 3 7 -1 21 -9 32 -17 23 -18 39 -3 29 7
-4 10 -1 7 7 -3 8 -14 15 -26 17 -13 2 -22 11 -22 21 0 14 -13 21 -57 30 -39
7 -59 8 -61 1 -7 -19 -31 -10 -56 23 -24 29 -26 30 -26 10 0 -24 -10 -29 -25
-14 -9 8 -56 17 -133 24 -17 2 -43 14 -56 26 -19 18 -30 21 -65 15 -50 -8 -84
-39 -77 -69 3 -11 1 -26 -3 -34 -7 -11 -10 -9 -16 8 -5 18 -9 20 -21 10 -10
-8 -11 -15 -3 -25 7 -9 7 -19 0 -31 -5 -11 -7 -38 -4 -60 3 -23 1 -55 -5 -72
-9 -26 -8 -32 11 -44 30 -20 13 -49 -34 -58 -30 -6 -277 -36 -369 -45 -71 -6
-226 -23 -277 -30 -59 -8 -58 -9 -72 99 l-7 52 -17 -32 c-15 -29 -23 -33 -57
-33 -33 0 -41 4 -54 31 -9 17 -13 42 -10 54 6 26 -24 44 -37 23 -6 -9 -10 -8
-15 6 -5 12 -2 23 9 31 10 7 17 22 17 33 0 12 5 33 12 47 7 16 8 29 2 33 -5 4
-9 22 -10 39 -1 18 -13 50 -28 71 -14 21 -26 46 -26 57 0 10 -8 42 -17 72 -12
38 -22 53 -35 53 -13 0 -18 8 -18 25 0 14 -7 42 -15 62 -24 56 -38 175 -23
184 19 12 26 2 33 -52z m32 -441 c-3 -8 -6 -5 -6 6 -1 11 2 17 5 13 3 -3 4
-12 1 -19z m61 -104 c17 -12 21 -21 16 -42 -9 -37 -13 -42 -28 -36 -7 3 -13
17 -13 32 0 15 -3 35 -7 45 -10 21 3 22 32 1z m5130 -6 c7 -7 12 -19 12 -28 0
-9 11 -27 24 -39 20 -19 38 -23 98 -26 40 -1 87 -8 103 -15 35 -15 59 -18 142
-20 74 -2 86 -12 72 -63 -11 -43 -29 -46 -114 -24 -27 8 -75 15 -105 16 -77 2
-130 20 -143 48 -12 27 -23 29 -36 6 -12 -23 -139 -54 -164 -41 -16 8 -18 17
-12 71 8 69 17 87 54 110 31 20 53 21 69 5z m-3783 -158 c10 -7 116 -32 300
-70 55 -12 104 -25 110 -29 12 -10 -24 0 460 -122 66 -17 165 -43 220 -59 55
-16 213 -56 350 -90 792 -194 1871 -463 2153 -536 56 -15 102 -29 102 -33 0
-19 -68 -35 -347 -80 -169 -28 -333 -55 -363 -61 -30 -6 -262 -44 -515 -85
-1816 -294 -1748 -283 -2340 -376 -377 -59 -784 -119 -805 -119 -12 1 -11 3 3
11 9 5 23 7 30 3 6 -4 4 2 -7 14 -26 30 -53 24 454 107 184 30 355 59 380 65
25 5 79 14 120 19 301 42 1224 201 1235 213 3 3 -23 12 -58 21 -34 8 -109 30
-167 47 -58 18 -179 54 -270 81 -91 27 -178 54 -195 59 -16 6 -41 13 -55 15
-14 2 -61 15 -105 30 -44 15 -118 37 -165 50 -124 36 -192 56 -218 66 -13 5
-31 9 -41 9 -10 0 -40 9 -67 19 -27 11 -74 26 -104 34 -83 23 -336 97 -415
123 -38 12 -88 25 -110 29 -22 4 -44 11 -50 15 -5 4 -21 10 -35 13 -14 3 -50
13 -80 22 -30 9 -73 21 -95 26 -38 9 -68 20 -107 40 -10 5 -24 9 -32 9 -7 0
-27 7 -42 15 -16 8 -37 15 -46 15 -9 0 -19 4 -22 8 -3 5 -19 7 -36 4 -19 -3
-37 1 -48 11 -9 8 -26 17 -36 18 -19 4 -19 5 -1 22 10 11 26 16 38 13 11 -2
35 4 55 14 19 11 58 24 86 29 109 21 184 33 256 40 41 5 93 13 115 19 175 46
275 55 305 27 9 -8 28 -15 41 -15 14 0 29 -4 35 -9 12 -12 150 -42 229 -50 33
-4 80 -16 105 -28 25 -12 71 -29 103 -38 74 -20 141 -38 252 -70 50 -14 115
-32 145 -40 30 -7 82 -21 115 -30 43 -12 79 -15 127 -11 58 5 67 4 72 -11 10
-29 42 -41 306 -110 52 -13 111 -28 130 -33 19 -4 58 -15 85 -23 234 -69 305
-84 305 -67 0 9 14 11 49 8 38 -4 56 -12 81 -36 17 -18 44 -35 58 -38 15 -3
59 -15 97 -26 126 -35 168 -45 345 -88 196 -47 169 -47 475 5 198 34 262 39
326 26 73 -15 136 -16 242 -3 130 16 134 25 27 52 -71 17 -107 21 -154 16 -33
-4 -87 -9 -119 -13 -40 -4 -76 -1 -115 10 -31 9 -169 44 -307 77 -824 201
-1440 355 -1625 405 -74 20 -330 85 -568 145 -239 60 -437 111 -440 115 -4 4
1 11 11 16 46 26 -16 52 -89 37 -27 -6 -63 -10 -80 -9 -29 1 -131 28 -184 49
l-25 9 23 7 c15 5 21 13 18 23 -9 23 31 50 68 45 17 -3 36 -8 41 -12z m-205
-60 c0 -5 -9 -10 -20 -10 -11 0 -20 5 -20 10 0 6 9 10 20 10 11 0 20 -4 20
-10z m4972 -260 c-12 -16 -22 -33 -22 -39 0 -14 -29 -21 -36 -9 -4 6 1 17 11
24 10 7 15 20 12 29 -4 9 -1 15 9 15 8 0 17 7 21 16 4 11 9 12 16 5 8 -8 4
-20 -11 -41z m-5869 10 c3 -11 1 -18 -4 -14 -5 3 -9 12 -9 20 0 20 7 17 13 -6z
m117 -300 c12 -8 11 -10 -7 -10 -13 0 -23 5 -23 10 0 13 11 13 30 0z m-32 -34
c3 -14 0 -17 -12 -13 -34 13 -13 -4 52 -42 37 -22 80 -43 95 -47 16 -3 46 -27
69 -55 24 -29 90 -81 165 -130 115 -76 128 -87 148 -133 32 -71 41 -118 22
-110 -10 3 -20 -4 -29 -22 -19 -39 -29 -39 -68 1 -143 146 -175 173 -208 180
-33 6 -87 42 -90 59 -2 9 -14 28 -28 41 -13 13 -24 28 -24 33 0 4 -18 18 -40
31 -30 16 -40 29 -40 47 0 15 -6 24 -16 24 -8 0 -12 5 -9 10 3 6 2 10 -4 10
-13 0 -51 81 -51 108 0 25 4 28 37 27 19 0 29 -6 31 -19z m5670 -662 c12 -8
22 -22 22 -30 0 -17 1 -17 -39 -3 -40 14 -80 -1 -104 -39 -16 -26 -16 -26 -17
-4 0 28 25 78 42 85 27 11 74 6 96 -9z m453 -67 c61 -41 43 -114 -21 -90 -23
9 -32 8 -40 -3 -9 -10 -4 -16 23 -27 19 -8 44 -25 56 -38 25 -27 31 -22 55 44
45 121 173 108 221 -21 25 -66 32 -71 50 -30 36 87 128 104 192 35 68 -75 85
-246 27 -283 -27 -18 -129 -34 -168 -27 -27 6 -42 28 -70 108 -7 18 -9 18 -23
-10 -30 -59 -63 -85 -109 -85 -50 0 -86 26 -115 81 l-19 39 -31 -35 c-26 -29
-38 -35 -72 -35 -34 0 -46 6 -78 40 -44 46 -55 95 -45 202 8 85 25 120 68 141
44 22 59 21 99 -6z m-228 -65 c-16 -30 -25 -62 -25 -89 1 -41 0 -43 -29 -43
-27 0 -30 2 -23 23 5 12 7 43 6 70 l-1 47 33 0 c28 0 35 5 40 25 4 14 11 23
15 20 5 -3 -2 -26 -16 -53z m-1043 -111 c19 -5 71 -17 115 -26 74 -16 303 -71
600 -144 134 -33 454 -115 500 -129 28 -8 27 -9 -25 -16 -279 -36 -637 -89
-650 -96 -8 -4 -49 -11 -90 -14 -152 -13 -173 -18 -197 -42 -21 -21 -23 -31
-23 -129 0 -96 -2 -105 -19 -105 -31 0 -774 200 -768 207 2 1 35 -1 75 -5 81
-9 109 -1 77 21 -17 14 -15 15 25 14 58 0 149 9 230 23 36 6 83 9 105 6 l40
-5 -45 18 c-25 9 -44 23 -43 29 4 16 -24 29 -82 37 -27 4 -59 13 -70 20 -11 7
-49 16 -83 20 -37 4 -65 13 -70 21 -5 9 -33 17 -74 21 -78 7 -99 16 -80 35 8
8 50 12 133 13 104 0 122 -2 133 -17 10 -14 28 -18 77 -18 38 0 76 -6 93 -15
16 -9 32 -13 35 -10 4 5 16 164 20 273 1 24 9 26 61 13z m1955 -21 c3 -5 -1
-10 -9 -10 -9 0 -16 5 -16 10 0 6 4 10 9 10 6 0 13 -4 16 -10z m-1156 -13 c19
-1 36 -7 38 -14 7 -19 -43 -24 -76 -7 -33 17 -42 35 -13 28 9 -2 32 -6 51 -7z
m1171 -31 c0 -21 -16 -36 -39 -36 -5 0 -8 14 -9 30 -1 25 3 30 24 30 19 0 24
-5 24 -24z m-2565 -75 c-12 -10 -405 -54 -413 -47 -9 10 20 14 188 31 91 9
174 18 185 19 41 7 49 6 40 -3z m2545 -347 c0 -8 7 -14 15 -14 8 0 15 -6 15
-12 0 -18 -122 -186 -148 -203 -11 -9 -31 -33 -43 -55 -13 -22 -26 -40 -31
-40 -4 0 -8 -8 -8 -17 0 -25 -30 -53 -57 -53 -30 0 -29 -13 2 -30 18 -10 25
-22 25 -45 0 -17 -4 -35 -9 -41 -15 -14 -32 -120 -35 -219 -3 -62 -10 -107
-25 -143 -11 -29 -20 -56 -20 -60 5 -33 -3 -60 -21 -65 -14 -3 -20 -14 -20
-31 0 -28 -23 -36 -37 -13 -15 24 -71 57 -87 51 -19 -7 -20 -16 -4 -32 17 -17
3 -26 -27 -18 -15 4 -25 13 -25 25 0 10 -9 21 -19 24 -29 7 -33 -3 -15 -31 12
-18 15 -39 12 -74 -3 -26 -7 -50 -9 -53 -3 -2 -24 -7 -48 -11 -36 -6 -43 -5
-36 7 5 8 0 7 -10 -3 -16 -15 -17 -23 -8 -52 8 -27 8 -38 -2 -46 -9 -7 -16 -6
-25 5 -7 8 -18 15 -25 15 -7 0 -24 10 -39 21 -38 30 -40 20 -6 -35 17 -25 30
-51 30 -56 0 -6 4 -10 9 -10 13 0 23 -62 11 -74 -7 -7 -16 -3 -27 10 -10 10
-53 58 -95 105 -43 48 -78 93 -78 102 0 8 20 33 45 54 91 78 146 91 193 48 25
-23 28 -24 40 -8 17 23 16 24 -19 63 -28 30 -31 39 -27 79 7 73 64 175 141
251 37 37 67 74 67 81 0 21 99 219 140 279 46 68 166 187 240 238 43 30 56 45
58 68 5 50 10 58 27 44 8 -7 15 -19 15 -26z m-2423 10 c-3 -3 -12 -4 -19 -1
-8 3 -5 6 6 6 11 1 17 -2 13 -5z m994 -47 c-1 -12 -15 -9 -19 4 -3 6 1 10 8 8
6 -3 11 -8 11 -12z m-2115 -253 c9 -34 0 -732 -9 -741 -19 -18 -26 27 -31 197
-4 102 -9 262 -12 357 -6 175 0 213 31 213 8 0 18 -12 21 -26z m-4238 -3 c3
-8 -1 -12 -9 -9 -7 2 -15 10 -17 17 -3 8 1 12 9 9 7 -2 15 -10 17 -17z m34
-196 c9 -21 9 -29 -5 -42 -20 -20 -23 -18 -31 30 -6 30 -4 37 9 37 8 0 21 -11
27 -25z m4980 -87 c-4 -125 -9 -137 -10 -30 -1 56 1 102 6 102 4 0 6 -33 4
-72z m-2572 -68 c0 -5 -6 -10 -14 -10 -8 0 -18 5 -21 10 -3 6 3 10 14 10 12 0
21 -4 21 -10z m-93 -16 c-3 -3 -12 -4 -19 -1 -8 3 -5 6 6 6 11 1 17 -2 13 -5z
m3360 -49 c116 -35 150 -42 166 -34 25 14 111 7 132 -11 8 -7 15 -25 15 -40 0
-16 11 -52 25 -82 16 -34 25 -71 25 -104 l0 -52 48 -7 c49 -7 92 -25 249 -102
l92 -45 78 10 c88 13 129 9 225 -19 62 -18 71 -24 110 -76 60 -82 73 -110 56
-126 -15 -15 -115 -20 -124 -6 -7 13 -64 11 -64 -2 0 -7 -21 -9 -61 -5 -46 3
-62 1 -66 -10 -3 -8 -10 -14 -17 -14 -19 0 -46 -38 -46 -65 0 -16 -6 -25 -15
-25 -10 0 -15 10 -15 28 0 21 -2 24 -10 12 -8 -13 -14 -9 -7 5 1 3 -13 15 -32
26 -31 19 -35 19 -43 4 -7 -11 -13 -13 -22 -6 -9 7 -12 3 -11 -16 0 -14 -6
-28 -12 -30 -9 -3 -13 8 -13 37 0 38 -2 40 -20 30 -12 -6 -20 -21 -20 -36 0
-17 -8 -27 -25 -34 -24 -9 -47 -47 -39 -61 2 -4 -6 -9 -17 -12 -15 -4 -19 -2
-15 8 3 9 0 12 -10 8 -7 -3 -14 0 -14 6 0 6 -9 11 -20 11 -11 0 -20 6 -20 14
0 8 -9 18 -20 21 -11 3 -20 11 -20 16 0 5 -9 9 -20 9 -11 0 -23 6 -26 14 -3 8
-11 13 -18 10 -7 -3 -21 4 -31 16 -10 11 -24 20 -31 20 -7 0 -14 4 -16 8 -6
15 -140 112 -148 107 -4 -2 -1 -28 6 -57 8 -29 14 -66 14 -83 0 -35 20 -113
35 -136 6 -8 28 -26 50 -39 22 -14 75 -53 118 -87 43 -35 80 -63 82 -63 21 0
135 -89 154 -121 14 -21 33 -41 43 -45 23 -7 23 -19 -2 -54 -34 -48 -95 -49
-152 -2 -20 16 -94 26 -102 14 -3 -5 -18 -7 -33 -5 -20 3 -24 2 -14 -5 9 -7 4
-11 -20 -15 -19 -2 -40 0 -46 5 -8 6 -13 6 -13 1 0 -5 6 -15 13 -22 10 -10 7
-10 -15 0 -16 7 -28 16 -28 21 0 13 -27 39 -37 36 -4 -2 -19 8 -32 21 -19 19
-21 25 -10 32 12 7 12 9 0 9 -7 0 -11 6 -8 13 2 7 -4 23 -14 36 -11 13 -19 20
-19 16 0 -3 -13 3 -29 14 -60 43 -70 16 -14 -41 38 -39 59 -49 49 -23 -3 9 0
15 9 15 11 0 12 -6 6 -22 -5 -13 -12 -120 -16 -238 -4 -118 -10 -247 -14 -287
l-7 -72 42 -20 c23 -12 46 -21 52 -21 18 0 106 -44 117 -58 8 -9 17 -10 40 -1
25 10 38 8 75 -9 78 -35 144 -60 174 -67 16 -3 41 -15 54 -26 14 -10 32 -19
42 -19 9 0 19 -3 22 -6 9 -8 -3 -44 -13 -38 -5 3 -13 -6 -18 -19 -10 -27 -53
-46 -88 -41 -13 2 -23 -1 -23 -6 0 -5 -10 -10 -22 -10 -50 0 -104 -8 -129 -18
-15 -6 -36 -8 -47 -5 -11 2 -23 0 -26 -6 -4 -6 -16 -11 -27 -11 -10 0 -19 -4
-19 -10 0 -5 -7 -10 -15 -10 -30 0 -75 -29 -69 -45 4 -8 1 -15 -6 -15 -6 0 -8
-4 -5 -10 9 -14 -2 -12 -41 6 -19 9 -31 20 -28 25 3 5 -3 6 -12 2 -13 -5 -15
-3 -9 8 5 8 0 6 -12 -4 -20 -18 -24 -17 -129 27 -117 48 -521 222 -643 277
l-74 33 6 356 c13 738 31 1420 37 1420 4 0 6 -21 4 -47 -1 -27 -5 -203 -9
-393 l-6 -345 233 -87 c302 -112 285 -108 292 -66 3 18 8 132 11 253 3 121 8
263 10 315 3 52 6 191 7 307 2 117 7 213 11 213 4 0 73 -20 154 -45z m-3662
-5 c3 -5 -3 -10 -14 -10 -12 0 -21 5 -21 10 0 6 6 10 14 10 8 0 18 -4 21 -10z
m2071 -620 c7 -394 7 -630 1 -637 -5 -7 -19 -13 -31 -13 -12 0 -54 -9 -94 -20
-117 -33 -108 -43 -115 132 -11 251 -10 301 9 294 9 -3 22 -6 30 -6 11 0 14
-24 14 -125 0 -139 3 -146 63 -128 l32 9 -1 104 c0 58 -3 225 -6 373 -4 161
-3 267 3 267 5 0 8 -8 7 -17 -1 -10 0 -35 0 -56 2 -31 5 -38 20 -35 9 2 18 9
18 16 1 6 2 15 4 20 7 26 -4 131 -16 150 -13 20 -13 22 2 22 14 0 16 7 10 48
-3 26 -11 49 -17 51 -7 2 -6 7 2 12 12 8 11 11 -1 19 -13 8 -12 10 3 10 12 0
17 8 17 30 0 33 -22 49 -43 32 -11 -9 -77 -13 -77 -5 0 2 10 8 23 13 20 8 20
9 2 10 -17 0 -17 2 -5 10 13 8 12 10 -4 10 -30 0 -15 8 45 24 104 29 92 99
105 -614z m891 553 c-2 -16 -4 -5 -4 22 0 28 2 40 4 28 2 -13 2 -35 0 -50z
m-3057 47 c0 -5 -7 -10 -16 -10 -8 0 -12 5 -9 10 3 6 10 10 16 10 5 0 9 -4 9
-10z m1943 -42 c3 -22 4 -22 13 -3 13 28 34 30 33 3 0 -13 -3 -17 -6 -10 -9
23 -41 -37 -37 -67 2 -14 5 -65 7 -113 3 -80 2 -87 -17 -92 -11 -3 -21 -4 -23
-3 -2 3 -5 219 -3 262 2 30 2 30 11 5 8 -23 8 -22 5 8 -3 36 10 44 17 10z
m-2255 -29 c-2 -6 -7 -10 -11 -10 -4 1 -14 1 -22 1 -8 0 -15 5 -15 10 0 6 12
10 26 10 14 0 24 -5 22 -11z m887 0 c15 -7 11 -7 -14 -3 -25 5 -32 3 -26 -6 5
-9 4 -11 -3 -6 -34 21 3 34 43 15z m-239 -43 c28 -21 10 -34 -77 -56 -133 -32
-136 -33 -144 -3 -3 14 -4 27 -3 29 5 4 168 42 189 43 8 1 24 -5 35 -13z
m1731 -8 c-3 -8 -6 -5 -6 6 -1 11 2 17 5 13 3 -3 4 -12 1 -19z m894 -7 c36
-36 40 -90 8 -122 -18 -18 -23 -19 -42 -6 -45 29 -60 94 -31 135 20 29 30 28
65 -7z m-889 -36 c3 -14 1 -28 -3 -31 -5 -3 -9 9 -9 25 0 38 6 40 12 6z
m-2812 5 c0 -5 -7 -10 -16 -10 -8 0 -12 5 -9 10 3 6 10 10 16 10 5 0 9 -4 9
-10z m5698 -47 c-3 -30 -25 -42 -34 -19 -9 22 2 46 21 46 12 0 15 -8 13 -27z
m-5023 4 c10 -8 15 -19 11 -25 -6 -10 -91 -32 -124 -32 -15 0 -15 2 -2 10 8 5
10 10 4 10 -7 0 -15 7 -18 16 -3 8 -2 12 4 9 6 -3 10 -2 10 4 0 20 89 26 115
8z m2139 -75 c2 -34 -1 -62 -5 -62 -5 0 -9 30 -9 67 0 82 9 78 14 -5z m2886
-2 c0 -5 -4 -10 -9 -10 -6 0 -13 5 -16 10 -3 6 1 10 9 10 9 0 16 -4 16 -10z
m-2002 -31 c26 -28 35 -75 19 -108 -27 -57 -86 -25 -94 52 -8 72 32 103 75 56z
m-4618 -25 c0 -19 -5 -25 -17 -22 -22 4 -30 38 -12 49 19 11 29 2 29 -27z
m-80 -2 c0 -37 -54 -59 -66 -27 -11 27 4 45 36 45 22 0 30 -5 30 -18z m-115
-30 c0 -31 -19 -28 -23 4 -3 18 0 25 10 22 7 -3 13 -14 13 -26z m183 -64 c-4
-26 -30 -43 -52 -35 -21 8 -21 53 1 66 25 13 55 -5 51 -31z m-113 -8 c8 -27
-11 -50 -41 -50 -27 0 -42 34 -24 55 18 22 57 19 65 -5z m3707 -12 c-9 -9 -12
-7 -12 12 0 19 3 21 12 12 9 -9 9 -15 0 -24z m3378 24 c0 -14 -11 -21 -26 -15
-8 3 -11 9 -8 14 7 11 34 12 34 1z m-2392 -130 c8 -2 12 8 12 32 0 25 5 39 16
43 26 10 45 -26 42 -77 -3 -40 -6 -45 -30 -48 -47 -6 -90 66 -71 120 6 19 8
16 13 -21 3 -25 11 -46 18 -49z m-4546 42 c5 -41 -2 -49 -28 -30 -16 12 -16
18 -6 40 16 36 29 33 34 -10z m-84 -11 c3 -20 -1 -23 -32 -23 -38 0 -47 15
-24 38 20 20 53 10 56 -15z m1206 -8 c-4 -8 -8 -15 -10 -15 -2 0 -4 7 -4 15 0
8 4 15 10 15 5 0 7 -7 4 -15z m2446 -105 c0 -5 -4 -10 -10 -10 -5 0 -10 5 -10
10 0 6 5 10 10 10 6 0 10 -4 10 -10z m3200 -30 c0 -5 -4 -10 -10 -10 -5 0 -10
5 -10 10 0 6 5 10 10 10 6 0 10 -4 10 -10z m-3200 -10 c0 -5 -2 -10 -4 -10 -3
0 -8 5 -11 10 -3 6 -1 10 4 10 6 0 11 -4 11 -10z m9 -54 c8 -10 8 -16 -3 -25
-11 -9 -15 -6 -18 14 -6 28 3 32 21 11z m-4 -55 c3 -5 1 -12 -5 -16 -5 -3 -10
1 -10 9 0 18 6 21 15 7z m2343 -144 c2 -12 -1 -15 -12 -11 -19 7 -22 38 -3 32
6 -3 13 -12 15 -21z m119 17 c-3 -3 -12 -4 -19 -1 -8 3 -5 6 6 6 11 1 17 -2
13 -5z m131 -23 c3 -8 -1 -12 -9 -9 -7 2 -15 10 -17 17 -3 8 1 12 9 9 7 -2 15
-10 17 -17z m1606 -16 c4 -16 13 -25 26 -25 13 0 20 -7 20 -20 0 -11 7 -20 15
-20 8 0 15 -4 15 -10 0 -5 12 -10 26 -10 26 0 53 -24 54 -47 0 -7 -7 -10 -15
-7 -23 9 -48 -15 -34 -33 20 -23 2 -27 -33 -6 -19 11 -45 23 -58 26 -29 7
-130 71 -142 89 -12 20 -10 38 5 38 8 0 20 11 27 25 11 20 21 25 51 25 31 0
38 -4 43 -25z m-1514 5 c0 -5 -2 -10 -4 -10 -3 0 -8 5 -11 10 -3 6 -1 10 4 10
6 0 11 -4 11 -10z m185 -1 c10 -15 -1 -23 -20 -15 -9 3 -13 10 -10 16 8 13 22
13 30 -1z m-389 -14 c8 -20 -13 -45 -32 -38 -14 5 -19 34 -7 46 11 12 33 7 39
-8z m164 5 c0 -5 -4 -10 -10 -10 -5 0 -10 5 -10 10 0 6 5 10 10 10 6 0 10 -4
10 -10z m300 -5 c0 -8 -6 -15 -14 -15 -8 0 -16 7 -20 15 -4 10 1 15 14 15 11
0 20 -7 20 -15z m-365 -15 c3 -5 -1 -10 -9 -10 -9 0 -16 5 -16 10 0 6 4 10 9
10 6 0 13 -4 16 -10z m-47 -27 c-2 -22 -8 -27 -23 -25 -27 5 -28 7 -20 31 4
12 15 21 26 21 16 0 20 -6 17 -27z m112 1 c0 -9 -7 -14 -17 -12 -25 5 -28 28
-4 28 12 0 21 -6 21 -16z m45 6 c3 -5 1 -10 -4 -10 -6 0 -11 5 -11 10 0 6 2
10 4 10 3 0 8 -4 11 -10z m185 0 c0 -5 -4 -10 -10 -10 -5 0 -10 5 -10 10 0 6
5 10 10 10 6 0 10 -4 10 -10z m-290 -20 c0 -5 -4 -10 -10 -10 -5 0 -10 5 -10
10 0 6 5 10 10 10 6 0 10 -4 10 -10z m-5890 -25 c0 -19 -20 -29 -32 -17 -15
15 -2 43 17 36 8 -3 15 -12 15 -19z m-20 -89 c0 -28 -24 -51 -45 -42 -15 5
-21 47 -8 59 3 4 17 7 30 7 18 0 23 -6 23 -24z m6080 -132 c0 -10 -7 -14 -22
-12 -32 5 -35 28 -4 28 17 0 26 -5 26 -16z m-70 -275 c0 -5 -7 -9 -15 -9 -15
0 -20 12 -9 23 8 8 24 -1 24 -14z m105 1 c-3 -5 -10 -10 -16 -10 -5 0 -9 5 -9
10 0 6 7 10 16 10 8 0 12 -4 9 -10z m-45 -15 c0 -8 -9 -15 -20 -15 -11 0 -20
7 -20 15 0 8 9 15 20 15 11 0 20 -7 20 -15z m-1758 -70 c2 -25 2 -45 1 -45 -8
0 -29 67 -25 78 9 25 20 10 24 -33z m-3689 -351 c32 -328 63 -741 56 -749 -6
-5 -9 -2 -9 8 0 16 -9 115 -30 322 -6 55 -17 172 -25 260 -9 88 -18 180 -21
204 -4 33 -2 42 8 39 8 -3 16 -33 21 -84z m-82 -111 c13 -15 12 -15 -9 -2 -26
16 -50 6 -69 -31 -14 -29 -7 -47 26 -65 16 -9 20 -14 10 -15 -25 0 -59 35 -59
61 0 29 8 42 35 57 28 16 50 15 66 -5z m33 -39 c4 -9 5 -17 4 -18 -2 -1 -16
-12 -32 -26 l-29 -25 16 25 c9 13 17 32 17 42 0 23 16 23 24 2z m-360 -49 c-4
-8 -10 -15 -15 -15 -4 0 -6 7 -3 15 4 8 10 15 15 15 4 0 6 -7 3 -15z m75 -59
l-22 -21 17 25 c9 13 17 34 17 45 1 16 3 16 6 -4 3 -16 -3 -31 -18 -45z m-76
-15 c-6 -8 -31 34 -26 42 3 5 11 -2 17 -15 7 -12 11 -25 9 -27z m359 -58 c27
-32 28 -60 2 -88 -23 -25 -66 -33 -92 -17 -7 5 -15 25 -18 44 -5 28 -2 39 17
57 28 26 70 27 91 4z m2393 -333 c-3 -5 -12 -10 -18 -10 -7 0 -6 4 3 10 19 12
23 12 15 0z m-122 -7 c-7 -2 -19 -2 -25 0 -7 3 -2 5 12 5 14 0 19 -2 13 -5z
m-3753 -347 c0 -3 -4 -8 -10 -11 -5 -3 -10 -1 -10 4 0 6 5 11 10 11 6 0 10 -2
10 -4z m60 -41 c0 -18 -7 -28 -26 -36 -15 -5 -29 -7 -32 -4 -3 3 0 5 7 5 7 0
11 5 9 12 -4 12 21 46 35 47 4 1 7 -10 7 -24z m547 19 c-3 -3 -12 -4 -19 -1
-8 3 -5 6 6 6 11 1 17 -2 13 -5z m-52 -14 c-11 -5 -29 -8 -40 -8 -16 0 -15 2
5 8 34 11 60 11 35 0z m-110 -30 c-27 -10 -57 -18 -65 -18 -8 0 8 8 35 18 28
10 57 18 65 18 8 0 -7 -8 -35 -18z m-158 -46 c-3 -3 -12 -4 -19 -1 -8 3 -5 6
6 6 11 1 17 -2 13 -5z m-62 -14 c-3 -5 -12 -10 -18 -10 -7 0 -6 4 3 10 19 12
23 12 15 0z m-70 -19 c-14 -12 -115 -44 -121 -38 -3 3 21 14 53 25 68 23 81
25 68 13z"/>
<path d="M6798 8898 c-30 -10 -38 -28 -14 -28 8 0 21 -9 30 -21 10 -15 19 -19
31 -12 15 9 15 11 1 22 -20 17 -20 31 -1 31 8 0 15 5 15 10 0 12 -26 12 -62
-2z"/>
<path d="M6945 8901 c-10 -17 2 -28 27 -26 21 2 40 25 20 25 -6 0 -17 3 -25 6
-8 3 -18 1 -22 -5z"/>
<path d="M6454 8888 c-10 -15 7 -28 36 -28 31 0 43 10 32 25 -8 12 -61 14 -68
3z"/>
<path d="M6600 8885 c0 -8 4 -15 9 -15 5 0 11 7 15 15 3 9 0 15 -9 15 -8 0
-15 -7 -15 -15z"/>
<path d="M7130 8880 c0 -5 7 -10 15 -10 8 0 15 5 15 10 0 6 -7 10 -15 10 -8 0
-15 -4 -15 -10z"/>
<path d="M7340 8871 c0 -11 26 -22 34 -14 3 3 3 10 0 14 -7 12 -34 11 -34 0z"/>
<path d="M7232 8854 c4 -21 22 -23 26 -1 2 10 -3 17 -13 17 -10 0 -15 -6 -13
-16z"/>
<path d="M6932 8838 c4 -31 58 -40 58 -10 0 20 -18 32 -47 32 -9 0 -13 -8 -11
-22z"/>
<path d="M7580 8851 c0 -15 18 -22 25 -10 4 5 13 8 21 5 7 -3 16 -1 19 4 4 6
-9 10 -29 10 -20 0 -36 -4 -36 -9z"/>
<path d="M7730 8840 c0 -5 5 -10 10 -10 6 0 10 5 10 10 0 6 -4 10 -10 10 -5 0
-10 -4 -10 -10z"/>
<path d="M7530 8821 c0 -6 5 -13 10 -16 8 -5 8 -11 0 -20 -9 -10 -6 -19 9 -34
32 -32 39 -25 28 29 -7 39 -14 50 -28 50 -11 0 -19 -4 -19 -9z"/>
<path d="M7717 8804 c-8 -8 1 -24 14 -24 5 0 9 7 9 15 0 15 -12 20 -23 9z"/>
<path d="M7115 8790 c-8 -14 3 -30 21 -30 8 0 14 9 14 20 0 21 -24 28 -35 10z"/>
<path d="M7337 8783 c-14 -13 -6 -33 12 -33 14 0 18 5 14 20 -5 21 -15 25 -26
13z"/>
<path d="M7636 8744 c-9 -22 -8 -24 9 -24 8 0 15 6 15 14 0 22 -17 28 -24 10z"/>
<path d="M1030 8695 c0 -8 5 -15 10 -15 6 0 10 7 10 15 0 8 -4 15 -10 15 -5 0
-10 -7 -10 -15z"/>
<path d="M2420 8326 c0 -2 9 -6 20 -9 11 -3 20 -1 20 4 0 5 -9 9 -20 9 -11 0
-20 -2 -20 -4z"/>
<path d="M1850 8061 c0 -6 5 -13 10 -16 6 -3 10 1 10 9 0 9 -4 16 -10 16 -5 0
-10 -4 -10 -9z"/>
<path d="M1756 8022 c-3 -5 8 -6 25 -4 16 2 29 6 29 8 0 8 -49 4 -54 -4z"/>
<path d="M3424 7735 c21 -16 96 -21 96 -6 0 11 -36 21 -80 21 -33 -1 -34 -2
-16 -15z"/>
<path d="M4321 7521 c-9 -6 2 -12 38 -20 29 -6 61 -11 71 -11 36 0 21 17 -24
29 -53 13 -67 13 -85 2z"/>
<path d="M5350 7253 c59 -19 165 -30 157 -16 -10 16 -90 33 -149 32 l-53 -1
45 -15z"/>
<path d="M7736 6538 c-35 -49 -13 -188 29 -188 42 0 61 120 30 180 -18 36 -38
38 -59 8z"/>
<path d="M8001 6481 c-17 -31 -14 -138 5 -166 20 -31 48 -32 68 -3 19 27 21
122 3 158 -16 33 -61 39 -76 11z"/>
<path d="M7501 6466 c-12 -14 -5 -46 12 -58 30 -19 51 34 25 60 -15 15 -23 15
-37 -2z"/>
<path d="M5840 6260 c0 -12 20 -12 75 -1 40 9 39 9 -17 10 -33 0 -58 -3 -58
-9z"/>
<path d="M6038 6223 c12 -2 32 -2 45 0 12 2 2 4 -23 4 -25 0 -35 -2 -22 -4z"/>
<path d="M7425 4881 c-3 -5 -2 -12 3 -15 5 -3 9 1 9 9 0 17 -3 19 -12 6z"/>
<path d="M6110 5245 c0 -14 5 -25 10 -25 6 0 10 4 10 9 0 5 3 16 6 25 4 11 1
16 -10 16 -10 0 -16 -9 -16 -25z"/>
<path d="M6197 5233 c-3 -16 -5 -28 -4 -29 1 -1 16 -4 32 -8 21 -5 26 -4 15 3
-13 9 -12 12 5 25 20 15 20 15 -2 16 -13 0 -23 5 -23 10 0 22 -18 8 -23 -17z"/>
<path d="M6277 5243 c-10 -10 -8 -83 2 -83 5 0 11 17 14 38 4 37 -3 59 -16 45z"/>
<path d="M6040 5149 c0 -23 4 -30 14 -26 8 3 16 2 18 -2 2 -5 19 -12 38 -16
31 -7 33 -6 21 9 -9 10 -10 16 -2 16 15 0 14 30 -1 35 -7 2 -30 6 -50 10 -37
6 -38 5 -38 -26z"/>
<path d="M6070 5090 c0 -5 5 -10 11 -10 5 0 7 5 4 10 -3 6 -8 10 -11 10 -2 0
-4 -4 -4 -10z"/>
<path d="M6040 5043 c1 -16 10 -39 21 -52 17 -21 23 -22 44 -13 30 14 35 60 8
68 -10 3 -26 10 -35 15 -29 15 -38 11 -38 -18z"/>
<path d="M6045 4920 c-3 -5 4 -20 16 -32 17 -18 23 -20 27 -9 3 9 9 4 18 -15
l12 -29 1 44 c1 37 -1 42 -14 31 -12 -10 -16 -9 -21 4 -7 18 -29 21 -39 6z"/>
<path d="M6039 4787 c-15 -32 7 -81 38 -85 31 -5 44 25 29 68 -14 45 -50 54
-67 17z"/>
<path d="M6025 4636 c-12 -64 31 -99 69 -57 16 18 16 22 2 49 -14 27 -34 42
-56 42 -5 0 -12 -15 -15 -34z m41 -25 c11 9 14 7 14 -10 0 -12 -6 -21 -15 -21
-19 0 -38 37 -28 53 5 8 9 5 11 -11 3 -19 6 -21 18 -11z"/>
<path d="M6740 4621 c0 -6 5 -13 10 -16 6 -3 10 1 10 9 0 9 -4 16 -10 16 -5 0
-10 -4 -10 -9z"/>
<path d="M6717 4587 c-3 -7 -2 -19 3 -26 5 -10 8 -9 13 2 3 7 2 19 -3 26 -5
10 -8 9 -13 -2z"/>
<path d="M6638 4533 c6 -2 18 -2 25 0 6 3 1 5 -13 5 -14 0 -19 -2 -12 -5z"/>
<path d="M6045 4496 c-22 -18 -27 -28 -22 -47 9 -33 53 -86 64 -75 4 5 2 11
-4 13 -7 3 -13 9 -13 14 0 6 5 7 10 4 6 -4 10 15 10 49 0 30 -4 57 -8 60 -5 3
-21 -5 -37 -18z"/>
<path d="M6022 4329 c2 -7 16 -13 32 -15 23 -2 25 0 15 12 -14 17 -52 19 -47
3z"/>
<path d="M5610 4279 c0 -17 4 -28 10 -24 6 3 10 17 10 31 0 13 -4 24 -10 24
-5 0 -10 -14 -10 -31z"/>
<path d="M5713 4275 c0 -22 2 -30 4 -17 2 12 2 30 0 40 -3 9 -5 -1 -4 -23z"/>
<path d="M6033 4283 c-18 -6 -16 -32 2 -39 8 -4 12 -10 9 -15 -7 -11 7 -11 25
0 10 6 10 10 1 16 -6 4 -14 15 -18 24 -4 10 -13 16 -19 14z"/>
<path d="M6194 4267 c3 -10 6 -23 6 -28 0 -5 5 -9 10 -9 14 0 12 13 -6 36 -14
17 -15 17 -10 1z"/>
<path d="M5801 4234 c0 -11 3 -14 6 -6 3 7 2 16 -1 19 -3 4 -6 -2 -5 -13z"/>
<path d="M5873 4214 c-3 -8 -1 -20 6 -27 8 -8 11 -4 11 16 0 30 -7 35 -17 11z"/>
<path d="M5612 4170 c0 -19 2 -27 5 -17 2 9 2 25 0 35 -3 9 -5 1 -5 -18z"/>
<path d="M6020 4177 c0 -43 61 -63 68 -23 3 12 0 16 -7 11 -7 -4 -23 1 -36 9
-20 13 -25 13 -25 3z"/>
<path d="M5510 4161 c0 -5 6 -12 13 -14 10 -4 10 -6 0 -6 -16 -1 -17 -33 -2
-48 9 -9 8 -16 -5 -28 -9 -9 -16 -25 -16 -36 0 -10 -7 -19 -15 -19 -10 0 -15
-11 -16 -32 -1 -36 0 -114 1 -138 1 -8 -1 -24 -5 -36 -8 -26 39 -53 49 -28 3
9 -1 22 -9 30 -21 22 -19 24 14 18 26 -6 28 -4 24 20 -3 14 -9 26 -14 26 -5 0
-9 5 -9 11 0 5 4 8 9 5 5 -3 12 1 15 10 10 25 7 34 -9 34 -8 0 -15 7 -15 15 0
8 6 15 13 15 19 0 24 190 5 202 -17 10 -28 10 -28 -1z"/>
<path d="M5700 4141 c0 -6 5 -13 10 -16 6 -3 10 1 10 9 0 9 -4 16 -10 16 -5 0
-10 -4 -10 -9z"/>
<path d="M6170 4125 c0 -8 -9 -19 -21 -26 -15 -8 -20 -18 -16 -35 2 -14 1 -27
-3 -29 -13 -8 1 -45 16 -45 9 0 14 -11 14 -29 0 -21 6 -32 21 -36 11 -4 22 -5
23 -3 10 11 14 193 5 205 -15 17 -39 17 -39 -2z"/>
<path d="M5790 4105 c0 -8 5 -15 10 -15 6 0 10 7 10 15 0 8 -4 15 -10 15 -5 0
-10 -7 -10 -15z"/>
<path d="M5870 4081 c0 -12 5 -21 10 -21 6 0 10 6 10 14 0 8 -4 18 -10 21 -5
3 -10 -3 -10 -14z"/>
<path d="M6020 4083 c0 -39 45 -58 69 -29 9 11 9 16 0 21 -6 4 -15 1 -20 -6
-8 -11 -13 -9 -29 10 -18 21 -20 21 -20 4z"/>
<path d="M5605 4081 c-3 -5 -1 -12 5 -16 5 -3 10 1 10 9 0 18 -6 21 -15 7z"/>
<path d="M6408 4053 c7 -3 16 -2 19 1 4 3 -2 6 -13 5 -11 0 -14 -3 -6 -6z"/>
<path d="M5870 4040 c0 -5 5 -10 10 -10 6 0 10 5 10 10 0 6 -4 10 -10 10 -5 0
-10 -4 -10 -10z"/>
<path d="M5931 4024 c0 -11 3 -14 6 -6 3 7 2 16 -1 19 -3 4 -6 -2 -5 -13z"/>
<path d="M6748 4033 c7 -3 16 -2 19 1 4 3 -2 6 -13 5 -11 0 -14 -3 -6 -6z"/>
<path d="M6040 4011 c0 -5 5 -13 10 -16 6 -3 10 -2 10 4 0 5 -4 13 -10 16 -5
3 -10 2 -10 -4z"/>
<path d="M5600 3990 c0 -11 5 -20 10 -20 6 0 10 9 10 20 0 11 -4 20 -10 20 -5
0 -10 -9 -10 -20z"/>
<path d="M5702 3990 c0 -14 2 -19 5 -12 2 6 2 18 0 25 -3 6 -5 1 -5 -13z"/>
<path d="M5943 3993 c-19 -7 -16 -44 5 -59 27 -21 38 -16 14 6 -25 24 -29 45
-7 36 9 -3 15 0 15 9 0 15 -6 17 -27 8z"/>
<path d="M6028 3949 c-3 -19 1 -36 9 -45 22 -22 30 -17 35 20 3 25 -1 37 -14
45 -25 15 -25 15 -30 -20z"/>
<path d="M5790 3944 c0 -14 4 -23 9 -20 5 3 7 15 4 26 -7 28 -13 25 -13 -6z"/>
<path d="M5866 3928 c-3 -17 -2 -36 4 -42 7 -7 10 4 10 32 0 50 -5 54 -14 10z"/>
<path d="M5600 3886 c0 -20 5 -36 10 -36 6 0 10 13 10 29 0 17 -4 33 -10 36
-6 4 -10 -8 -10 -29z"/>
<path d="M5929 3875 c-4 -46 -2 -50 19 -52 19 -1 22 4 22 33 0 23 -5 34 -14
34 -8 0 -16 8 -19 18 -2 9 -5 -6 -8 -33z m31 -15 c0 -11 -4 -20 -10 -20 -5 0
-10 9 -10 20 0 11 5 20 10 20 6 0 10 -9 10 -20z"/>
<path d="M5694 3849 c-3 -6 -1 -16 5 -22 8 -8 11 -5 11 11 0 24 -5 28 -16 11z"/>
<path d="M6055 3814 c-11 -8 -29 -13 -40 -10 -15 4 -13 -1 10 -20 25 -20 28
-26 15 -34 -8 -5 -20 -10 -26 -10 -16 0 -20 -16 -23 -78 -2 -60 5 -92 22 -92
8 0 8 3 -1 12 -7 7 -12 18 -12 25 0 22 27 14 48 -14 30 -41 43 -22 42 65 -1
42 2 90 5 105 6 30 -1 67 -13 67 -4 0 -16 -7 -27 -16z m-11 -140 c7 -18 -21
-31 -36 -16 -15 15 -2 43 16 36 8 -3 17 -12 20 -20z"/>
<path d="M5787 3806 c-4 -10 -5 -21 -2 -24 9 -9 17 6 13 25 -3 17 -4 17 -11
-1z"/>
<path d="M5598 3780 c-3 -17 -1 -33 4 -36 4 -3 8 11 8 30 0 44 -6 47 -12 6z"/>
<path d="M5931 3764 c0 -11 3 -14 6 -6 3 7 2 16 -1 19 -3 4 -6 -2 -5 -13z"/>
<path d="M5950 3771 c0 -6 5 -13 10 -16 6 -3 10 1 10 9 0 9 -4 16 -10 16 -5 0
-10 -4 -10 -9z"/>
<path d="M6143 3757 c2 -6 16 -14 31 -18 22 -6 25 -5 16 6 -14 17 -52 27 -47
12z"/>
<path d="M5860 3712 c0 -18 5 -32 10 -32 6 0 9 11 7 25 -5 37 -17 42 -17 7z"/>
<path d="M5460 3655 l0 -75 28 0 c19 0 23 3 13 9 -9 6 -10 10 -2 16 9 5 9 10
0 21 -8 10 -8 18 -1 27 26 31 15 77 -19 77 -17 0 -19 -7 -19 -75z"/>
<path d="M5695 3720 c3 -5 8 -10 11 -10 2 0 4 5 4 10 0 6 -5 10 -11 10 -5 0
-7 -4 -4 -10z"/>
<path d="M6137 3711 c-4 -15 2 -22 23 -30 16 -5 31 -7 34 -4 9 9 -14 44 -25
38 -5 -4 -9 -1 -9 4 0 19 -17 12 -23 -8z"/>
<path d="M5780 3660 c0 -19 3 -21 12 -12 9 9 9 15 0 24 -9 9 -12 7 -12 -12z"/>
<path d="M6155 3660 c27 -12 43 -12 25 0 -8 5 -22 9 -30 9 -10 0 -8 -3 5 -9z"/>
<path d="M6140 3642 c0 -11 24 -22 48 -22 21 0 5 15 -25 25 -13 3 -23 2 -23
-3z"/>
<path d="M5580 3605 c0 -18 5 -25 20 -25 24 0 28 35 4 44 -23 9 -24 8 -24 -19z"/>
<path d="M6140 3591 c0 -12 6 -21 14 -21 8 0 21 -3 30 -6 9 -3 16 -2 16 2 0
17 -15 31 -37 38 -19 6 -23 4 -23 -13z"/>
<path d="M5680 3567 c0 -25 4 -33 20 -34 15 -1 19 4 18 23 -2 14 -10 30 -20
35 -16 8 -18 5 -18 -24z"/>
<path d="M5760 3561 c0 -5 7 -16 15 -24 8 -8 11 -17 8 -21 -4 -3 -1 -6 5 -6
20 0 14 34 -8 48 -11 7 -20 8 -20 3z"/>
<path d="M6208 3543 c7 -3 16 -2 19 1 4 3 -2 6 -13 5 -11 0 -14 -3 -6 -6z"/>
<path d="M5862 3468 c4 -72 21 -86 39 -31 6 21 18 48 26 59 13 20 11 22 -18
28 -17 3 -36 6 -41 6 -5 0 -8 -28 -6 -62z"/>
<path d="M5700 3504 c0 -8 5 -12 10 -9 6 4 8 11 5 16 -9 14 -15 11 -15 -7z"/>
<path d="M5760 3470 c0 -13 7 -20 20 -20 13 0 20 7 20 20 0 13 -7 20 -20 20
-13 0 -20 -7 -20 -20z"/>
<path d="M5579 3450 c35 -22 56 -24 43 -3 -5 7 -24 15 -42 19 l-35 6 34 -22z"/>
<path d="M5650 3425 c0 -8 9 -15 19 -15 11 0 23 -4 26 -10 8 -14 28 -13 23 1
-2 6 -18 17 -36 25 -27 11 -32 11 -32 -1z"/>
<path d="M5560 3421 c0 -5 8 -11 18 -15 9 -3 23 -9 30 -12 6 -3 12 -2 12 4 0
5 -11 14 -25 20 -31 14 -35 15 -35 3z"/>
<path d="M5735 3390 c-3 -5 10 -14 28 -21 40 -16 48 -16 45 -4 -3 13 -67 35
-73 25z"/>
<path d="M5650 3381 c0 -11 59 -36 66 -28 3 3 -8 13 -25 21 -35 18 -41 19 -41
7z"/>
<path d="M5732 3348 c4 -11 78 -40 78 -29 0 3 -18 14 -41 23 -22 9 -39 12 -37
6z"/>
<path d="M5845 3340 c3 -5 8 -10 11 -10 2 0 4 5 4 10 0 6 -5 10 -11 10 -5 0
-7 -4 -4 -10z"/>
<path d="M6070 3331 c0 -5 5 -13 10 -16 6 -3 10 -2 10 4 0 5 -4 13 -10 16 -5
3 -10 2 -10 -4z"/>
<path d="M5900 3323 c0 -7 32 -32 43 -33 17 0 5 18 -18 28 -14 6 -25 9 -25 5z"/>
<path d="M5845 3300 c-3 -5 1 -10 10 -10 9 0 13 5 10 10 -3 6 -8 10 -10 10 -2
0 -7 -4 -10 -10z"/>
<path d="M5916 3265 c10 -8 24 -14 29 -14 6 0 1 6 -9 14 -11 8 -24 15 -30 15
-5 0 -1 -7 10 -15z"/>
<path d="M5997 3273 c-16 -16 -5 -44 24 -58 37 -20 49 -12 24 15 -17 18 -17
20 -1 26 14 5 15 9 4 15 -16 10 -42 12 -51 2z"/>
<path d="M4508 4814 c-8 -8 6 -57 18 -61 5 -1 15 1 23 6 12 8 12 12 2 25 -7 8
-10 20 -6 26 6 10 -27 15 -37 4z"/>
<path d="M4539 4273 c-4 -52 8 -77 28 -65 17 11 5 82 -13 82 -8 0 -15 -8 -15
-17z"/>
<path d="M5325 5131 c-12 -39 26 -78 65 -66 24 8 26 33 4 63 -19 27 -60 29
-69 3z"/>
<path d="M5327 4963 c-14 -13 -7 -50 12 -67 26 -23 55 -17 59 12 6 39 -47 80
-71 55z"/>
<path d="M5364 4767 c-9 -24 0 -52 16 -52 21 0 24 39 6 55 -13 10 -17 9 -22
-3z"/>
<path d="M1530 2946 c-18 -35 -7 -56 30 -56 25 0 33 6 45 32 15 37 7 48 -36
48 -17 0 -30 -8 -39 -24z"/>
<path d="M8313 3606 c-24 -16 -43 -35 -43 -42 0 -19 45 -64 62 -64 17 0 55
-46 82 -97 16 -33 21 -84 9 -97 -11 -10 -12 -36 -2 -36 4 0 6 -7 3 -15 -4 -8
-12 -15 -20 -15 -8 0 -14 -4 -14 -9 0 -5 -23 -12 -51 -16 -47 -7 -53 -5 -75
18 -13 15 -24 29 -24 32 0 10 -54 54 -66 55 -6 0 -17 -6 -23 -14 -6 -8 -31
-17 -54 -20 -63 -10 -75 -20 -58 -48 10 -16 10 -23 2 -26 -17 -6 -13 -22 5
-22 15 0 15 -2 0 -25 -21 -32 -20 -52 2 -58 16 -4 16 -5 0 -6 -22 -1 -24 -17
-4 -24 9 -4 12 -14 9 -26 -8 -31 25 -95 58 -110 32 -14 82 -5 58 10 -17 11 58
1 86 -11 23 -10 88 -20 127 -20 15 0 30 -5 33 -10 4 -6 15 -8 26 -5 15 5 19 1
19 -14 0 -12 6 -21 13 -22 6 0 2 -4 -9 -9 -25 -10 -40 -70 -17 -70 7 0 13 7
13 15 0 8 5 15 11 15 6 0 9 -9 6 -19 -3 -11 1 -28 8 -38 14 -21 19 -99 6 -107
-5 -4 -12 -28 -16 -54 -5 -37 -15 -58 -45 -89 -21 -23 -36 -43 -34 -46 2 -2
-2 -10 -11 -17 -8 -7 -15 -18 -15 -25 0 -7 -7 -18 -15 -25 -8 -7 -15 -20 -15
-29 0 -17 -54 -71 -71 -71 -5 0 -9 -11 -9 -25 0 -14 -4 -25 -10 -25 -5 0 -16
-13 -25 -30 -10 -20 -23 -30 -38 -30 -17 0 -26 -9 -36 -37 -10 -27 -11 -38 -2
-41 6 -2 11 -9 11 -17 0 -7 20 -33 45 -58 40 -39 44 -48 36 -70 -5 -14 -7 -28
-3 -31 3 -4 -4 -9 -16 -13 -12 -3 -19 -10 -15 -16 4 -6 0 -8 -11 -4 -12 5 -19
-1 -26 -19 -6 -14 -14 -23 -19 -20 -5 3 -7 -6 -5 -22 16 -127 15 -140 -11
-168 l-25 -27 -19 22 c-12 13 -22 18 -26 11 -3 -5 -1 -10 4 -10 6 0 11 -4 11
-9 0 -4 -11 -6 -25 -3 -20 3 -34 -4 -62 -34 l-37 -39 -1 -98 c-1 -91 -3 -100
-24 -116 -18 -14 -22 -23 -16 -41 6 -18 2 -27 -16 -41 -23 -17 -23 -19 -4 -19
18 -1 17 -2 -4 -11 -23 -9 -23 -10 -6 -23 18 -13 18 -14 -3 -20 -18 -6 -20
-11 -12 -32 11 -28 -12 -74 -36 -74 -8 0 -14 -10 -14 -25 0 -20 -5 -25 -25
-25 -16 0 -25 -6 -25 -15 0 -8 4 -15 9 -15 12 0 31 -112 21 -125 -10 -13 -6
-31 19 -86 15 -33 29 -49 47 -53 25 -7 29 -30 6 -32 -7 -1 -16 -2 -22 -3 -12
-1 -13 -41 -1 -41 15 0 61 27 55 32 -2 3 2 8 10 11 9 4 22 0 30 -8 8 -8 21
-15 30 -15 20 0 39 -36 31 -60 -4 -11 -13 -20 -21 -20 -8 0 -14 -4 -14 -10 0
-5 -9 -10 -20 -10 -11 0 -20 5 -20 10 0 6 -5 10 -10 10 -6 0 -9 -10 -7 -22 2
-13 2 -18 0 -12 -2 6 -14 16 -26 22 -21 10 -21 11 -2 13 11 1 5 5 -15 8 -46 9
-75 -12 -58 -42 8 -16 8 -22 -1 -25 -19 -6 -12 -20 12 -25 l22 -4 -22 -2 c-12
0 -28 -11 -34 -23 -7 -13 -19 -27 -27 -32 -10 -6 -11 -10 -3 -16 9 -5 7 -16
-6 -40 -32 -61 -50 -74 -101 -77 -62 -4 -72 -9 -72 -32 0 -22 38 -35 57 -19 8
6 17 7 21 3 4 -4 1 -10 -5 -12 -15 -5 -17 -39 -3 -48 10 -6 -6 -43 -25 -57
-17 -13 -53 -9 -59 7 -3 8 -10 15 -17 15 -6 0 -9 -7 -5 -15 3 -8 -2 -19 -12
-24 -15 -9 -14 -12 11 -33 15 -13 27 -29 27 -36 0 -15 15 -15 42 -1 18 10 19
8 13 -13 -4 -16 -4 -19 3 -9 11 16 47 7 37 -9 -4 -7 2 -9 19 -4 23 5 27 3 32
-25 6 -30 8 -31 63 -31 133 1 384 70 440 121 17 15 33 23 37 18 9 -16 131 57
233 139 224 182 364 415 433 724 20 87 21 131 25 686 l5 592 -35 0 c-27 0 -36
5 -45 26 -14 29 -6 74 13 74 8 0 11 8 9 18 -3 10 8 31 26 50 l30 33 -1 417 c0
241 -4 408 -9 396 -11 -27 -57 -64 -81 -64 -10 0 -22 6 -26 14 -4 8 -19 16
-33 18 -16 2 -28 12 -34 31 -12 34 1 59 35 67 13 3 29 16 35 29 7 12 17 28 23
34 13 13 15 50 4 61 -5 4 -8 13 -8 19 0 8 -18 12 -47 12 -35 0 -51 5 -61 19
-12 17 -28 20 -103 21 -98 2 -140 16 -148 49 -5 20 -12 22 -73 22 -60 1 -73
-3 -110 -30z m573 -627 c13 -26 13 -35 2 -60 -7 -16 -18 -29 -25 -29 -6 0 -18
-21 -26 -47 -11 -35 -15 -41 -16 -23 -1 18 -4 21 -10 11 -6 -9 -9 5 -9 39 0
28 -4 56 -10 62 -11 11 56 91 69 82 5 -3 16 -19 25 -35z m-76 -211 c0 -10 5
-18 10 -18 6 0 10 -6 10 -14 0 -8 7 -22 16 -31 13 -12 14 -24 8 -53 -5 -20 -9
-95 -9 -167 l0 -130 -38 -37 c-20 -21 -37 -42 -37 -47 0 -5 -7 -17 -16 -26
-13 -12 -13 -19 -4 -30 7 -8 9 -26 6 -42 -4 -16 -7 -50 -8 -76 0 -40 -5 -51
-30 -71 l-30 -23 -24 24 c-20 20 -27 22 -45 12 -17 -8 -24 -8 -35 3 -29 29 13
178 60 210 6 4 6 15 -1 30 -6 14 -7 31 -3 39 4 8 10 36 14 62 3 26 17 68 31
92 22 36 26 54 24 110 -2 60 1 70 29 111 18 24 32 48 32 53 0 5 6 14 14 21 8
6 12 19 9 28 -4 15 -3 15 6 2 6 -8 11 -23 11 -32z m-297 15 c-7 -2 -19 -2 -25
0 -7 3 -2 5 12 5 14 0 19 -2 13 -5z m52 -383 c3 -5 -1 -10 -9 -10 -9 0 -16 5
-16 10 0 6 4 10 9 10 6 0 13 -4 16 -10z m300 -333 c35 -50 6 -108 -56 -110
-30 -2 -34 1 -42 36 -5 20 -6 45 -1 55 4 9 6 20 6 25 -1 4 5 7 13 7 8 0 15 4
15 9 0 16 51 -1 65 -22z m-685 -244 c0 -5 -5 -15 -10 -23 -8 -12 -10 -11 -10
8 0 12 5 22 10 22 6 0 10 -3 10 -7z m371 -100 c8 -16 19 -31 25 -35 18 -12
-23 -86 -56 -103 -21 -11 -27 -20 -23 -35 3 -11 1 -20 -5 -20 -15 0 -24 94
-12 126 6 15 9 33 6 40 -6 15 21 54 38 54 7 0 19 -12 27 -27z m204 -13 c-3 -6
1 -7 9 -4 25 10 20 -31 -8 -63 -20 -24 -26 -25 -40 -14 -18 15 -22 41 -6 41 6
0 10 11 10 25 0 19 5 25 21 25 11 0 17 -4 14 -10z m-195 -244 c0 -7 -11 -16
-25 -18 -17 -4 -25 -1 -25 9 0 8 4 12 8 9 4 -2 14 -1 22 5 19 12 20 11 20 -5z
m-480 -66 c0 -5 -2 -10 -4 -10 -3 0 -8 5 -11 10 -3 6 -1 10 4 10 6 0 11 -4 11
-10z m400 -680 c11 0 19 -6 18 -12 -2 -8 9 -14 25 -16 15 -2 28 -10 28 -18 4
-50 2 -59 -12 -56 -9 1 -21 -9 -27 -23 -10 -22 -9 -25 8 -25 23 0 26 -21 7
-58 -53 -106 -68 -130 -96 -149 -26 -18 -37 -20 -56 -11 -13 6 -36 7 -52 3
-15 -4 -39 -9 -53 -10 -14 -1 -40 -6 -59 -10 -31 -7 -34 -7 -26 11 5 10 8 43
7 72 -2 46 2 59 26 90 16 20 32 53 35 72 18 110 20 113 75 146 l53 32 39 -19
c21 -10 48 -19 60 -19z m-603 -176 c-3 -3 -12 -4 -19 -1 -8 3 -5 6 6 6 11 1
17 -2 13 -5z m360 -260 c6 -16 -12 -34 -34 -34 -14 0 -18 32 -6 43 12 12 34 7
40 -9z"/>
<path d="M1885 1690 c-8 -13 5 -13 25 0 13 8 13 10 -2 10 -9 0 -20 -4 -23 -10z"/>
<path d="M2642 821 c2 -7 7 -12 11 -12 12 1 9 15 -3 20 -7 2 -11 -2 -8 -8z"/>
<path d="M7935 681 c-3 -6 -3 -15 0 -21 8 -14 65 -13 65 1 0 6 -6 9 -12 6 -7
-2 -20 2 -30 10 -11 10 -18 11 -23 4z"/>
</g>
</svg>
