<?xml version="1.0" standalone="no"?>
<!DOCTYPE svg PUBLIC "-//W3C//DTD SVG 20010904//EN"
 "http://www.w3.org/TR/2001/REC-SVG-20010904/DTD/svg10.dtd">
<svg version="1.0" xmlns="http://www.w3.org/2000/svg"
 width="225.000000pt" height="225.000000pt" viewBox="0 0 225.000000 225.000000"
 preserveAspectRatio="xMidYMid meet">

<g transform="translate(0.000000,225.000000) scale(0.100000,-0.100000)"
fill="#000000" stroke="none">
<path d="M262 2234 c-29 -7 -66 -21 -83 -30 -40 -20 -119 -101 -119 -121 0 -9
-6 -21 -14 -27 -8 -6 -21 -37 -30 -69 -12 -50 -12 -58 0 -53 20 8 18 -11 -3
-22 -13 -8 -1 -12 48 -16 122 -12 144 -12 158 2 7 7 16 10 19 7 4 -3 1 -10 -7
-14 -9 -6 -6 -10 11 -14 35 -10 68 -8 68 3 0 6 7 10 16 10 8 0 13 -4 10 -9
-15 -23 59 -28 81 -6 19 19 31 11 14 -9 -10 -12 -6 -15 19 -21 53 -12 29 -14
-55 -5 -44 5 -109 11 -144 14 -35 4 -67 8 -71 11 -5 3 -16 -3 -26 -12 -17 -17
-18 -17 -11 0 5 14 0 17 -26 19 -18 0 -42 0 -54 -1 -12 -1 -24 3 -28 9 -3 5
-13 10 -21 10 -13 0 -14 -49 -13 -360 l2 -360 43 0 c46 0 59 -14 23 -25 -21
-7 -21 -29 -1 -31 7 -1 13 -3 15 -4 1 -1 14 -4 29 -6 22 -2 28 1 28 17 0 10 5
19 10 19 6 0 10 -5 10 -11 0 -6 7 -9 15 -5 8 3 15 2 15 -3 0 -5 13 -11 30 -13
26 -4 29 -2 28 19 -1 13 -8 23 -16 23 -15 0 -48 29 -35 31 4 1 17 2 27 3 11 0
21 8 23 16 4 12 3 13 -5 1 -18 -25 -32 -1 -31 52 0 42 2 48 10 32 6 -12 20
-25 32 -30 28 -13 34 -71 9 -78 -10 -3 -3 -5 13 -6 l30 -2 -24 -19 c-21 -18
-20 -25 2 -21 4 0 7 -4 7 -9 0 -6 13 -10 30 -10 22 0 28 4 24 15 -6 16 7 21
20 8 4 -5 11 -9 14 -9 48 -8 97 -54 57 -54 -9 0 -12 -6 -9 -15 5 -11 2 -13
-10 -9 -9 3 -16 15 -16 25 0 20 -8 23 -34 13 -9 -3 -13 -11 -10 -16 4 -6 -2
-8 -15 -3 -15 5 -21 2 -21 -10 0 -13 -2 -14 -14 -3 -8 7 -12 16 -9 21 2 4 -7
7 -21 7 -14 0 -26 -4 -26 -10 0 -5 -7 -7 -15 -4 -8 4 -15 2 -15 -4 0 -6 6 -12
13 -15 6 -2 9 -7 6 -11 -13 -14 -40 6 -34 25 5 16 1 19 -30 19 -25 0 -34 -4
-29 -12 5 -8 2 -9 -12 -3 -10 5 -38 10 -62 13 -38 4 -41 2 -35 -14 6 -16 4
-17 -9 -7 -18 16 -32 5 -17 -14 9 -9 8 -13 0 -13 -9 0 -11 -87 -11 -331 1
-322 2 -331 21 -326 10 3 19 2 19 -3 0 -4 -9 -10 -19 -13 -17 -4 -19 -11 -14
-48 9 -79 85 -219 117 -219 8 0 16 -6 19 -13 7 -18 88 -56 143 -66 45 -9 973
-16 963 -8 -2 2 -62 35 -134 72 -140 73 -316 166 -380 201 -99 54 -190 99
-197 96 -5 -1 -8 2 -8 8 0 5 -7 6 -17 3 -11 -4 -14 -3 -9 5 4 7 2 12 -4 12
-13 0 -60 45 -60 58 0 5 30 22 66 37 l67 28 81 -43 c45 -23 86 -47 91 -53 6
-5 0 -4 -12 2 -13 6 -23 9 -23 7 0 -3 14 -13 31 -22 17 -8 28 -11 24 -5 -4 8
2 8 19 0 14 -7 23 -16 19 -22 -3 -6 -1 -7 5 -3 15 9 175 -72 167 -84 -3 -5 0
-7 8 -4 8 3 18 0 23 -7 5 -8 3 -10 -7 -4 -10 5 -11 5 -4 -2 21 -22 135 -74
146 -67 8 4 9 3 5 -4 -7 -11 47 -40 174 -94 33 -14 34 -16 31 -66 l-2 -52 165
0 166 0 0 33 c0 24 -3 28 -10 17 -13 -20 -13 1 0 34 9 26 -3 38 -13 14 -3 -7
-6 -3 -6 9 -1 12 3 25 9 28 5 3 10 1 10 -5 0 -6 4 -8 10 -5 5 3 10 15 10 26 0
20 0 20 -22 -1 -32 -30 -76 -26 -114 11 -28 27 -36 30 -69 23 l-38 -7 27 -14
c15 -8 25 -17 23 -20 -7 -7 -79 16 -92 30 -7 7 -5 7 5 2 10 -5 8 0 -5 16 -11
13 -21 26 -22 28 -1 2 -9 -1 -16 -8 -15 -12 -47 -5 -47 10 0 5 -7 9 -15 9 -8
0 -35 12 -61 26 -31 17 -54 24 -70 20 -14 -4 -37 0 -55 10 -18 9 -50 17 -73
17 -31 2 -42 6 -44 21 -3 16 0 18 25 12 50 -11 177 -34 231 -40 l52 -7 0 101
c0 70 -3 99 -11 95 -6 -4 -5 2 3 14 10 16 10 27 1 50 -8 22 -8 31 1 34 8 3 7
12 -4 32 -12 22 -12 29 -3 32 9 3 10 10 4 21 -14 27 -24 1017 -10 1043 8 15 8
19 0 15 -7 -5 -11 3 -11 19 0 14 4 24 8 21 4 -2 9 9 10 25 2 19 -2 28 -8 24
-5 -3 -10 3 -10 14 0 36 25 23 48 -24 12 -25 26 -45 32 -45 5 0 6 -8 3 -17 -6
-16 -5 -16 10 -4 10 8 20 11 23 8 10 -10 -5 -39 -16 -32 -5 3 -10 1 -10 -4 0
-6 4 -11 10 -11 5 0 9 -3 8 -7 0 -5 2 -16 7 -27 5 -11 3 -26 -4 -38 -17 -28 3
-61 35 -55 14 2 27 0 30 -4 5 -8 -10 -13 -28 -10 -5 0 -8 -4 -8 -9 0 -6 5 -10
10 -10 6 0 10 -16 10 -36 0 -21 4 -33 10 -29 6 3 10 1 10 -5 0 -7 9 -5 22 4
12 9 33 16 45 16 21 0 22 -3 16 -45 -3 -25 -3 -45 1 -45 4 0 20 14 37 31 29
30 31 44 6 44 -6 0 -14 11 -17 25 -3 15 -19 32 -39 42 l-32 16 35 13 c34 12
49 29 26 29 -24 0 -7 42 35 84 29 30 52 45 67 44 13 0 30 1 37 3 11 3 18 -10
25 -43 7 -30 20 -54 34 -63 12 -9 22 -25 22 -35 0 -10 4 -21 10 -25 24 -15 -9
-141 -35 -131 -8 3 -17 0 -21 -6 -4 -6 -3 -8 4 -4 6 3 14 1 18 -5 5 -8 -4 -10
-29 -7 -20 2 -35 1 -35 -2 2 -24 -5 -38 -22 -43 -10 -3 -21 0 -24 7 -3 7 -11
4 -21 -9 -13 -17 -17 -18 -25 -5 -6 10 -3 18 11 28 22 15 44 52 30 52 -5 0
-19 -9 -32 -19 -23 -18 -24 -25 -24 -144 0 -102 2 -122 12 -104 11 21 12 21
28 -17 18 -42 17 -97 -2 -103 -6 -2 -13 8 -16 24 -4 25 -4 24 -6 -7 -1 -27 -4
-31 -11 -20 -6 10 -10 -135 -10 -418 l0 -434 49 7 c30 4 51 3 55 -4 7 -11 46
17 46 34 1 23 70 103 103 118 39 19 99 22 126 8 25 -14 28 -121 3 -122 -15 0
-14 -1 1 -8 17 -6 17 -8 3 -20 -9 -7 -13 -17 -10 -23 3 -5 0 -15 -6 -23 -6 -8
-8 -19 -4 -26 5 -8 12 -3 21 15 8 15 18 24 23 21 6 -4 10 4 10 17 l0 23 20
-25 c16 -21 21 -23 32 -12 11 11 10 15 -4 23 -23 13 -23 33 0 24 9 -3 2 7 -16
23 -37 33 -46 80 -11 62 11 -6 25 -9 32 -7 7 2 -3 12 -21 21 -37 19 -37 35 -2
53 21 11 22 13 7 19 -14 5 -15 9 -6 20 15 18 51 18 96 -1 20 -8 38 -13 40 -11
8 8 -72 55 -105 62 -39 8 -41 21 -4 31 47 12 99 6 129 -14 49 -34 63 -36 63
-7 0 28 -22 40 -132 69 -58 15 -65 20 -52 32 8 8 14 20 14 26 0 7 6 19 13 28
11 15 20 15 85 4 71 -12 73 -12 70 8 -3 17 -11 21 -55 23 -28 1 -60 7 -71 13
-13 7 -23 7 -32 -2 -7 -7 -11 -7 -8 -2 3 6 19 40 36 76 25 55 40 73 81 100 45
28 51 37 51 66 0 18 -2 33 -3 33 -2 0 -26 -20 -53 -44 -27 -25 -50 -41 -52
-36 -6 16 26 64 67 105 23 21 41 48 41 60 -1 16 -8 12 -41 -25 l-41 -45 23 43
c13 23 30 50 39 60 9 10 17 32 18 50 l1 32 -23 -28 c-42 -51 -77 -127 -101
-216 -34 -126 -50 -134 -20 -10 20 85 58 168 105 229 49 63 56 108 9 49 -50
-62 -93 -134 -118 -199 -13 -33 -29 -73 -36 -90 -8 -16 -11 -33 -9 -37 3 -4 0
-8 -5 -8 -6 0 -11 -13 -11 -30 0 -24 -4 -30 -21 -30 -17 0 -19 -3 -10 -14 9
-11 7 -15 -9 -19 -11 -3 -20 -1 -20 5 0 5 -4 6 -10 3 -5 -3 -10 -11 -10 -16 0
-6 4 -8 8 -5 4 2 14 0 22 -5 13 -9 13 -10 0 -8 -31 3 -40 -1 -40 -19 0 -28
-29 -22 -48 10 -9 15 -20 28 -25 28 -5 0 -5 6 1 13 6 7 7 18 2 26 -6 10 -13
-1 -26 -37 l-18 -51 -13 31 c-19 44 -16 75 12 143 14 33 25 67 24 75 0 8 -13
-19 -29 -60 -16 -41 -29 -68 -29 -59 -1 9 10 46 24 83 16 42 26 91 27 135 l3
70 22 -22 c36 -36 51 -46 57 -40 15 15 4 -52 -14 -87 -25 -48 -70 -173 -65
-178 2 -2 6 6 10 17 3 12 11 18 17 15 7 -4 8 -2 4 5 -11 17 93 226 148 298 25
34 46 68 46 76 0 8 15 26 33 40 20 16 38 43 50 75 12 34 29 60 52 78 33 25 35
30 35 86 0 40 -5 64 -16 75 -12 12 -14 31 -11 86 5 73 -8 139 -36 194 -19 37
-21 53 -7 53 6 0 10 -7 10 -15 0 -8 5 -15 11 -15 5 0 8 -3 5 -8 -2 -4 7 -30
20 -57 l25 -50 -5 121 c-3 96 -9 132 -25 170 -34 77 -69 121 -126 159 -88 58
-134 65 -440 65 l-270 0 -44 -60 c-64 -87 -73 -93 -70 -42 2 23 7 42 12 42 5
0 7 -9 4 -20 -3 -11 -2 -20 3 -20 8 0 18 88 11 96 -2 2 -95 4 -205 4 l-201 0
3 -84 c3 -63 0 -91 -12 -115 -21 -40 -28 -40 -14 0 13 37 4 49 -19 26 -14 -13
-14 -17 -3 -17 12 0 12 -2 1 -12 -11 -11 -14 -10 -18 0 -4 10 -10 10 -28 -2
-21 -14 -24 -14 -29 0 -9 23 -8 24 15 24 27 0 89 62 89 89 0 12 -7 37 -14 56
-17 39 -42 45 -90 20 -35 -19 -36 -19 -37 3 0 9 -10 -7 -21 -36 -12 -29 -23
-50 -26 -48 -2 3 3 23 12 46 9 22 16 42 16 45 0 3 -91 4 -202 4 -140 -1 -220
-5 -256 -15z m48 -54 c0 -5 -5 -10 -11 -10 -5 0 -7 5 -4 10 3 6 8 10 11 10 2
0 4 -4 4 -10z m550 1 c0 -5 -7 -11 -15 -15 -9 -3 -15 0 -15 9 0 8 7 15 15 15
8 0 15 -4 15 -9z m-360 -31 c0 -5 -5 -10 -11 -10 -5 0 -7 5 -4 10 3 6 8 10 11
10 2 0 4 -4 4 -10z m-243 -15 c0 -8 -4 -12 -9 -9 -4 3 -8 9 -8 15 0 5 4 9 8 9
5 0 9 -7 9 -15z m-67 -15 c0 -5 -2 -10 -4 -10 -3 0 -8 5 -11 10 -3 6 -1 10 4
10 6 0 11 -4 11 -10z m566 -27 c-11 -11 -19 6 -11 24 8 17 8 17 12 0 3 -10 2
-21 -1 -24z m1177 -21 c38 -34 50 -72 45 -143 -5 -59 -10 -73 -37 -104 -33
-38 -40 -39 -16 -1 14 21 14 25 0 39 -17 17 -20 37 -6 37 5 0 12 -12 16 -27
l7 -28 15 29 c10 20 14 47 11 88 -5 75 -31 112 -79 115 -31 2 -31 1 -9 -7 22
-7 21 -8 -14 -9 -33 -1 -38 -4 -33 -21 3 -12 -1 -23 -10 -29 -12 -6 -13 -12
-4 -29 15 -28 14 -32 -4 -26 -28 11 -15 93 21 128 21 21 67 15 97 -12z m-1746
-24 c-3 -8 -6 -5 -6 6 -1 11 2 17 5 13 3 -3 4 -12 1 -19z m53 2 c0 -11 -4 -20
-10 -20 -5 0 -10 9 -10 20 0 11 5 20 10 20 6 0 10 -9 10 -20z m390 0 c0 -5 -7
-10 -15 -10 -8 0 -15 5 -15 10 0 6 7 10 15 10 8 0 15 -4 15 -10z m-350 -14 c0
-3 -4 -8 -10 -11 -5 -3 -10 -1 -10 4 0 6 5 11 10 11 6 0 10 -2 10 -4z m148
-36 c-1 -19 -6 -30 -16 -30 -9 0 -12 6 -8 16 3 9 6 25 6 35 0 11 4 18 9 14 5
-3 9 -19 9 -35z m62 18 c0 -7 -5 -20 -10 -28 -8 -12 -10 -9 -10 13 0 15 5 27
10 27 6 0 10 -6 10 -12z m-248 -13 c0 -5 -5 -11 -11 -13 -6 -2 -11 4 -11 13 0
9 5 15 11 13 6 -2 11 -8 11 -13z m286 -30 c-6 -14 -13 -23 -15 -21 -5 5 15 46
22 46 3 0 -1 -11 -7 -25z m92 11 c0 -8 -4 -18 -10 -21 -5 -3 -10 3 -10 14 0
12 5 21 10 21 6 0 10 -6 10 -14z m50 -8 c0 -7 -5 -20 -10 -28 -8 -12 -10 -9
-10 13 0 15 5 27 10 27 6 0 10 -6 10 -12z m128 -3 c8 -7 -20 -45 -32 -45 -14
0 -28 45 -18 55 5 5 42 -3 50 -10z m1076 0 c3 -8 1 -15 -4 -15 -6 0 -10 7 -10
15 0 8 2 15 4 15 2 0 6 -7 10 -15z m-1164 -19 c0 -16 -28 -42 -36 -33 -8 7 14
47 26 47 6 0 10 -6 10 -14z m144 -18 c14 -9 1 -22 -13 -13 -6 3 -11 16 -10 28
0 15 2 17 6 7 3 -8 11 -18 17 -22z m126 2 c0 -11 -4 -20 -10 -20 -5 0 -10 9
-10 20 0 11 5 20 10 20 6 0 10 -9 10 -20z m700 7 c0 -2 -12 -14 -27 -28 l-28
-24 24 28 c23 25 31 32 31 24z m-135 -47 c-16 -16 -34 -30 -39 -30 -6 0 -27
-5 -47 -10 -27 -8 -39 -17 -43 -36 -5 -19 -11 -24 -26 -19 -15 5 -22 0 -29
-17 -9 -23 -9 -23 -16 6 -5 17 -3 36 3 47 7 10 8 21 3 24 -5 3 -7 14 -4 25 3
11 9 17 13 15 5 -3 26 -1 48 3 35 8 39 7 35 -9 -4 -14 -1 -17 19 -12 12 4 37
14 53 24 48 28 62 23 30 -11z m-1410 10 c-3 -5 -12 -10 -20 -10 -8 0 -17 5
-20 10 -4 6 5 10 20 10 15 0 24 -4 20 -10z m397 -52 c-9 -9 -15 -9 -24 0 -9 9
-7 12 12 12 19 0 21 -3 12 -12z m258 8 c0 -3 -4 -8 -10 -11 -5 -3 -10 -1 -10
4 0 6 5 11 10 11 6 0 10 -2 10 -4z m821 -15 c-9 -6 -15 -27 -15 -51 l-1 -42
-41 -3 c-52 -3 -72 -13 -53 -27 12 -8 11 -9 0 -6 -8 3 -16 9 -18 15 -4 12 113
123 130 123 8 0 7 -4 -2 -9z m-1516 -31 c4 -6 -7 -10 -24 -10 -17 0 -31 5 -31
10 0 6 11 10 24 10 14 0 28 -4 31 -10z m718 -10 c16 -19 16 -20 -13 -20 -30 0
-46 13 -35 30 10 16 29 12 48 -10z m53 -5 c-3 -9 -11 -13 -16 -10 -8 5 -7 11
1 21 14 18 24 11 15 -11z m-116 6 c0 -12 -20 -25 -27 -18 -7 7 6 27 18 27 5 0
9 -4 9 -9z m-452 -16 c-5 -15 -37 -13 -43 2 -3 10 2 13 20 11 14 -2 24 -7 23
-13z m182 -7 c0 -6 -6 -5 -15 2 -8 7 -15 14 -15 16 0 2 7 1 15 -2 8 -4 15 -11
15 -16z m533 -1 c21 -8 23 -27 1 -27 -21 0 -47 27 -38 41 4 7 9 7 13 2 3 -5
14 -12 24 -16z m-99 4 c3 -5 -1 -11 -9 -15 -9 -3 -15 0 -15 9 0 16 16 20 24 6z
m591 0 c3 -5 1 -12 -5 -16 -5 -3 -10 1 -10 9 0 18 6 21 15 7z m-925 -11 c0 -5
-4 -10 -10 -10 -5 0 -10 5 -10 10 0 6 5 10 10 10 6 0 10 -4 10 -10z m90 -15
c0 -8 -2 -15 -4 -15 -2 0 -6 7 -10 15 -3 8 -1 15 4 15 6 0 10 -7 10 -15z m60
-6 c0 -5 -4 -9 -10 -9 -5 0 -10 7 -10 16 0 8 5 12 10 9 6 -3 10 -10 10 -16z
m68 -11 c5 -25 -30 -23 -46 3 -12 19 -11 20 15 17 17 -2 29 -10 31 -20z m160
-14 c-2 -1 -15 0 -31 3 -22 4 -25 8 -16 19 10 12 15 12 30 -2 11 -10 18 -18
17 -20z m-578 11 c0 -8 -4 -15 -10 -15 -5 0 -10 7 -10 15 0 8 5 15 10 15 6 0
10 -7 10 -15z m-323 -17 c-3 -8 -6 -5 -6 6 -1 11 2 17 5 13 3 -3 4 -12 1 -19z
m233 -23 c0 -23 -5 -35 -14 -35 -13 0 -13 15 0 58 7 23 14 12 14 -23z m1175 5
c3 -5 1 -10 -4 -10 -6 0 -11 5 -11 10 0 6 2 10 4 10 3 0 8 -4 11 -10z m65 0
c0 -5 -5 -10 -11 -10 -5 0 -7 5 -4 10 3 6 8 10 11 10 2 0 4 -4 4 -10z m-1034
-27 c-10 -10 -19 5 -10 18 6 11 8 11 12 0 2 -7 1 -15 -2 -18z m664 18 c0 -5
-11 -11 -25 -13 -14 -3 -25 -2 -25 3 0 4 10 10 23 12 12 2 23 5 25 6 1 0 2 -3
2 -8z m-956 -35 c-3 -14 -10 -26 -14 -26 -5 0 -3 13 3 30 13 35 21 33 11 -4z
m479 -8 c-9 -21 -10 -20 -11 11 0 25 2 31 10 23 8 -8 8 -18 1 -34z m-510 12
c-3 -11 -10 -23 -16 -27 -7 -4 -8 0 -4 11 4 10 7 22 7 27 0 5 4 9 9 9 5 0 7
-9 4 -20z m217 -1 c0 -5 -4 -9 -10 -9 -5 0 -10 7 -10 16 0 8 5 12 10 9 6 -3
10 -10 10 -16z m461 -12 c-8 -8 -11 -7 -11 4 0 20 13 34 18 19 3 -7 -1 -17 -7
-23z m614 15 c0 -6 -3 -11 -6 -9 -3 1 -14 -5 -25 -13 -17 -14 -18 -14 -6 2 8
9 11 22 7 29 -5 7 -1 10 11 7 11 -2 19 -9 19 -16z m-882 -24 c-8 -46 -13 -48
-13 -5 0 21 4 37 10 37 5 0 7 -14 3 -32z m598 19 c-6 -8 -8 -16 -6 -19 3 -3
-5 -12 -19 -21 -31 -21 -39 -12 -20 24 9 18 23 29 35 29 17 0 19 -3 10 -13z
m-141 -11 c0 -3 -4 -8 -10 -11 -5 -3 -10 -1 -10 4 0 6 5 11 10 11 6 0 10 -2
10 -4z m487 -18 c-3 -8 -6 -5 -6 6 -1 11 2 17 5 13 3 -3 4 -12 1 -19z m-1147
2 c0 -5 -4 -10 -10 -10 -5 0 -10 5 -10 10 0 6 5 10 10 10 6 0 10 -4 10 -10z
m21 -13 c-10 -9 -11 -8 -5 6 3 10 9 15 12 12 3 -3 0 -11 -7 -18z m359 8 c0 -8
-4 -15 -10 -15 -5 0 -10 7 -10 15 0 8 5 15 10 15 6 0 10 -7 10 -15z m-440 1
c0 -3 -4 -8 -10 -11 -5 -3 -10 -1 -10 4 0 6 5 11 10 11 6 0 10 -2 10 -4z m175
-17 c-10 -15 -25 -10 -19 6 4 8 10 12 15 9 5 -3 7 -10 4 -15z m468 -6 c-5 -12
-3 -14 8 -8 12 8 12 6 0 -8 -10 -13 -17 -14 -27 -6 -15 13 -8 39 12 39 8 0 11
-6 7 -17z m457 -19 c0 -8 -4 -14 -10 -14 -5 0 -10 2 -10 4 0 2 -3 12 -6 20 -5
12 -2 15 10 10 9 -3 16 -12 16 -20z m-1145 6 c3 -5 -1 -10 -10 -10 -9 0 -13 5
-10 10 3 6 8 10 10 10 2 0 7 -4 10 -10z m53 -9 c3 -8 -1 -12 -9 -9 -7 2 -15
10 -17 17 -3 8 1 12 9 9 7 -2 15 -10 17 -17z m172 5 c0 -3 -4 -8 -10 -11 -5
-3 -10 -1 -10 4 0 6 5 11 10 11 6 0 10 -2 10 -4z m667 -2 c-3 -3 -12 -4 -19
-1 -8 3 -5 6 6 6 11 1 17 -2 13 -5z m-489 -15 c-2 -6 -8 -10 -13 -10 -5 0 -11
4 -13 10 -2 6 4 11 13 11 9 0 15 -5 13 -11z m492 -29 c0 -5 -13 -10 -30 -10
-16 0 -30 5 -30 10 0 6 14 10 30 10 17 0 30 -4 30 -10z m-480 -30 c-6 -11 -15
-20 -20 -20 -16 0 -11 18 8 29 24 14 24 14 12 -9z m304 11 c3 -5 -4 -12 -17
-15 l-22 -6 23 -18 c22 -17 22 -17 2 -30 -11 -7 -20 -22 -20 -34 0 -12 -3 -18
-7 -14 -10 9 -4 86 8 108 10 19 25 23 33 9z m236 4 c0 -7 -30 -13 -34 -7 -3 4
4 9 15 9 10 1 19 0 19 -2z m-730 -15 c0 -5 -4 -10 -10 -10 -5 0 -10 5 -10 10
0 6 5 10 10 10 6 0 10 -4 10 -10z m-395 -18 c-11 -11 -32 -10 -32 3 0 7 8 10
19 7 10 -2 16 -7 13 -10z m-51 -8 c5 -14 4 -15 -9 -4 -17 14 -19 20 -6 20 5 0
12 -7 15 -16z m268 -6 c-10 -10 -44 0 -37 12 3 5 14 6 26 3 12 -3 17 -9 11
-15z m858 12 c0 -5 -14 -10 -31 -10 -17 0 -28 4 -24 10 3 6 17 10 31 10 13 0
24 -4 24 -10z m-960 -10 c0 -5 -4 -10 -10 -10 -5 0 -10 5 -10 10 0 6 5 10 10
10 6 0 10 -4 10 -10z m55 -18 c-6 -7 -34 11 -29 19 3 5 11 3 19 -4 7 -6 12
-13 10 -15z m232 12 c-3 -3 -12 -4 -19 -1 -8 3 -5 6 6 6 11 1 17 -2 13 -5z
m365 -16 c-7 -7 -12 -8 -12 -2 0 14 12 26 19 19 2 -3 -1 -11 -7 -17z m-687 -8
c3 -5 -1 -10 -9 -10 -9 0 -16 5 -16 10 0 6 4 10 9 10 6 0 13 -4 16 -10z m215
-11 c0 -6 -4 -8 -9 -4 -6 3 -14 -3 -20 -12 -9 -16 -10 -16 -11 4 0 12 6 23 13
26 15 5 27 -1 27 -14z m211 8 c-1 -12 -15 -9 -19 4 -3 6 1 10 8 8 6 -3 11 -8
11 -12z m384 -17 c-3 -5 -10 -10 -16 -10 -5 0 -9 5 -9 10 0 6 7 10 16 10 8 0
12 -4 9 -10z m-895 -50 c-13 -9 -13 -11 0 -19 18 -12 8 -24 -13 -15 -13 5 -14
10 -6 25 5 10 15 19 22 19 8 0 6 -4 -3 -10z m220 1 c0 -5 -6 -12 -12 -14 -10
-4 -9 -8 2 -16 12 -9 11 -11 -7 -11 -26 0 -27 3 -13 31 11 20 30 26 30 10z
m179 -17 c-14 -18 -24 -11 -15 11 3 9 11 13 16 10 8 -5 7 -11 -1 -21z m-449 0
c0 -8 -5 -12 -10 -9 -6 4 -8 11 -5 16 9 14 15 11 15 -7z m1050 0 c0 -8 -4 -12
-10 -9 -5 3 -10 10 -10 16 0 5 5 9 10 9 6 0 10 -7 10 -16z m675 -4 c21 -23 9
-45 -30 -53 -23 -4 -25 -1 -25 29 0 28 9 40 31 43 3 1 14 -8 24 -19z m-1558
-22 c-3 -8 -6 -5 -6 6 -1 11 2 17 5 13 3 -3 4 -12 1 -19z m483 12 c0 -5 -5
-10 -11 -10 -5 0 -7 5 -4 10 3 6 8 10 11 10 2 0 4 -4 4 -10z m-440 -4 c0 -3
-4 -8 -10 -11 -5 -3 -10 -1 -10 4 0 6 5 11 10 11 6 0 10 -2 10 -4z m634 -17
c-3 -5 -10 -7 -15 -3 -5 3 -7 10 -3 15 3 5 10 7 15 3 5 -3 7 -10 3 -15z m237
-32 c9 -17 8 -17 -10 -7 -12 6 -21 21 -21 33 0 23 5 19 31 -26z m-561 29 c0
-2 -7 -9 -15 -16 -12 -10 -15 -10 -15 4 0 9 7 16 15 16 8 0 15 -2 15 -4z
m-281 -20 c9 -11 7 -15 -8 -19 -22 -5 -31 0 -31 20 0 17 24 17 39 -1z m174
-26 c14 0 30 -7 37 -15 11 -13 8 -15 -18 -15 -17 0 -37 -3 -46 -6 -13 -5 -16
2 -15 37 0 37 2 40 9 22 6 -15 18 -23 33 -23z m1483 5 c24 -19 31 -30 27 -47
-5 -17 -3 -20 11 -15 9 4 14 3 11 -2 -3 -5 -1 -13 5 -16 8 -5 8 -11 0 -20 -8
-9 -8 -15 0 -20 5 -3 10 -2 10 3 0 6 7 12 14 15 27 10 7 -17 -30 -43 -47 -31
-62 -63 -43 -87 13 -16 12 -17 -3 -4 -10 7 -18 19 -18 27 0 7 -8 29 -17 49
-14 29 -25 38 -60 47 -59 15 -56 33 5 24 89 -13 97 -13 100 10 2 16 -7 27 -33
43 -20 11 -43 21 -52 21 -14 0 -14 3 3 19 25 26 31 26 70 -4z m-1770 -35 c8 0
14 -6 14 -14 0 -8 -8 -12 -23 -9 -20 4 -22 9 -18 41 5 33 6 34 9 10 2 -16 10
-28 18 -28z m454 8 c0 -10 -4 -18 -10 -18 -5 0 -10 15 -10 33 0 24 3 28 10 17
5 -8 10 -23 10 -32z m361 -61 c-8 -8 -11 4 -11 39 0 66 14 80 18 19 2 -26 -2
-53 -7 -58z m-148 79 c4 -10 -4 -15 -24 -18 -23 -4 -29 -1 -29 14 0 22 45 26
53 4z m107 -12 c0 -8 -4 -12 -10 -9 -5 3 -10 13 -10 21 0 8 5 12 10 9 6 -3 10
-13 10 -21z m1131 6 c-31 -26 -51 -26 -21 0 13 11 28 20 34 20 6 -1 0 -10 -13
-20z m-1961 -11 c9 -6 0 -7 -25 -3 -22 4 -47 11 -55 15 -9 6 0 7 25 3 22 -4
47 -11 55 -15z m243 -14 c-7 -21 -13 -19 -13 6 0 11 4 18 10 14 5 -3 7 -12 3
-20z m209 -14 c-5 -3 -8 -19 -8 -36 1 -20 -4 -30 -14 -30 -8 0 -13 7 -11 15 2
8 5 26 6 40 3 41 4 43 20 30 9 -7 12 -16 7 -19z m168 16 c0 -8 -7 -14 -15 -14
-25 0 -17 17 13 26 1 1 2 -5 2 -12z m190 -17 c0 -5 -2 -10 -4 -10 -3 0 -8 5
-11 10 -3 6 -1 10 4 10 6 0 11 -4 11 -10z m-300 -20 c0 -5 -4 -10 -10 -10 -5
0 -10 5 -10 10 0 6 5 10 10 10 6 0 10 -4 10 -10z m30 -25 c12 7 23 -13 14 -27
-10 -15 -34 19 -33 46 2 19 2 19 6 -2 2 -12 8 -20 13 -17z m-260 15 c0 -5 -7
-10 -15 -10 -8 0 -15 5 -15 10 0 6 7 10 15 10 8 0 15 -4 15 -10z m734 -15 c3
-8 1 -15 -4 -15 -10 0 -8 -65 3 -76 12 -12 8 -34 -6 -34 -8 0 -21 8 -30 18
-14 16 -15 23 -4 53 6 19 16 37 21 40 5 4 5 12 2 18 -4 6 -3 11 2 11 6 0 12
-7 16 -15z m-758 -8 c7 -7 -8 -37 -18 -37 -5 0 -7 4 -3 9 3 5 -4 12 -15 16
-29 9 -24 26 6 21 15 -3 28 -7 30 -9z m629 -7 c3 -5 1 -10 -5 -10 -9 0 -9 -13
3 -73 1 -7 -8 -11 -21 -9 -13 2 -25 -3 -28 -13 -5 -13 -9 -14 -15 -4 -5 8 -2
20 6 30 13 14 12 15 -15 11 -17 -2 -30 -8 -30 -13 0 -5 -6 -9 -14 -9 -8 0 -17
-8 -19 -17 -3 -11 -5 -7 -6 10 -1 21 4 27 19 27 11 0 20 6 20 14 0 9 10 13 29
12 16 -1 29 0 28 3 -2 11 24 51 33 51 5 0 12 -4 15 -10z m-205 -15 c0 -8 -7
-15 -15 -15 -16 0 -20 12 -8 23 11 12 23 8 23 -8z m-330 -25 c-13 -8 -12 -10
3 -10 9 0 17 -4 17 -10 0 -14 -23 -13 -38 2 -8 8 -8 17 -1 31 8 14 14 16 22 8
9 -9 8 -14 -3 -21z m177 -2 c-3 -8 -6 -5 -6 6 -1 11 2 17 5 13 3 -3 4 -12 1
-19z m-67 -20 c0 -13 -32 -6 -37 9 -3 7 3 9 16 6 12 -3 21 -10 21 -15z m269
-5 c2 -2 -3 -3 -11 -3 -9 0 -19 7 -22 16 -6 15 -4 15 11 3 10 -7 20 -15 22
-16z m-49 2 c10 -12 10 -19 2 -27 -7 -7 -12 -20 -12 -30 0 -33 -17 -19 -23 19
-9 52 7 70 33 38z m-174 -27 c-9 -5 -16 -16 -16 -25 0 -12 -3 -14 -11 -6 -16
16 6 54 27 46 15 -5 15 -7 0 -15z m71 -15 c-3 -10 -5 -4 -5 12 0 17 2 24 5 18
2 -7 2 -21 0 -30z m-146 11 c11 -14 10 -16 -11 -12 -16 2 -24 -2 -22 -9 1 -7
-2 -13 -8 -13 -11 0 -13 11 -4 34 8 20 28 20 45 0z m568 -35 c8 -14 9 -25 3
-31 -6 -6 -15 2 -26 23 -19 39 -19 40 -3 33 7 -2 18 -14 26 -25z m-1005 6 c3
-9 0 -15 -9 -15 -8 0 -15 7 -15 15 0 8 4 15 9 15 5 0 11 -7 15 -15z m556 -14
c0 -6 -4 -13 -10 -16 -5 -3 -10 1 -10 9 0 9 5 16 10 16 6 0 10 -4 10 -9z
m-134 -58 c-5 -5 -60 20 -68 32 -17 23 -6 22 32 -2 22 -15 38 -28 36 -30z
m-249 11 c-6 -32 10 -41 29 -18 15 18 15 18 11 -3 -3 -13 1 -24 9 -27 8 -3 13
-16 13 -28 -1 -17 -2 -18 -6 -5 -2 9 -8 17 -11 17 -15 -1 -42 -28 -42 -41 0
-8 -9 -20 -20 -27 -12 -7 -20 -8 -20 -2 0 5 3 10 8 10 7 0 16 76 15 132 0 15
4 25 9 22 6 -4 8 -17 5 -30z m1325 -21 l-10 -38 -1 50 c-1 36 2 46 10 38 8 -8
8 -22 1 -50z m-1390 -28 c19 -22 23 -45 8 -45 -5 0 -10 6 -10 13 0 7 -13 26
-30 42 -16 16 -30 33 -30 38 0 11 33 -15 62 -48z m448 -9 c-7 -7 -10 4 -9 30
1 39 1 39 10 9 5 -18 5 -33 -1 -39z m233 43 c6 -23 0 -29 -35 -29 -23 0 -28 4
-28 23 0 19 5 24 29 24 20 0 31 -6 34 -18z m127 12 c0 -6 -4 -13 -10 -16 -5
-3 -10 1 -10 9 0 9 5 16 10 16 6 0 10 -4 10 -9z m-554 -28 c-10 -10 -19 5 -10
18 6 11 8 11 12 0 2 -7 1 -15 -2 -18z m504 8 c0 -4 -7 -8 -15 -8 -8 0 -15 6
-15 13 0 8 6 11 15 8 8 -4 15 -9 15 -13z m-210 -1 c13 -7 21 -7 25 0 10 16 27
11 23 -7 -4 -21 -58 -29 -69 -11 -18 28 -10 34 21 18z m-600 -21 c0 -5 -4 -9
-10 -9 -5 0 -10 7 -10 16 0 8 5 12 10 9 6 -3 10 -10 10 -16z m209 -21 c1 -5
-3 -8 -7 -8 -4 0 -8 12 -9 28 -1 23 -1 24 7 7 5 -11 9 -23 9 -27z m244 28 c20
0 23 -29 5 -43 -7 -6 -25 -13 -40 -17 -21 -5 -28 -3 -28 8 0 8 6 17 13 20 10
5 10 7 0 12 -7 3 -13 12 -13 21 0 10 6 12 23 7 12 -4 30 -8 40 -8z m1180 -2
c-7 -20 -29 -23 -29 -5 0 9 8 17 17 17 9 0 15 -6 12 -12z m-1752 -17 c-10 -9
-11 -8 -5 6 3 10 9 15 12 12 3 -3 0 -11 -7 -18z m1073 -35 c-20 -5 -21 -3 -29
33 l-6 30 25 -30 c21 -25 23 -31 10 -33z m-624 25 c0 -14 -35 -47 -50 -47 -6
0 -10 5 -10 10 0 6 5 10 10 10 6 0 10 6 10 14 0 13 13 23 33 25 4 1 7 -5 7
-12z m463 -12 c-7 -21 -13 -19 -13 6 0 11 4 18 10 14 5 -3 7 -12 3 -20z m-400
-65 c-3 -11 -7 -20 -9 -20 -2 0 -4 9 -4 20 0 11 4 20 9 20 5 0 7 -9 4 -20z
m372 -10 c-5 -8 -11 -8 -17 -2 -6 6 -7 16 -3 22 5 8 11 8 17 2 6 -6 7 -16 3
-22z m-119 -18 c-22 -5 -30 3 -21 18 5 8 11 7 22 -2 15 -12 14 -13 -1 -16z
m-449 -8 c-3 -3 -12 -4 -19 -1 -8 3 -5 6 6 6 11 1 17 -2 13 -5z m598 -4 c3 -5
1 -10 -4 -10 -6 0 -11 5 -11 10 0 6 2 10 4 10 3 0 8 -4 11 -10z m-725 -10 c0
-5 -5 -10 -11 -10 -5 0 -7 5 -4 10 3 6 8 10 11 10 2 0 4 -4 4 -10z m270 0 c0
-5 -5 -10 -11 -10 -8 0 -8 -5 1 -15 10 -12 10 -15 -4 -15 -17 0 -20 9 -10 34
7 18 24 22 24 6z m317 -5 c0 -8 -4 -15 -8 -15 -11 0 -20 16 -12 24 11 11 20 7
20 -9z m-547 -5 c0 -5 -4 -10 -10 -10 -5 0 -10 5 -10 10 0 6 5 10 10 10 6 0
10 -4 10 -10z m370 -11 c0 -6 -4 -7 -10 -4 -5 3 -10 11 -10 16 0 6 5 7 10 4 6
-3 10 -11 10 -16z m288 -29 c-1 -33 -23 -41 -31 -11 -4 18 9 41 24 41 4 0 7
-13 7 -30z m52 20 c0 -5 -7 -10 -16 -10 -8 0 -12 5 -9 10 3 6 10 10 16 10 5 0
9 -4 9 -10z m637 -42 c-2 -13 -4 -5 -4 17 -1 22 1 32 4 23 2 -10 2 -28 0 -40z
m-747 32 c0 -5 -4 -10 -10 -10 -5 0 -10 5 -10 10 0 6 5 10 10 10 6 0 10 -4 10
-10z m-560 -22 c0 -6 -7 -7 -16 -4 -9 3 -18 6 -20 6 -3 0 -3 4 1 10 7 11 35 2
35 -12z m-212 -19 c-15 -10 -35 -1 -35 15 0 10 6 10 23 2 14 -7 18 -13 12 -17z
m279 -5 c-3 -3 -12 -4 -19 -1 -8 3 -5 6 6 6 11 1 17 -2 13 -5z m-192 -23 c3
-6 -4 -9 -15 -8 -11 1 -20 5 -20 9 0 11 28 10 35 -1z m1030 -16 c0 -28 -29
-25 -33 3 -3 19 0 23 15 20 10 -2 18 -12 18 -23z m-585 -5 c0 -5 -2 -10 -4
-10 -3 0 -8 5 -11 10 -3 6 -1 10 4 10 6 0 11 -4 11 -10z m1007 -12 c-3 -8 -6
-5 -6 6 -1 11 2 17 5 13 3 -3 4 -12 1 -19z m-1127 2 c0 -5 -7 -7 -15 -4 -8 4
-15 8 -15 10 0 2 7 4 15 4 8 0 15 -4 15 -10z m-190 -20 c0 -5 -7 -7 -15 -4 -8
4 -15 8 -15 10 0 2 7 4 15 4 8 0 15 -4 15 -10z m470 -10 c0 -5 -2 -10 -4 -10
-3 0 -8 5 -11 10 -3 6 -1 10 4 10 6 0 11 -4 11 -10z m-560 -10 c0 -5 -2 -10
-4 -10 -3 0 -8 5 -11 10 -3 6 -1 10 4 10 6 0 11 -4 11 -10z m382 -5 c0 -5 -5
-11 -11 -13 -6 -2 -11 4 -11 13 0 9 5 15 11 13 6 -2 11 -8 11 -13z m398 -5 c0
-5 -4 -10 -10 -10 -5 0 -10 5 -10 10 0 6 5 10 10 10 6 0 10 -4 10 -10z m-426
-15 c3 -8 1 -15 -4 -15 -6 0 -10 7 -10 15 0 8 2 15 4 15 2 0 6 -7 10 -15z
m-330 -11 c10 -25 -1 -29 -14 -5 -6 12 -7 21 -1 21 5 0 12 -7 15 -16z m419
-14 c3 -11 1 -23 -4 -26 -5 -3 -9 6 -9 20 0 31 6 34 13 6z m168 7 c-1 -12 -15
-9 -19 4 -3 6 1 10 8 8 6 -3 11 -8 11 -12z m136 -13 c-9 -9 -28 6 -21 18 4 6
10 6 17 -1 6 -6 8 -13 4 -17z m-917 -14 c0 -5 -7 -10 -15 -10 -8 0 -15 5 -15
10 0 6 7 10 15 10 8 0 15 -4 15 -10z m431 0 c8 12 10 12 7 -5 -5 -30 -38 -32
-38 -3 0 19 2 20 10 8 9 -13 11 -13 21 0z m119 -26 c0 -8 -4 -12 -10 -9 -5 3
-10 13 -10 21 0 8 5 12 10 9 6 -3 10 -13 10 -21z m180 10 c0 -8 -4 -12 -10 -9
-5 3 -10 10 -10 16 0 5 5 9 10 9 6 0 10 -7 10 -16z m250 -5 c0 -5 -4 -9 -10
-9 -5 0 -10 7 -10 16 0 8 5 12 10 9 6 -3 10 -10 10 -16z m-884 -65 c6 -47 -10
-27 -21 26 -5 26 -4 32 4 24 7 -6 14 -28 17 -50z m254 37 c0 -6 -4 -13 -10
-16 -5 -3 -10 1 -10 9 0 9 5 16 10 16 6 0 10 -4 10 -9z m700 -32 c0 -14 -17
-10 -23 5 -4 10 -1 13 9 9 7 -3 14 -9 14 -14z m-735 -59 c-3 -5 -12 -7 -20 -3
-21 7 -19 13 6 13 11 0 18 -4 14 -10z m-125 -11 c0 -5 -4 -9 -10 -9 -5 0 -7
-7 -4 -15 4 -8 2 -15 -3 -15 -9 0 -34 36 -28 42 8 8 45 6 45 -3z m190 5 c0 -3
-6 -12 -14 -19 -17 -17 -30 -7 -15 12 12 13 29 18 29 7z m-260 -14 c0 -5 -10
-10 -22 -10 -19 0 -20 2 -8 10 19 13 30 13 30 0z m146 -6 c-4 -9 -2 -22 4 -29
8 -10 4 -14 -14 -19 -18 -4 -24 -11 -19 -22 4 -11 2 -15 -7 -12 -23 7 -22 26
0 33 13 4 19 12 16 21 -3 8 0 21 7 29 16 19 20 18 13 -1z m-196 -24 c0 -5 -4
-10 -10 -10 -5 0 -10 5 -10 10 0 6 5 10 10 10 6 0 10 -4 10 -10z m85 -10 c3
-5 1 -10 -4 -10 -6 0 -11 5 -11 10 0 6 2 10 4 10 3 0 8 -4 11 -10z m275 -11
c0 -5 -7 -9 -15 -9 -15 0 -20 12 -9 23 8 8 24 -1 24 -14z m-460 7 c0 -3 -4 -8
-10 -11 -5 -3 -10 -1 -10 4 0 6 5 11 10 11 6 0 10 -2 10 -4z m96 -21 c10 -8
14 -15 8 -15 -5 0 -19 7 -30 15 -10 8 -14 15 -8 15 5 0 19 -7 30 -15z m272 -2
c5 -18 -10 -16 -34 2 -18 15 -18 15 5 13 14 -2 26 -9 29 -15z m-208 -28 c14
-16 10 -18 -14 -9 -9 3 -16 10 -16 15 0 14 16 11 30 -6z m874 -10 c16 -12 17
-15 4 -15 -8 0 -21 7 -28 15 -16 19 -1 19 24 0z m615 -29 c-9 -8 -10 -7 -5 7
3 10 7 24 7 30 1 7 3 4 6 -7 3 -10 -1 -23 -8 -30z m-1592 17 c3 -7 -3 -9 -16
-6 -12 3 -21 10 -21 15 0 13 32 6 37 -9z m603 7 c0 -5 -9 -10 -21 -10 -11 0
-17 5 -14 10 3 6 13 10 21 10 8 0 14 -4 14 -10z m-170 -28 c0 -13 -12 -22 -22
-16 -10 6 -1 24 13 24 5 0 9 -4 9 -8z m160 -28 c0 -8 -4 -14 -10 -14 -5 0 -10
9 -10 21 0 11 5 17 10 14 6 -3 10 -13 10 -21z m75 17 c3 -5 1 -12 -5 -16 -5
-3 -10 1 -10 9 0 18 6 21 15 7z m473 1 c-2 -4 9 -20 25 -35 25 -25 36 -57 21
-57 -4 0 -29 14 -56 30 -27 17 -54 27 -61 24 -8 -5 -8 -2 1 7 10 11 16 11 32
1 12 -7 21 -8 25 -2 4 6 -2 13 -11 17 -16 6 -16 7 2 14 10 4 20 8 22 8 1 1 1
-3 0 -7z m-888 -33 c0 -5 -7 -9 -15 -9 -9 0 -12 6 -9 15 6 15 24 11 24 -6z
m144 -14 c3 -8 1 -15 -4 -15 -6 0 -10 7 -10 15 0 8 2 15 4 15 2 0 6 -7 10 -15z
m886 -1 c0 -8 -5 -12 -10 -9 -6 4 -8 11 -5 16 9 14 15 11 15 -7z m-993 -36
c-3 -8 -6 -5 -6 6 -1 11 2 17 5 13 3 -3 4 -12 1 -19z m-87 2 c0 -5 -2 -10 -4
-10 -3 0 -8 5 -11 10 -3 6 -1 10 4 10 6 0 11 -4 11 -10z m-115 -29 c3 -5 1
-12 -5 -16 -5 -3 -10 1 -10 9 0 18 6 21 15 7z m715 -11 c0 -5 -7 -10 -15 -10
-8 0 -15 5 -15 10 0 6 7 10 15 10 8 0 15 -4 15 -10z m-480 -40 c0 -5 -2 -10
-4 -10 -3 0 -8 5 -11 10 -3 6 -1 10 4 10 6 0 11 -4 11 -10z m1008 -2 c-6 -18
-28 -21 -28 -4 0 9 7 16 16 16 9 0 14 -5 12 -12z m226 -43 c3 -8 1 -15 -4 -15
-6 0 -10 7 -10 15 0 8 2 15 4 15 2 0 6 -7 10 -15z m-1239 -15 c3 -5 1 -10 -4
-10 -6 0 -11 5 -11 10 0 6 2 10 4 10 3 0 8 -4 11 -10z"/>
<path d="M1351 1824 c0 -11 3 -14 6 -6 3 7 2 16 -1 19 -3 4 -6 -2 -5 -13z"/>
<path d="M1959 1178 c-7 -18 -15 -37 -17 -43 -3 -5 4 -2 14 7 11 9 21 29 22
43 3 34 -3 32 -19 -7z"/>
<path d="M1500 1460 c-8 -5 -12 -12 -9 -15 4 -3 12 1 19 10 14 17 11 19 -10 5z"/>
<path d="M1450 924 c0 -482 -4 -557 -32 -589 -4 -5 -8 2 -8 17 0 15 -3 33 -6
42 -4 10 -1 16 9 16 15 0 32 29 22 38 -3 3 -5 1 -5 -3 0 -5 -7 0 -15 11 -9 12
-14 14 -15 6 0 -7 -5 -10 -12 -6 -8 5 -9 0 -5 -17 4 -13 7 -63 7 -110 0 -68 4
-92 18 -108 21 -26 65 -36 94 -20 18 10 20 18 16 73 -3 33 -3 51 -1 38 2 -12
9 -20 14 -17 5 4 9 -7 9 -24 0 -35 9 -61 21 -61 5 0 7 51 5 117 -2 65 -5 319
-5 566 -1 246 -4 447 -9 447 -4 0 -8 -145 -9 -322 -2 -444 -4 -533 -13 -483
-6 33 -8 25 -10 -45 -6 -192 -18 24 -25 473 -8 435 -9 457 -27 457 -17 0 -18
-20 -18 -496z"/>
<path d="M1540 1369 c0 -11 5 -17 10 -14 6 3 10 13 10 21 0 8 -4 14 -10 14 -5
0 -10 -9 -10 -21z"/>
<path d="M2185 1260 c-10 -11 -16 -22 -14 -24 2 -2 12 7 22 20 22 29 17 32 -8
4z"/>
<path d="M0 1125 c0 -20 5 -25 26 -25 22 0 24 2 14 15 -6 8 -9 19 -5 25 3 6
-3 10 -14 10 -16 0 -21 -6 -21 -25z"/>
<path d="M2079 1123 c-13 -16 -12 -17 4 -4 16 13 21 21 13 21 -2 0 -10 -8 -17
-17z"/>
<path d="M2055 1089 c-4 -6 -5 -12 -2 -15 2 -3 7 2 10 11 7 17 1 20 -8 4z"/>
<path d="M2009 1023 c-13 -16 -12 -17 4 -4 16 13 21 21 13 21 -2 0 -10 -8 -17
-17z"/>
<path d="M2235 810 c3 -5 8 -10 11 -10 2 0 4 5 4 10 0 6 -5 10 -11 10 -5 0 -7
-4 -4 -10z"/>
<path d="M2210 790 c0 -5 5 -10 10 -10 6 0 10 5 10 10 0 6 -4 10 -10 10 -5 0
-10 -4 -10 -10z"/>
<path d="M1910 771 c0 -6 4 -13 10 -16 6 -3 7 1 4 9 -7 18 -14 21 -14 7z"/>
<path d="M1390 648 c0 -30 1 -31 15 -12 19 25 19 44 0 44 -10 0 -15 -10 -15
-32z"/>
<path d="M1391 584 c0 -11 3 -14 6 -6 3 7 2 16 -1 19 -3 4 -6 -2 -5 -13z"/>
<path d="M2195 590 c-3 -5 1 -10 9 -10 9 0 16 5 16 10 0 6 -4 10 -9 10 -6 0
-13 -4 -16 -10z"/>
<path d="M1392 505 c0 -16 2 -22 5 -12 2 9 2 23 0 30 -3 6 -5 -1 -5 -18z"/>
<path d="M578 459 c-21 -11 -38 -22 -38 -24 0 -3 17 3 38 13 20 11 44 22 52
25 13 5 13 5 0 6 -8 0 -32 -9 -52 -20z"/>
<path d="M657 459 c7 -7 15 -10 18 -7 3 3 -2 9 -12 12 -14 6 -15 5 -6 -5z"/>
<path d="M2210 370 c0 -5 5 -10 10 -10 6 0 10 5 10 10 0 6 -4 10 -10 10 -5 0
-10 -4 -10 -10z"/>
<path d="M2236 364 c-4 -11 -14 -15 -31 -12 -33 7 -32 -3 5 -30 l30 -22 -1 22
c-1 13 2 31 6 41 4 9 5 17 2 17 -3 0 -8 -7 -11 -16z"/>
<path d="M840 366 c0 -3 14 -12 30 -21 17 -9 30 -13 30 -11 0 3 -13 12 -30 21
-16 9 -30 13 -30 11z"/>
<path d="M2081 282 c30 -42 110 -105 120 -95 7 7 -7 23 -43 49 -29 22 -62 45
-72 53 -19 14 -19 14 -5 -7z"/>
<path d="M2190 246 c0 -2 7 -7 16 -10 8 -3 12 -2 9 4 -6 10 -25 14 -25 6z"/>
<path d="M2127 158 c18 -18 36 -28 40 -24 4 5 3 11 -4 13 -6 2 -21 13 -34 24
-35 31 -37 22 -2 -13z"/>
<path d="M1981 116 c0 -43 2 -47 10 -27 5 14 7 31 4 38 -2 8 0 11 5 8 6 -3 10
2 10 13 0 10 -7 19 -15 19 -11 0 -15 -12 -14 -51z"/>
<path d="M1272 100 c0 -14 2 -19 5 -12 2 6 2 18 0 25 -3 6 -5 1 -5 -13z"/>
<path d="M1911 64 c0 -11 3 -14 6 -6 3 7 2 16 -1 19 -3 4 -6 -2 -5 -13z"/>
<path d="M1892 20 c0 -14 2 -19 5 -12 2 6 2 18 0 25 -3 6 -5 1 -5 -13z"/>
</g>
</svg>
