<?xml version="1.0" standalone="no"?>
<!DOCTYPE svg PUBLIC "-//W3C//DTD SVG 20010904//EN"
 "http://www.w3.org/TR/2001/REC-SVG-20010904/DTD/svg10.dtd">
<svg version="1.0" xmlns="http://www.w3.org/2000/svg"
 width="512.000000pt" height="512.000000pt" viewBox="0 0 512.000000 512.000000"
 preserveAspectRatio="xMidYMid meet">

<g transform="translate(0.000000,512.000000) scale(0.100000,-0.100000)"
fill="#000000" stroke="none">
<path d="M865 5109 c-92 -13 -225 -54 -308 -95 -139 -68 -287 -194 -371 -318
-24 -36 -24 -39 -9 -62 19 -30 4 -54 -37 -54 -24 0 -31 -8 -54 -60 -15 -33
-39 -104 -54 -158 l-27 -97 -3 -1660 c-3 -1501 -1 -1670 14 -1760 24 -151 78
-289 154 -400 26 -37 36 -45 58 -43 27 3 29 -2 16 -35 -5 -15 8 -33 62 -84
190 -178 401 -267 667 -280 102 -6 121 -1 98 22 -6 6 -4 23 5 44 16 39 30 37
15 -2 -5 -13 -7 -34 -4 -46 l5 -21 1587 3 c1468 3 1591 4 1658 20 383 93 676
390 760 769 17 79 18 172 18 1768 0 1571 -1 1691 -18 1766 -81 379 -380 681
-763 770 -74 18 -152 19 -1195 22 l-1117 2 -6 -22 c-9 -37 -7 -66 7 -71 6 -2
9 -8 5 -12 -15 -16 -28 9 -28 56 l0 49 -47 -1 c-39 0 -44 -2 -25 -9 27 -12 36
-32 28 -66 -5 -20 -12 -25 -34 -22 -25 3 -27 7 -30 51 l-3 47 -53 0 c-51 0
-53 -1 -49 -24 4 -21 1 -25 -23 -29 -28 -4 -28 -5 -7 -12 13 -4 20 -11 17 -16
-9 -16 -23 -10 -41 17 -13 21 -14 30 -5 45 11 17 9 19 -18 19 -16 0 -30 -3
-31 -7 0 -5 -2 -16 -4 -26 -2 -10 3 -21 11 -24 20 -7 17 -25 -3 -21 -12 2 -20
15 -23 38 -4 31 -9 35 -37 38 -29 3 -33 0 -33 -22 0 -13 6 -26 13 -29 6 -2 9
-8 5 -12 -15 -16 -38 5 -38 35 0 23 -4 30 -20 30 -11 0 -20 -4 -20 -9 0 -5
-12 -12 -27 -14 -27 -4 -27 -4 -5 -12 28 -9 29 -25 1 -25 -13 0 -23 10 -30 30
-6 16 -15 27 -21 24 -5 -3 -7 -12 -4 -20 3 -7 1 -16 -4 -19 -6 -4 -10 5 -10
19 0 19 -5 26 -20 26 -13 0 -20 -7 -20 -20 0 -27 -18 -25 -23 3 -3 16 -5 14
-6 -9 -1 -37 -23 -59 -48 -49 -17 8 -17 8 0 12 20 5 23 23 3 23 -8 0 -18 9
-21 20 -4 13 -15 20 -33 20 -20 0 -23 -3 -14 -12 20 -20 14 -29 -15 -22 -36 9
-40 13 -23 24 11 7 7 10 -15 10 -17 0 -37 -6 -44 -12 -11 -10 -14 -10 -18 0
-5 14 -170 15 -268 1z m1213 -57 c-2 -19 2 -27 12 -27 9 0 16 11 18 28 2 15 8
27 14 27 6 0 8 -14 3 -37 -8 -47 -8 -47 -40 -39 -22 6 -25 12 -25 47 0 25 4
38 10 34 6 -4 9 -19 8 -33z m436 21 c-5 -10 -8 -42 -8 -72 1 -47 -1 -52 -13
-35 -23 31 -10 124 18 124 7 0 8 -6 3 -17z m-321 -11 c-12 -9 -23 -28 -26 -42
-3 -16 -5 -9 -6 18 -1 40 1 42 27 42 l27 0 -22 -18z m548 -40 c11 -7 19 -18
19 -24 0 -6 -6 -6 -15 2 -19 16 -31 5 -38 -30 -2 -14 -5 -5 -6 22 0 25 2 55 6
65 7 17 8 17 11 -2 3 -11 13 -26 23 -33z m-881 17 c0 -5 -7 -9 -15 -9 -15 0
-20 12 -9 23 8 8 24 -1 24 -14z m500 11 c8 -5 12 -11 10 -13 -8 -8 -70 5 -70
14 0 12 41 11 60 -1z m600 -10 c0 -5 -2 -10 -4 -10 -3 0 -8 5 -11 10 -3 6 -1
10 4 10 6 0 11 -4 11 -10z m-590 -30 c0 -5 -13 -10 -29 -10 -17 0 -33 5 -36
10 -4 6 8 10 29 10 20 0 36 -4 36 -10z m458 -17 c2 -15 -4 -22 -22 -25 -20 -4
-26 -1 -26 11 0 21 20 43 35 38 5 -2 11 -13 13 -24z m367 -50 c-3 -18 -11 -35
-17 -39 -8 -5 -9 0 -5 17 4 13 7 42 7 64 1 37 2 38 11 15 6 -14 8 -39 4 -57z
m-291 51 c3 -9 6 -27 6 -40 0 -19 -5 -24 -25 -24 -33 0 -36 39 -4 47 21 6 21
7 4 20 -16 11 -16 13 -3 13 9 0 19 -7 22 -16z m138 -16 c-15 -15 -26 -4 -18
18 5 13 9 15 18 6 9 -9 9 -15 0 -24z m-372 12 c0 -5 -6 -10 -14 -10 -8 0 -18
5 -21 10 -3 6 3 10 14 10 12 0 21 -4 21 -10z m455 -10 c4 -6 -5 -10 -20 -10
-15 0 -24 4 -20 10 3 6 12 10 20 10 8 0 17 -4 20 -10z m-1970 -14 c17 23 19 9
4 -35 -17 -48 -32 -42 -43 19 -7 33 -6 34 9 16 15 -20 15 -20 30 0z m83 -27
c2 -18 9 -37 15 -41 19 -12 0 -21 -28 -14 -22 6 -25 9 -15 21 8 9 10 28 6 46
-4 22 -2 29 7 27 6 -3 13 -20 15 -39z m2109 25 c8 -21 -13 -42 -28 -27 -13 13
-5 43 11 43 6 0 13 -7 17 -16z m-2001 -4 c5 -5 7 -33 4 -62 -4 -45 -8 -53 -27
-56 -13 -2 -23 1 -23 7 0 6 7 11 15 11 22 0 18 14 -7 25 -26 11 -35 49 -18 71
14 16 42 18 56 4z m248 -33 c-19 -11 -18 -46 1 -53 19 -8 19 -24 0 -24 -17 0
-39 36 -32 55 3 7 1 17 -5 23 -7 7 -6 15 3 25 12 13 16 13 30 -2 13 -13 14
-17 3 -24z m993 37 c-3 -3 -12 -4 -19 -1 -8 3 -5 6 6 6 11 1 17 -2 13 -5z
m-1149 -52 c2 -29 0 -42 -7 -37 -6 3 -11 19 -11 36 0 19 -5 29 -15 29 -10 0
-15 -10 -15 -30 0 -16 -4 -30 -10 -30 -5 0 -10 18 -10 41 0 39 1 40 33 37 30
-3 32 -5 35 -46z m242 28 c16 -16 17 -20 5 -20 -19 0 -21 -56 -2 -63 6 -2 9
-8 5 -12 -21 -22 -55 64 -40 103 6 16 9 15 32 -8z m246 -30 c18 -7 24 -17 24
-39 0 -38 -22 -56 -50 -41 -13 7 -19 17 -16 27 3 8 7 36 7 61 1 26 4 37 6 24
3 -13 15 -27 29 -32z m84 -20 c0 -37 5 -60 13 -64 6 -3 3 -5 -8 -3 -17 2 -20
11 -23 60 -2 31 -8 57 -13 57 -6 0 -8 4 -4 10 3 5 12 7 20 3 11 -4 15 -21 15
-63z m-492 48 c20 -20 14 -38 -13 -38 -31 0 -33 -17 -2 -23 19 -3 20 -4 4 -11
-10 -5 -23 -3 -32 4 -15 13 -21 61 -8 73 10 11 38 8 51 -5z m1299 6 c-3 -3
-12 -4 -19 -1 -8 3 -5 6 6 6 11 1 17 -2 13 -5z m153 -15 c0 -6 -4 -7 -10 -4
-5 3 -10 11 -10 16 0 6 5 7 10 4 6 -3 10 -11 10 -16z m-1190 -19 c14 -26 3
-43 -22 -37 -12 4 -18 1 -15 -6 2 -7 13 -10 23 -9 14 3 16 1 8 -8 -20 -20 -49
-7 -52 23 -6 50 37 77 58 37z m1848 3 c-5 -25 -28 -28 -28 -4 0 12 6 21 16 21
9 0 14 -7 12 -17z m-1366 -20 c34 -30 16 -93 -27 -93 -22 0 -25 4 -25 39 0 70
16 87 52 54z m-192 -33 c0 -20 5 -30 15 -30 10 0 15 10 15 30 0 17 5 30 11 30
6 0 9 -16 7 -37 -2 -31 -7 -39 -27 -41 -13 -2 -28 2 -32 10 -12 18 -11 68 1
68 6 0 10 -13 10 -30z m130 20 c0 -5 -7 -10 -15 -10 -8 0 -19 -15 -24 -32 l-9
-33 -1 36 c-1 20 2 39 6 42 10 11 43 8 43 -3z m296 -14 c10 -10 11 -17 3 -22
-7 -4 -9 -21 -5 -42 5 -31 3 -34 -9 -21 -7 8 -14 28 -15 44 -4 59 0 66 26 41z
m-154 -36 c3 -37 1 -40 -20 -40 -21 0 -22 2 -12 15 7 8 10 26 8 40 -3 16 -1
25 7 25 8 0 14 -17 17 -40z m78 30 c0 -5 -8 -10 -17 -10 -15 0 -13 -4 7 -20
24 -18 24 -20 8 -37 -14 -13 -20 -14 -30 -5 -9 9 -8 12 5 12 22 0 22 9 0 25
-9 7 -14 19 -10 29 7 17 37 23 37 6z m-570 -16 c0 -9 -5 -14 -12 -12 -18 6
-21 28 -4 28 9 0 16 -7 16 -16z m738 -37 c3 -33 1 -37 -21 -37 -25 0 -37 15
-30 38 3 6 14 12 26 12 22 1 22 1 2 16 l-20 16 20 -4 c15 -2 21 -12 23 -41z
m81 -11 l-1 -31 -7 29 c-8 39 -27 43 -39 9 l-10 -28 -1 32 c-1 22 4 33 17 35
26 7 42 -11 41 -46z m48 26 c-22 -24 -21 -38 1 -51 16 -10 16 -10 0 -11 -22 0
-35 45 -18 65 7 8 17 15 23 15 5 0 3 -8 -6 -18z m385 -39 c-4 -51 -22 -66 -22
-18 0 24 18 81 23 74 2 -2 1 -28 -1 -56z m-290 37 c4 -28 1 -33 -19 -36 -17
-3 -23 1 -23 14 0 10 3 22 7 25 10 10 33 8 35 -3z m168 -20 c0 -5 -13 -10 -30
-10 -16 0 -30 5 -30 10 0 6 14 10 30 10 17 0 30 -4 30 -10z m-1856 -35 c3 -8
10 -15 16 -15 5 0 10 7 10 15 0 8 5 15 10 15 14 0 13 -11 -6 -55 -17 -42 -24
-40 -40 16 -11 37 -3 57 10 24z m114 -25 c2 -19 9 -38 15 -42 19 -11 1 -19
-27 -12 -25 6 -37 24 -16 24 14 0 12 44 -2 59 -11 10 -9 12 7 9 15 -2 21 -12
23 -38z m1727 30 c4 -6 -5 -10 -19 -10 -14 0 -26 5 -26 10 0 6 9 10 19 10 11
0 23 -4 26 -10z m-1617 -53 c2 -27 -2 -55 -9 -63 -13 -16 -39 -19 -39 -4 0 6
7 10 15 10 22 0 18 14 -7 25 -44 19 -30 90 16 83 17 -2 22 -11 24 -51z m244
33 c19 -17 19 -20 5 -20 -23 0 -23 -46 1 -60 15 -9 14 -10 -8 -8 -20 3 -26 10
-31 43 -6 37 -3 65 7 65 3 0 14 -9 26 -20z m-158 -6 c9 -25 7 -64 -4 -64 -5 0
-10 14 -10 30 0 41 -24 39 -38 -2 l-10 -33 -1 43 c-1 40 0 42 28 42 17 0 31
-6 35 -16z m86 -14 c11 -20 4 -30 -22 -30 -10 0 -18 -4 -18 -10 0 -5 7 -10 16
-10 8 0 12 -5 9 -10 -12 -19 -45 9 -45 38 0 50 38 63 60 22z m156 16 c18 -19
18 -26 -1 -26 -20 0 -19 -29 3 -53 16 -19 16 -19 -3 -16 -14 3 -21 14 -23 34
-2 17 -8 35 -13 41 -5 6 -4 15 3 22 15 15 16 15 34 -2z m324 -36 c20 0 30 -19
30 -56 0 -36 -18 -29 -22 9 -2 17 -7 32 -13 32 -5 0 -11 -15 -13 -32 -5 -56
-22 -36 -22 25 0 61 13 94 18 48 2 -17 9 -26 22 -26z m1380 34 c0 -8 -5 -12
-10 -9 -6 4 -8 11 -5 16 9 14 15 11 15 -7z m510 -19 c0 -8 -7 -15 -15 -15 -8
0 -15 7 -15 15 0 8 7 15 15 15 8 0 15 -7 15 -15z m-2116 -11 c10 -27 7 -33
-21 -36 l-28 -4 24 -10 c15 -7 20 -13 14 -17 -29 -18 -61 24 -48 63 8 24 50
27 59 4z m156 -4 c0 -5 -7 -10 -15 -10 -9 0 -15 -9 -15 -25 0 -16 6 -25 15
-25 8 0 15 -4 15 -10 0 -14 -23 -13 -38 2 -25 25 -8 78 25 78 7 0 13 -4 13
-10z m168 -17 c-10 -2 -22 -19 -27 -36 l-9 -32 -1 38 c-1 34 1 37 27 36 16 -1
20 -3 10 -6z m80 -5 c30 -30 -1 -94 -33 -68 -15 13 -21 61 -8 73 10 11 28 8
41 -5z m234 -26 c-15 -5 -16 -52 -1 -52 5 0 7 -5 3 -11 -10 -17 -32 11 -35 46
-5 43 8 60 29 38 12 -12 13 -18 4 -21z m1738 28 c0 -5 -5 -10 -11 -10 -5 0 -7
5 -4 10 3 6 8 10 11 10 2 0 4 -4 4 -10z m-3894 -21 c15 -17 16 -23 6 -40 -7
-11 -10 -29 -7 -40 5 -15 2 -19 -19 -19 -35 0 -42 18 -17 44 25 26 27 46 6 46
-16 0 -20 12 -8 23 11 11 19 8 39 -14z m2015 9 c1 -7 0 -22 -1 -33 -1 -16 1
-18 11 -7 7 6 21 12 31 12 10 0 18 5 18 10 0 6 -8 10 -17 10 -13 0 -14 3 -5
12 17 17 42 -8 42 -44 0 -31 -20 -45 -47 -32 -10 4 -29 8 -43 8 -20 1 -24 6
-22 23 2 12 -2 24 -8 28 -6 4 -10 -6 -10 -25 0 -17 -4 -29 -8 -26 -4 3 -6 21
-4 40 4 32 7 36 33 36 16 0 30 -6 30 -12z m444 -28 c8 0 15 -4 15 -9 0 -5 -8
-8 -17 -7 -12 1 -19 -7 -21 -23 -3 -20 0 -23 18 -18 14 3 20 1 17 -6 -2 -7
-12 -12 -23 -12 -16 0 -19 8 -21 60 -2 45 0 54 7 38 5 -13 16 -23 25 -23z
m-59 -35 c6 -36 6 -39 -9 -26 -9 7 -24 11 -32 7 -19 -7 -19 2 1 50 18 43 27
36 40 -31z m-816 40 c0 -8 -4 -15 -10 -15 -5 0 -10 7 -10 15 0 8 5 15 10 15 6
0 10 -7 10 -15z m642 -14 c-2 -12 2 -29 8 -37 10 -12 8 -14 -14 -14 -14 0 -26
5 -26 10 0 6 5 10 11 10 7 0 10 12 7 30 -3 19 -1 29 6 27 6 -2 10 -14 8 -26z
m76 11 c-24 -5 -25 -52 -1 -52 14 0 15 -2 4 -12 -10 -11 -15 -9 -27 6 -8 11
-14 25 -14 32 0 19 30 45 43 37 8 -5 6 -9 -5 -11z m252 -38 c0 -8 -9 -14 -20
-14 -22 0 -27 -15 -7 -23 7 -4 6 -6 -4 -6 -23 -1 -31 46 -12 65 12 11 18 12
29 3 8 -6 14 -18 14 -25z m70 22 c0 -2 -7 -9 -15 -16 -12 -10 -15 -10 -15 4 0
9 7 16 15 16 8 0 15 -2 15 -4z m65 -16 c-3 -5 -10 -10 -16 -10 -5 0 -9 5 -9
10 0 6 7 10 16 10 8 0 12 -4 9 -10z m142 -30 c-1 -22 -5 -40 -8 -40 -8 0 -17
69 -10 75 13 13 19 1 18 -35z m-57 -10 c0 -24 -26 -38 -42 -22 -8 8 -8 15 2
27 18 21 40 19 40 -5z m420 0 c0 -5 -4 -10 -10 -10 -5 0 -10 5 -10 10 0 6 5
10 10 10 6 0 10 -4 10 -10z m-280 -30 c0 -5 -7 -10 -15 -10 -8 0 -15 5 -15 10
0 6 7 10 15 10 8 0 15 -4 15 -10z m280 0 c0 -5 -4 -10 -10 -10 -5 0 -10 5 -10
10 0 6 5 10 10 10 6 0 10 -4 10 -10z m-3277 -67 c4 -3 1 -13 -5 -21 -10 -11
-9 -16 5 -23 34 -19 8 -79 -28 -65 -19 7 -20 26 0 26 22 0 18 21 -5 27 -19 5
-28 42 -13 56 8 9 38 9 46 0z m98 -48 c4 -23 3 -45 -3 -52 -12 -15 -44 -17
-53 -3 -3 6 3 10 14 10 12 0 21 7 21 15 0 8 -5 15 -11 15 -6 0 -8 7 -5 15 3 9
-1 18 -9 21 -21 9 -7 26 18 22 17 -2 23 -12 28 -43z m509 14 c4 -8 12 -24 18
-36 7 -14 8 -24 2 -28 -6 -3 -10 -16 -10 -28 0 -33 -15 -51 -36 -43 -14 5 -15
9 -6 15 16 10 18 96 3 114 -12 15 -4 30 13 24 5 -2 13 -10 16 -18z m-600 -179
c0 -5 -4 -10 -10 -10 -17 0 -11 -17 7 -25 12 -4 24 1 35 14 26 33 45 26 51
-16 6 -50 -7 -67 -38 -47 -20 13 -24 13 -35 -1 -14 -17 -46 -20 -55 -4 -4 6 2
13 14 16 23 6 29 23 7 23 -20 0 -39 27 -32 45 6 17 56 21 56 5z m0 -205 c-10
-11 -9 -18 4 -30 27 -28 13 -65 -25 -65 -27 0 -34 21 -10 27 27 7 27 20 1 28
-13 4 -20 15 -20 31 0 20 5 24 31 24 27 0 30 -2 19 -15z m90 6 c0 -6 -5 -13
-11 -16 -7 -5 -5 -13 6 -25 24 -26 15 -54 -18 -58 -15 -2 -27 1 -27 7 0 6 6
11 14 11 27 0 28 20 2 30 -25 9 -35 38 -19 53 10 10 53 8 53 -2z m-85 -190 c3
-5 0 -13 -5 -16 -8 -5 -6 -13 5 -25 24 -26 15 -54 -18 -58 -15 -2 -27 1 -27 7
0 6 6 11 14 11 27 0 28 20 2 30 -14 5 -26 15 -26 23 0 28 41 49 55 28z m81
-16 c-19 -14 -19 -16 -2 -28 24 -18 17 -51 -12 -55 -30 -5 -50 38 -34 73 8 18
19 25 39 25 27 -1 27 -1 9 -15z m812 -57 c-3 -63 -3 -63 -33 -63 -32 0 -41 18
-31 61 4 15 14 24 26 24 13 0 20 7 20 20 0 11 5 20 10 20 7 0 10 -24 8 -62z
m170 -14 c4 -50 -15 -71 -47 -54 -14 7 -21 21 -21 40 0 47 10 61 39 58 23 -3
26 -8 29 -44z m176 37 c3 -5 -3 -11 -13 -14 -13 -3 -18 -11 -15 -24 3 -10 1
-29 -5 -43 -9 -22 -10 -19 -10 23 -1 35 -5 47 -16 47 -8 0 -15 5 -15 10 0 12
67 13 74 1z m-659 -18 c6 -17 7 -17 21 1 20 28 25 16 12 -27 -13 -42 -33 -48
-42 -13 -3 13 -9 31 -12 40 -3 9 -2 16 4 16 5 0 13 -8 17 -17z m129 1 c17 -45
-10 -82 -46 -63 -18 10 -25 58 -11 72 12 13 51 7 57 -9z m71 -18 c0 -16 6 -31
13 -33 23 -8 12 -23 -17 -23 -31 0 -50 15 -29 22 14 5 22 48 8 48 -6 0 -10 5
-10 11 0 6 8 9 18 7 11 -2 17 -13 17 -32z m365 4 c6 -12 8 -31 4 -43 -7 -21
-8 -20 -13 7 -8 41 -30 45 -37 7 -4 -17 -10 -31 -14 -31 -5 0 -7 8 -5 18 2 9
4 27 4 40 1 29 46 31 61 2z m650 10 c12 -8 11 -10 -7 -10 -29 0 -29 -13 -2
-32 16 -10 20 -20 15 -36 -8 -23 -40 -30 -51 -12 -3 6 3 10 14 10 30 0 33 16
6 28 -27 13 -32 31 -13 50 14 14 19 15 38 2z m309 -11 c-6 -12 -9 -42 -6 -66
4 -36 2 -42 -9 -32 -14 12 -19 74 -8 103 3 9 13 16 20 16 12 0 12 -4 3 -21z
m216 -30 c0 -24 4 -50 8 -56 5 -8 4 -13 -3 -13 -13 0 -17 12 -23 73 -3 33 -1
47 7 44 6 -2 11 -24 11 -48z m-1000 31 c-3 -5 -13 -10 -21 -10 -9 0 -14 -11
-14 -30 0 -16 -4 -30 -10 -30 -11 0 -14 63 -3 73 10 11 55 8 48 -3z m56 -2 c1
-7 0 -23 -1 -35 -1 -13 3 -23 9 -23 6 0 11 -4 11 -10 0 -12 -47 -13 -54 -1 -3
5 1 11 9 15 17 6 21 46 5 46 -5 0 -10 5 -10 10 0 15 30 12 31 -2z m109 -38 c0
-52 -8 -70 -33 -70 -20 0 -20 0 -1 15 17 13 17 14 2 15 -17 0 -38 28 -38 49 0
19 30 39 50 34 16 -4 20 -14 20 -43z m385 14 c-18 -13 -19 -36 -3 -52 9 -9 8
-12 -5 -12 -12 0 -17 8 -17 29 0 17 -5 33 -10 36 -8 5 -7 11 0 20 9 11 16 12
31 2 17 -10 17 -13 4 -23z m525 -8 c0 -24 3 -53 6 -63 5 -12 4 -15 -3 -8 -13
12 -23 115 -12 115 5 0 9 -20 9 -44z m-830 -16 c0 -39 -4 -52 -19 -60 -13 -7
-22 -7 -26 0 -3 5 1 10 9 10 9 0 16 5 16 10 0 6 -7 10 -15 10 -21 0 -34 31
-24 58 6 15 17 22 34 22 23 0 25 -3 25 -50z m74 34 c10 -26 7 -34 -14 -34 -25
0 -26 -17 -2 -24 10 -3 6 -4 -8 -3 -18 1 -26 9 -28 25 -6 41 38 72 52 36z m86
7 c0 -5 -7 -11 -15 -15 -8 -3 -15 -17 -15 -31 0 -14 -4 -25 -10 -25 -5 0 -10
15 -10 34 0 24 5 36 18 39 28 8 32 7 32 -2z m442 -11 c-28 -26 -28 -45 0 -64
16 -11 18 -16 7 -16 -23 0 -39 21 -39 50 0 29 16 50 39 50 11 0 9 -5 -7 -20z
m-214 -2 c7 -7 12 -25 12 -40 0 -24 -4 -28 -30 -28 -23 0 -30 5 -30 19 0 11
10 22 23 26 19 6 19 8 4 12 -9 2 -15 9 -12 14 8 12 19 11 33 -3z m76 -17 c4
13 9 19 12 13 8 -18 -34 -106 -47 -98 -8 5 -8 9 1 14 7 5 10 17 5 31 -18 63
-18 66 3 40 l19 -24 7 24z m240 -7 c9 -22 -13 -56 -32 -52 -21 4 -28 44 -12
63 13 16 36 10 44 -11z m646 -12 c0 -15 -4 -33 -9 -40 -5 -8 -8 4 -7 31 1 25
4 43 9 40 4 -2 7 -16 7 -31z m-440 0 c0 -15 -2 -15 -10 -2 -13 20 -13 33 0 25
6 -3 10 -14 10 -23z m90 14 c0 -9 -7 -12 -21 -9 -16 4 -17 8 -7 14 19 13 28
11 28 -5z m67 -11 c7 -19 5 -20 -24 -29 -18 -6 -23 -3 -23 9 0 13 6 16 21 12
16 -4 18 -3 8 9 -8 10 -9 14 0 14 6 0 14 -7 18 -15z m68 5 c-3 -5 -11 -10 -16
-10 -6 0 -7 5 -4 10 3 6 11 10 16 10 6 0 7 -4 4 -10z m145 4 c0 -4 -8 -13 -17
-19 -17 -12 -17 -14 2 -35 20 -22 20 -22 0 -19 -23 5 -32 43 -15 65 13 14 30
19 30 8z m-295 -44 c12 10 15 9 15 -4 0 -29 -45 -16 -47 14 l-3 25 10 -24 c8
-19 13 -21 25 -11z m-65 -11 c0 -5 -10 -9 -21 -9 -18 0 -19 2 -9 15 12 15 30
12 30 -6z m-1868 -5 c4 -3 0 -17 -7 -31 -14 -27 -10 -78 8 -100 7 -10 4 -13
-12 -13 -14 0 -23 8 -27 28 -4 15 -11 33 -17 40 -7 9 -7 16 -1 20 5 4 15 19
21 35 12 26 23 33 35 21z m-612 -14 c0 -5 -5 -10 -12 -10 -6 0 -2 -11 11 -23
33 -36 4 -81 -37 -57 -15 9 -14 10 6 16 27 8 28 20 2 27 -14 3 -20 14 -20 31
0 21 5 26 25 26 14 0 25 -4 25 -10z m94 1 c7 -11 -24 -91 -36 -91 -11 0 -10
13 2 45 9 23 7 28 -10 32 -11 3 -17 9 -14 14 7 12 51 12 58 0z m-89 -191 c3
-5 -1 -10 -9 -10 -9 0 -16 -4 -16 -10 0 -5 6 -10 14 -10 16 0 31 -34 22 -49
-9 -13 -42 -20 -57 -10 -14 8 -14 8 31 22 10 3 6 8 -12 16 -26 10 -37 38 -21
54 10 10 41 8 48 -3z m81 -1 c4 -7 8 -27 10 -45 4 -40 -16 -60 -45 -45 -32 17
-20 101 14 101 8 0 17 -5 21 -11z m1217 4 c4 -3 -1 -12 -11 -19 -15 -12 -15
-15 -2 -25 11 -8 12 -12 3 -16 -7 -2 -13 -18 -13 -34 0 -16 -4 -29 -10 -29 -5
0 -10 13 -10 28 0 15 -5 33 -12 40 -9 9 -9 12 0 12 7 0 12 6 12 13 0 24 29 45
43 30z m707 -43 c0 -5 -6 -10 -14 -10 -20 0 -30 -38 -16 -55 15 -17 34 -9 26
11 -3 8 -1 14 5 14 18 0 5 -45 -15 -48 -35 -7 -50 53 -20 82 18 18 34 21 34 6z
m-1085 -17 c6 -17 7 -17 16 0 17 29 29 19 17 -15 -17 -52 -26 -55 -43 -15 -17
42 -18 47 -6 47 5 0 12 -8 16 -17z m123 -25 c3 -36 2 -38 -27 -38 -25 0 -31 4
-31 21 0 12 8 23 20 26 25 7 26 20 3 27 -11 3 -7 4 7 3 21 -2 25 -8 28 -39z
m75 30 c-16 -8 -23 -20 -23 -40 0 -17 -4 -27 -10 -23 -9 6 -11 51 -3 68 2 4
16 7 31 6 27 0 27 0 5 -11z m245 -26 c2 -17 8 -32 13 -32 6 0 7 -4 4 -10 -8
-13 -52 -13 -60 0 -3 6 0 12 7 15 16 6 22 45 7 45 -5 0 -9 5 -9 11 0 6 8 9 18
7 11 -2 18 -14 20 -36z m102 28 c0 -5 -7 -10 -15 -10 -10 0 -15 -10 -15 -30 0
-20 -5 -30 -15 -30 -16 0 -19 20 -9 58 4 15 14 22 30 22 13 0 24 -4 24 -10z
m70 -5 c16 -19 6 -47 -15 -39 -8 3 -15 1 -15 -4 0 -6 8 -12 18 -15 16 -4 16
-4 -1 -12 -38 -16 -63 38 -31 69 19 20 28 20 44 1z m610 -20 c-11 -14 -10 -27
3 -44 10 -11 9 -13 -3 -9 -18 6 -31 63 -17 77 14 14 30 -9 17 -24z m80 28
c-36 -14 -41 -59 -7 -73 l22 -9 -22 0 c-16 -1 -24 6 -29 23 -7 30 11 66 34 65
14 0 14 -2 2 -6z m-370 -12 c0 -5 -9 -11 -20 -14 -11 -3 -20 -10 -20 -17 0 -7
9 -14 20 -17 11 -3 20 -9 20 -14 0 -13 -34 -11 -48 3 -25 25 -6 68 30 68 10 0
18 -4 18 -9z m-162 -8 c-10 -2 -28 -2 -40 0 -13 2 -5 4 17 4 22 1 32 -1 23 -4z
m395 -7 c7 -18 -1 -26 -27 -26 -21 -1 -21 -1 -2 -15 17 -13 18 -15 3 -15 -18
0 -33 42 -22 59 9 16 42 13 48 -3z m222 -7 c4 -11 4 -23 1 -26 -3 -4 -6 2 -6
11 0 13 -6 17 -20 13 -20 -5 -26 3 -13 16 13 14 32 7 38 -14z m79 13 c3 -5 20
-7 38 -5 29 3 30 2 11 -7 -27 -11 -29 -25 -6 -38 15 -9 14 -11 -4 -21 -19 -9
-22 -7 -32 19 -7 23 -16 30 -35 30 -25 0 -33 10 -19 23 9 10 41 9 47 -1z m416
-7 c0 -8 -4 -15 -10 -15 -5 0 -10 7 -10 15 0 8 5 15 10 15 6 0 10 -7 10 -15z
m-283 -1 c-3 -3 -12 -4 -19 -1 -8 3 -5 6 6 6 11 1 17 -2 13 -5z m73 2 c0 -2
-9 -6 -20 -9 -11 -3 -18 -1 -14 4 5 9 34 13 34 5z m283 -26 c-6 -22 -28 -27
-39 -9 -3 6 0 15 7 20 24 15 37 10 32 -11z m-1173 0 c0 -5 -13 -10 -29 -10
-17 0 -33 5 -36 10 -4 6 8 10 29 10 20 0 36 -4 36 -10z m955 -4 c-11 -8 -23
-12 -28 -9 -13 8 3 23 26 23 20 0 20 0 2 -14z m567 -1 c0 -5 -5 -11 -11 -13
-6 -2 -11 4 -11 13 0 9 5 15 11 13 6 -2 11 -8 11 -13z m-1307 -15 c-3 -5 -10
-10 -16 -10 -5 0 -9 5 -9 10 0 6 7 10 16 10 8 0 12 -4 9 -10z m377 -12 c-11
-11 -32 -3 -32 12 0 4 9 6 21 3 13 -4 17 -9 11 -15z m218 2 c0 -5 -4 -10 -10
-10 -5 0 -10 5 -10 10 0 6 5 10 10 10 6 0 10 -4 10 -10z m-1321 -72 c-7 -12
-9 -40 -5 -67 5 -42 4 -44 -9 -27 -26 34 -12 138 16 121 5 -4 5 -14 -2 -27z
m101 23 c0 -5 -6 -11 -12 -14 -10 -4 -10 -7 -1 -18 8 -7 9 -17 4 -23 -5 -6
-11 -22 -13 -36 -4 -32 -23 -28 -23 4 -1 14 -3 28 -7 31 -10 10 22 65 38 65 8
0 14 -4 14 -9z m-1290 -10 c0 -5 -6 -12 -12 -15 -9 -3 -8 -8 5 -16 36 -23 13
-68 -30 -57 -16 4 -15 6 5 12 27 9 28 21 2 28 -14 3 -20 14 -20 31 0 21 5 26
25 26 14 0 25 -4 25 -9z m81 -15 c7 -14 9 -36 5 -50 -5 -20 -12 -26 -34 -25
-23 0 -24 2 -11 11 14 10 14 13 -3 30 -14 14 -16 23 -8 38 15 27 38 25 51 -4z
m1839 9 c-10 -12 -10 -19 -2 -27 8 -8 7 -15 -4 -25 -8 -8 -14 -23 -14 -34 0
-10 -5 -19 -11 -19 -6 0 -9 10 -8 23 2 12 0 27 -4 34 -10 16 21 63 40 63 13 0
13 -3 3 -15z m430 -5 c0 -5 -2 -10 -4 -10 -3 0 -8 5 -11 10 -3 6 -1 10 4 10 6
0 11 -4 11 -10z m-680 -15 c-9 -11 -10 -19 -3 -26 17 -17 48 -6 51 19 3 22 42
33 42 12 0 -5 -4 -10 -10 -10 -19 0 -10 -22 11 -27 12 -4 18 -11 15 -20 -3 -8
-6 -19 -6 -24 0 -15 -42 -10 -62 8 -17 15 -18 15 -18 0 0 -20 -42 -23 -58 -4
-16 19 8 87 32 87 15 0 16 -2 6 -15z m980 -28 c0 -18 -4 -38 -9 -46 -6 -9 -8
5 -8 37 0 28 4 49 9 46 4 -3 8 -20 8 -37z m-1300 -7 c0 -16 5 -30 10 -30 6 0
10 -4 10 -10 0 -5 -13 -10 -30 -10 -16 0 -30 5 -30 10 0 6 5 10 10 10 14 0 13
33 -2 48 -9 9 -7 12 10 12 18 0 22 -6 22 -30z m93 13 c-13 -9 -23 -26 -23 -39
0 -13 -4 -24 -10 -24 -5 0 -10 18 -10 40 0 39 1 40 33 39 32 0 32 0 10 -16z
m87 2 c15 -18 5 -35 -23 -36 -20 -1 -20 -2 3 -9 22 -6 23 -8 8 -15 -28 -12
-48 2 -48 33 0 16 3 32 7 35 11 12 40 8 53 -8z m455 -15 c0 -14 4 -31 8 -37 6
-9 1 -13 -17 -13 -29 0 -30 3 -16 30 7 13 7 21 0 25 -17 10 -11 27 8 23 11 -2
17 -13 17 -28z m95 21 c0 -5 -7 -11 -15 -15 -8 -3 -15 -17 -15 -31 0 -14 -4
-25 -10 -25 -15 0 -12 67 3 73 20 9 37 8 37 -2z m70 -6 c14 -16 6 -35 -16 -35
-17 0 -19 -16 -1 -23 6 -3 2 -6 -9 -6 -34 -1 -44 37 -18 63 19 20 28 20 44 1z
m145 -31 c0 -22 -5 -30 -22 -32 -27 -4 -33 25 -7 35 8 3 13 12 10 20 -4 9 -1
13 6 11 7 -3 13 -18 13 -34z m280 -1 c-23 -16 -38 -17 -32 0 2 6 10 11 16 10
6 -2 11 2 11 8 0 5 5 7 12 3 7 -5 5 -11 -7 -21z m-75 -15 c0 -16 -3 -19 -11
-11 -6 6 -8 16 -5 22 11 17 16 13 16 -11z m-290 -8 c0 -5 -4 -10 -10 -10 -5 0
-10 5 -10 10 0 6 5 10 10 10 6 0 10 -4 10 -10z m225 0 c3 -5 -1 -10 -10 -10
-9 0 -13 5 -10 10 3 6 8 10 10 10 2 0 7 -4 10 -10z m-1495 -75 c-15 -18 -15
-98 -1 -103 16 -5 13 -22 -4 -22 -8 0 -18 12 -21 28 -4 15 -12 33 -18 41 -8
11 -8 15 2 18 6 3 12 13 12 22 0 21 9 31 28 31 12 0 12 -3 2 -15z m-930 -15
c0 -5 -7 -10 -17 -10 -15 0 -15 -1 0 -18 21 -23 22 -51 2 -58 -36 -14 -62 55
-33 84 15 15 48 16 48 2z m76 -15 c8 -32 -3 -75 -19 -75 -31 0 -46 44 -31 84
10 25 43 19 50 -9z m1194 -134 c0 -5 -6 -11 -12 -14 -10 -3 -10 -7 1 -20 7
-10 9 -17 4 -17 -6 0 -15 -15 -21 -32 l-10 -33 -1 33 c-1 17 -5 32 -11 32 -5
0 -1 13 8 30 16 28 42 41 42 21z m52 -40 c-1 -24 2 -49 9 -57 9 -11 8 -14 -5
-14 -13 0 -16 11 -16 50 0 28 -4 50 -10 50 -5 0 -10 5 -10 11 0 6 8 9 18 7 13
-3 16 -12 14 -47z m424 -57 c-8 -21 -44 -17 -56 6 -12 23 2 60 24 60 8 0 17
10 22 23 6 17 8 12 11 -27 2 -27 2 -55 -1 -62z m652 46 c0 -27 -4 -47 -9 -44
-14 8 -9 94 6 94 1 0 3 -22 3 -50z m73 -2 c-2 -40 -5 -48 -13 -34 -10 18 -2
86 10 86 4 0 5 -23 3 -52z m-508 4 c-15 -11 -16 -16 -5 -33 16 -25 8 -37 -12
-20 -18 15 -27 63 -14 78 8 9 14 9 29 0 18 -11 18 -13 2 -25z m-1968 18 c3 -5
-1 -10 -9 -10 -22 0 -20 -9 5 -28 23 -20 17 -52 -10 -52 -39 0 -55 54 -25 84
18 18 30 20 39 6z m70 -15 c3 -14 7 -36 10 -50 5 -22 2 -25 -22 -25 -21 0 -24
3 -15 12 15 15 16 54 2 63 -6 4 -8 11 -5 16 11 17 25 9 30 -16z m1511 13 c4
-6 2 -14 -4 -16 -16 -5 -15 -35 0 -50 9 -9 8 -12 -5 -12 -12 0 -17 8 -17 29 0
16 -6 32 -12 34 -10 4 -9 8 2 16 19 14 27 14 36 -1z m972 0 c-6 -18 -28 -21
-28 -4 0 9 7 16 16 16 9 0 14 -5 12 -12z m-1128 -12 c6 -8 10 -25 8 -38 -2
-17 -10 -23 -28 -23 -18 0 -26 6 -28 23 -3 22 13 52 28 52 4 0 13 -7 20 -14z
m88 -29 c3 -35 2 -37 -27 -37 -36 0 -44 28 -11 37 20 5 28 23 10 23 -5 0 -10
5 -10 11 0 6 8 9 18 7 12 -2 18 -14 20 -41z m296 31 c18 -58 17 -68 -9 -68
-27 0 -32 9 -13 28 10 10 10 17 0 32 -10 17 -10 20 3 20 9 0 17 -6 19 -12z
m86 2 c0 -5 -5 -10 -12 -10 -6 0 -3 -6 8 -14 18 -14 18 -16 2 -32 -11 -11 -23
-14 -35 -9 -17 7 -17 8 2 14 18 7 18 8 1 18 -24 13 -14 43 14 43 11 0 20 -4
20 -10z m235 -10 c-3 -5 -15 -10 -25 -10 -10 0 -22 5 -25 10 -4 6 7 10 25 10
18 0 29 -4 25 -10z m567 -22 c-9 -9 -12 -7 -12 12 0 19 3 21 12 12 9 -9 9 -15
0 -24z m-567 -8 c-3 -5 -17 -10 -31 -10 -13 0 -24 5 -24 10 0 6 14 10 31 10
17 0 28 -4 24 -10z m115 -128 c0 -20 -4 -43 -9 -50 -5 -9 -8 8 -7 41 0 31 4
53 8 51 4 -3 8 -22 8 -42z m-372 8 c-5 -17 -7 -42 -4 -55 4 -14 2 -25 -3 -25
-15 0 -23 54 -12 83 15 38 33 35 19 -3z m97 -17 c-8 -58 -19 -72 -43 -57 -25
16 -22 57 6 69 12 5 22 15 22 22 0 7 5 13 11 13 8 0 9 -15 4 -47z m215 18 c0
-4 -6 -13 -12 -19 -10 -10 -10 -17 0 -33 12 -18 11 -20 -4 -17 -21 4 -39 69
-22 79 12 8 38 1 38 -10z m-380 -10 c0 -4 -6 -13 -12 -19 -10 -10 -10 -17 1
-33 10 -17 10 -20 0 -17 -14 5 -31 66 -23 80 5 8 34 -1 34 -11z m-1710 -25 c0
-8 -7 -19 -15 -26 -13 -11 -13 -14 2 -26 16 -12 15 -13 -14 -14 -38 0 -41 9
-13 35 24 22 26 35 5 35 -15 0 -20 12 -9 23 10 9 44 -12 44 -27z m1140 7 l14
-28 4 28 c5 43 18 23 14 -22 -5 -46 -14 -52 -29 -18 l-11 22 -10 -25 c-10 -22
-11 -20 -11 23 -1 53 9 60 29 20z m320 -3 c10 0 21 8 23 18 3 9 5 -3 5 -28 0
-25 -2 -37 -5 -27 -2 9 -13 17 -23 17 -10 0 -21 -8 -23 -17 -3 -10 -5 2 -5 27
0 25 2 37 5 28 2 -10 13 -18 23 -18z m470 6 c0 -13 3 -31 6 -40 4 -11 0 -16
-14 -16 -24 0 -37 16 -21 25 6 4 8 18 5 31 -5 17 -2 24 9 24 9 0 15 -9 15 -24z
m75 -8 c0 -24 -5 -34 -19 -36 -12 -3 -16 0 -11 7 4 7 1 18 -5 26 -14 17 -5 35
18 35 13 0 18 -8 17 -32z m-2107 9 c-15 -12 -15 -14 3 -25 24 -15 24 -38 1
-51 -25 -14 -42 4 -42 44 0 37 6 45 34 45 19 -1 20 -2 4 -13z m1512 3 c0 -5
-7 -10 -15 -10 -9 0 -15 -9 -15 -25 0 -14 -4 -25 -9 -25 -15 0 -6 51 10 61 19
12 29 11 29 -1z m148 -2 c17 -17 15 -28 -7 -28 -11 0 -23 -4 -26 -10 -3 -5 1
-10 10 -10 9 0 13 -5 10 -10 -9 -15 -35 7 -35 29 0 17 18 41 30 41 3 0 11 -5
18 -12z m80 -26 c3 -29 1 -32 -22 -32 -19 0 -26 5 -26 20 0 13 7 20 20 20 25
0 26 17 3 24 -14 4 -14 4 2 3 15 -2 21 -11 23 -35z m-390 5 c2 -12 -3 -17 -17
-17 -12 0 -21 -4 -21 -10 0 -5 7 -10 16 -10 8 0 12 -5 9 -10 -9 -15 -45 7 -45
28 0 39 51 56 58 19z m80 -15 c3 -31 2 -33 -24 -30 -38 4 -42 25 -7 39 l28 12
-25 8 -25 8 25 -2 c21 -2 26 -8 28 -35z m892 -1 c0 -6 -4 -13 -10 -16 -5 -3
-10 1 -10 9 0 9 5 16 10 16 6 0 10 -4 10 -9z m-1400 -119 c0 -10 6 -24 12 -30
10 -10 10 -15 1 -20 -6 -4 -13 -18 -14 -32 -3 -15 -12 -26 -24 -29 -15 -2 -17
0 -9 10 20 25 24 64 9 92 -13 25 -12 27 6 27 12 0 19 -7 19 -18z m-913 -23
c-17 -10 -17 -12 -2 -23 25 -18 15 -51 -15 -51 -20 0 -26 6 -28 28 -4 34 13
57 42 57 20 -1 20 -1 3 -11z m88 -34 c0 -34 -3 -40 -22 -43 -13 -2 -23 1 -23
7 0 6 10 11 23 11 22 1 22 1 2 16 -14 11 -16 18 -7 21 17 7 15 21 -5 27 -11 3
-7 4 7 3 22 -2 25 -6 25 -42z m-87 -142 c-25 -6 -22 -20 4 -29 16 -5 26 -1 36
15 24 35 42 26 42 -19 0 -38 -1 -40 -26 -34 -14 4 -36 1 -49 -6 -20 -11 -27
-11 -40 0 -32 26 -12 81 30 79 16 -1 17 -2 3 -6z m12 -173 c0 -5 -8 -10 -17
-11 -15 0 -14 -3 5 -16 26 -18 28 -35 7 -53 -33 -27 -64 47 -33 78 15 15 38
16 38 2z m67 -1 c-16 -10 -16 -11 5 -29 19 -15 20 -20 9 -34 -7 -9 -23 -16
-35 -15 -21 0 -21 0 2 11 27 14 29 28 2 28 -15 0 -20 7 -20 25 0 21 5 25 28
25 23 -1 25 -2 9 -11z m2758 -68 c7 -12 -12 -24 -25 -16 -11 7 -4 25 10 25 5
0 11 -4 15 -9z m-1393 -36 c-3 -14 1 -16 17 -12 23 6 27 -3 10 -20 -8 -8 -8
-13 0 -17 6 -4 11 -14 11 -23 0 -13 -2 -13 -17 -2 -13 11 -17 11 -20 1 -10
-27 -23 2 -23 49 0 36 4 49 13 46 6 -2 11 -12 9 -22z m698 21 c0 -3 -4 -8 -10
-11 -5 -3 -10 -1 -10 4 0 6 5 11 10 11 6 0 10 -2 10 -4z m-290 -12 c0 -3 -7
-13 -16 -22 -15 -14 -15 -17 0 -27 20 -15 21 -25 1 -25 -25 0 -36 34 -19 58
14 20 34 30 34 16z m-291 -28 c8 -10 8 -16 -2 -25 -8 -6 -17 -8 -20 -4 -4 3
-7 1 -7 -5 0 -7 5 -12 12 -12 9 0 9 -3 0 -12 -14 -14 -42 6 -42 31 0 35 38 53
59 27z m156 4 c-3 -5 -17 -10 -31 -10 -13 0 -24 5 -24 10 0 6 14 10 31 10 17
0 28 -4 24 -10z m335 0 c0 -5 -2 -10 -4 -10 -3 0 -8 5 -11 10 -3 6 -1 10 4 10
6 0 11 -4 11 -10z m-815 -10 c3 -5 -2 -10 -12 -10 -17 -1 -17 -1 0 -14 33 -25
11 -67 -24 -45 -11 7 -11 9 4 9 9 0 17 5 17 10 0 6 -7 10 -15 10 -18 0 -20 36
-2 43 19 8 25 8 32 -3z m100 0 c4 -6 13 -5 24 2 26 16 51 3 51 -26 0 -33 -33
-52 -54 -31 -8 8 -16 10 -18 5 -2 -5 -17 -11 -35 -14 -36 -4 -47 11 -37 50 5
18 13 24 34 24 16 0 32 -4 35 -10z m-245 -10 c0 -5 -7 -10 -15 -10 -9 0 -15
-9 -15 -25 0 -14 -4 -25 -10 -25 -18 0 -11 58 8 63 29 8 32 7 32 -3z m-82 -36
c2 -25 -1 -33 -19 -37 -12 -3 -26 -4 -31 -1 -15 10 -8 36 12 41 25 7 26 20 3
27 -11 3 -7 4 7 3 20 -2 26 -8 28 -33z m707 26 c-3 -5 -20 -10 -36 -10 -18 0
-28 4 -24 10 3 6 20 10 36 10 18 0 28 -4 24 -10z m205 0 c0 -5 -4 -10 -10 -10
-5 0 -10 5 -10 10 0 6 5 10 10 10 6 0 10 -4 10 -10z m-1014 -15 c20 27 23 15
7 -24 -16 -37 -28 -33 -38 14 -5 26 -5 28 6 11 11 -19 12 -19 25 -1z m-816 -5
c0 -5 -8 -10 -17 -11 -15 0 -14 -3 5 -16 27 -19 28 -39 4 -52 -13 -7 -23 -6
-30 1 -18 18 -14 66 6 77 22 13 32 14 32 1z m-90 -12 l-25 -10 23 -9 c25 -10
30 -47 7 -55 -35 -14 -61 46 -33 74 7 7 21 12 33 11 18 0 17 -2 -5 -11z m2110
-43 c0 -8 6 -15 13 -15 6 0 12 -13 13 -29 1 -26 -1 -28 -35 -25 -20 1 -39 -2
-43 -9 -5 -8 -10 -8 -20 1 -9 7 -19 8 -28 2 -8 -6 -25 -10 -38 -10 -20 0 -23
4 -20 33 3 32 3 32 61 33 44 2 59 -2 67 -15 7 -13 9 -9 10 17 0 17 5 32 10 32
6 0 10 -7 10 -15z m107 -22 c4 -9 1 -19 -5 -21 -7 -2 -12 -10 -12 -18 0 -20
-17 -18 -29 3 -7 13 -5 23 6 35 20 23 32 23 40 1z m-777 -18 c0 -18 4 -23 15
-19 11 5 13 2 9 -10 -3 -9 -1 -23 6 -31 17 -20 5 -32 -15 -15 -10 8 -15 9 -15
1 0 -6 -4 -11 -10 -11 -5 0 -10 25 -10 55 0 30 5 55 10 55 6 0 10 -11 10 -25z
m250 10 c-14 -17 -8 -28 16 -31 8 -1 19 8 24 22 5 13 17 24 26 24 14 0 14 -3
4 -16 -11 -13 -10 -16 8 -21 29 -7 24 -47 -8 -51 -12 -2 -27 1 -33 7 -6 6 -14
5 -24 -5 -36 -36 -69 1 -47 54 8 17 21 32 30 32 14 0 14 -3 4 -15z m225 -27
c0 -24 -5 -34 -20 -37 -17 -3 -18 -1 -6 13 9 10 10 16 2 16 -6 0 -11 9 -11 20
0 13 7 20 18 20 13 0 18 -8 17 -32z m-766 1 c-6 -13 -9 -39 -5 -63 6 -38 5
-40 -9 -22 -24 32 -13 106 16 106 6 0 5 -8 -2 -21z m409 -12 c2 -10 -5 -21
-20 -26 -20 -9 -20 -10 -3 -10 13 -1 16 -4 9 -11 -18 -18 -44 0 -44 29 0 15 3
31 7 35 13 13 48 1 51 -17z m-231 2 c8 -8 16 -7 31 2 17 10 23 10 36 0 21 -18
20 -34 -4 -56 -15 -14 -23 -16 -32 -7 -6 6 -23 8 -39 5 -23 -4 -28 -1 -32 18
-4 22 -4 22 -6 -3 0 -16 -5 -28 -11 -28 -15 0 -12 67 3 73 21 9 43 7 54 -4z
m-97 -9 c0 -5 -5 -10 -12 -10 -6 0 -3 -6 8 -14 18 -14 18 -16 2 -32 -14 -14
-20 -15 -30 -6 -9 9 -8 12 8 13 18 0 18 1 -3 15 -12 9 -19 22 -16 30 6 16 43
19 43 4z m-1136 -38 c7 -12 -15 -82 -27 -82 -5 0 -7 6 -4 13 19 51 19 57 -5
57 -18 0 -20 2 -8 10 19 12 37 13 44 2z m-87 -16 c-16 -12 -16 -14 -2 -20 21
-8 15 -50 -7 -54 -11 -2 -22 6 -29 21 -15 32 3 67 34 67 21 -1 21 -2 4 -14z
m905 -88 c-16 -16 -16 -95 1 -101 6 -2 9 -8 5 -12 -11 -12 -35 13 -41 42 -7
35 11 83 31 83 12 0 13 -3 4 -12z m-814 -109 c1 -35 -2 -39 -24 -39 -21 0 -24
4 -24 39 0 38 12 53 36 44 7 -2 12 -22 12 -44z m-89 29 c-15 -11 -15 -13 5
-29 20 -17 20 -19 4 -35 -23 -23 -48 -11 -48 24 0 31 16 52 40 51 13 0 13 -2
-1 -11z m1691 -67 c0 -50 -13 -67 -45 -55 -23 9 -19 61 5 69 11 3 20 13 20 21
0 8 5 14 10 14 6 0 10 -22 10 -49z m200 14 c-6 -7 -8 -20 -4 -29 3 -9 1 -16
-5 -16 -14 0 -25 45 -17 66 5 13 9 14 21 4 11 -9 12 -16 5 -25z m155 15 c4 -6
-5 -10 -20 -10 -15 0 -24 4 -20 10 3 6 12 10 20 10 8 0 17 -4 20 -10z m-228
-26 c15 -32 9 -44 -20 -43 -12 0 -16 3 -9 6 10 4 10 8 1 19 -11 14 -6 44 8 44
4 0 13 -12 20 -26z m-597 12 c0 -3 -4 -8 -10 -11 -5 -3 -10 -1 -10 4 0 6 5 11
10 11 6 0 10 -2 10 -4z m62 -46 c1 -28 0 -50 -4 -50 -5 0 -8 17 -8 38 0 21 -5
43 -12 50 -9 9 -8 12 4 12 12 0 17 -12 20 -50z m458 31 c0 -11 3 -26 6 -35 4
-12 0 -16 -15 -16 -18 0 -20 3 -11 19 5 11 7 27 4 35 -3 9 -1 16 5 16 6 0 11
-9 11 -19z m-224 -26 c-1 -19 -4 -35 -8 -35 -5 0 -8 6 -8 13 0 6 -3 22 -6 35
-5 15 -2 22 8 22 10 0 14 -11 14 -35z m524 25 c0 -5 -9 -10 -21 -10 -11 0 -17
5 -14 10 3 6 13 10 21 10 8 0 14 -4 14 -10z m-584 -24 c7 -31 -1 -46 -26 -46
-28 0 -34 18 -11 32 15 9 17 15 9 25 -8 10 -6 13 6 13 8 0 18 -11 22 -24z
m-241 5 c3 -5 1 -12 -5 -16 -5 -3 -11 -16 -11 -28 -1 -17 -3 -15 -8 8 -4 17
-6 33 -4 38 6 10 21 9 28 -2z m163 -17 c3 -23 -21 -49 -38 -39 -11 7 -14 48
-3 59 13 13 38 1 41 -20z m-1291 -66 c15 -33 -1 -68 -29 -68 -21 1 -22 1 -5
11 18 10 18 12 -2 26 -17 11 -19 18 -11 34 14 25 34 24 47 -3z m-93 -3 c-16
-12 -17 -14 -3 -15 24 0 33 -31 15 -48 -12 -13 -18 -13 -30 -2 -30 24 -14 80
23 80 11 0 10 -4 -5 -15z m2163 -30 c-1 -19 -4 -35 -8 -35 -8 0 -19 52 -12 62
11 19 21 5 20 -27z m-192 -12 c-4 -21 -12 -41 -18 -45 -35 -23 -49 30 -16 61
33 31 42 26 34 -16z m-95 -15 c-1 -35 -3 -40 -11 -25 -10 17 -5 67 6 67 3 0 5
-19 5 -42z m216 17 c6 -24 0 -44 -10 -34 -11 11 -17 59 -7 59 6 0 13 -11 17
-25z m-66 11 c0 -3 -4 -8 -10 -11 -5 -3 -10 -1 -10 4 0 6 5 11 10 11 6 0 10
-2 10 -4z m-305 -56 c-6 -9 -9 -9 -16 1 -10 17 0 34 13 21 6 -6 7 -16 3 -22z
m305 15 c0 -8 -7 -15 -15 -15 -9 0 -12 6 -9 15 4 8 10 15 15 15 5 0 9 -7 9
-15z m-515 -23 c-7 -8 -35 7 -35 18 0 6 7 6 20 -2 10 -7 17 -14 15 -16z m81
21 c-10 -11 -36 -12 -36 -2 0 5 10 9 22 9 12 0 18 -3 14 -7z m-411 -59 l-15
-29 0 36 c0 40 10 57 22 35 5 -8 2 -26 -7 -42z m115 30 c11 -13 10 -16 -8 -21
-23 -6 -30 -23 -10 -23 6 0 8 -3 5 -6 -9 -10 -37 16 -37 33 0 10 6 12 20 8 21
-7 28 10 8 18 -8 4 -9 6 -2 6 6 1 17 -6 24 -15z m80 -16 c0 -26 -9 -19 -15 11
-2 12 0 19 6 16 5 -4 9 -16 9 -27z m-150 -23 c0 -8 -4 -15 -9 -15 -5 0 -11 7
-15 15 -3 9 0 15 9 15 8 0 15 -7 15 -15z m115 5 c3 -5 1 -10 -4 -10 -6 0 -11
5 -11 10 0 6 2 10 4 10 3 0 8 -4 11 -10z m-1321 -19 c7 -10 -23 -86 -30 -78
-3 3 -1 14 5 25 16 29 14 42 -6 42 -15 0 -16 2 -3 10 19 12 27 12 34 1z m74
-3 c17 -17 15 -44 -4 -63 -29 -28 -56 13 -38 59 7 19 25 21 42 4z m800 -105
c5 -16 6 -37 1 -48 -4 -11 -10 -28 -13 -38 -3 -10 -11 -15 -16 -12 -7 4 -7 11
-2 18 17 22 20 56 6 75 -13 18 -10 32 7 32 4 0 11 -12 17 -27z m-805 -95 c5
-34 3 -38 -16 -38 -16 0 -18 3 -9 12 15 15 16 58 1 58 -5 0 -7 5 -3 11 10 16
21 -1 27 -43z m-63 33 c0 -19 -23 -71 -31 -71 -5 0 -4 12 1 26 13 33 13 34 -5
34 -8 0 -15 5 -15 10 0 6 11 10 25 10 14 0 25 -4 25 -9z m543 -131 c9 -17 11
-32 6 -36 -5 -3 -9 -16 -9 -29 0 -12 -7 -25 -15 -29 -12 -4 -14 0 -8 22 9 34
9 51 -1 80 -11 33 10 27 27 -8z m-463 -39 c0 -9 -5 -22 -12 -29 -9 -9 -9 -12
0 -12 7 0 12 -4 12 -10 0 -5 -11 -10 -25 -10 -30 0 -32 11 -5 35 24 22 26 35
4 35 -8 0 -13 4 -9 10 9 14 35 0 35 -19z m-77 12 c6 -10 -22 -77 -29 -70 -3 3
-1 14 5 25 14 27 14 32 -4 32 -8 0 -15 5 -15 10 0 12 37 14 43 3z m7 -160 c0
-16 -25 -73 -32 -73 -4 0 -3 12 2 26 13 33 13 34 -6 34 -8 0 -12 5 -9 10 7 11
45 14 45 3z m67 -7 c-3 -7 -1 -18 5 -24 14 -14 -7 -42 -30 -42 -13 0 -12 3 4
15 15 12 16 16 5 24 -11 7 -11 10 0 16 9 6 8 10 -7 16 -17 7 -17 8 5 8 16 1
21 -3 18 -13z m-67 -153 c0 -17 -25 -73 -32 -73 -5 0 -4 9 2 19 14 27 13 41
-5 41 -8 0 -15 5 -15 10 0 6 11 10 25 10 14 0 25 -3 25 -7z m63 -20 c7 -34 -2
-44 -31 -37 -29 8 -29 24 1 24 16 0 18 3 8 9 -7 5 -10 14 -7 20 12 19 23 12
29 -16z m1094 -19 c-3 -3 -12 -4 -19 -1 -8 3 -5 6 6 6 11 1 17 -2 13 -5z
m-371 -90 c-7 -18 -45 -18 -52 0 -7 19 13 56 31 56 8 0 16 8 17 18 1 9 3 0 5
-22 3 -21 2 -44 -1 -52z m151 80 c-3 -3 -12 -4 -19 -1 -8 3 -5 6 6 6 11 1 17
-2 13 -5z m68 -12 c-11 -3 -23 -9 -27 -16 -5 -7 -8 -5 -8 6 0 17 27 29 45 19
6 -3 1 -7 -10 -9z m-89 -55 c9 -3 8 -4 -3 -3 -12 1 -18 10 -19 26 -1 21 0 21
3 3 2 -12 11 -24 19 -26z m-224 -7 c4 -25 1 -30 -16 -29 -12 0 -15 3 -8 6 15
6 16 43 1 43 -5 0 -7 5 -4 10 10 16 22 3 27 -30z m-67 -5 c0 -24 -5 -31 -23
-33 -27 -4 -38 19 -22 48 17 31 45 22 45 -15z m-101 -15 c3 0 6 7 6 15 0 8 4
15 9 15 6 0 6 -12 0 -30 -14 -39 -24 -38 -38 3 -9 27 -9 30 3 15 7 -10 16 -18
20 -18z m-469 -13 c-17 -13 -17 -14 4 -20 31 -8 24 -41 -9 -44 l-25 -3 25 11
25 11 -22 11 c-33 15 -29 47 6 47 12 0 11 -3 -4 -13z m-55 -6 c0 -5 -7 -24
-15 -42 l-16 -34 6 33 c4 20 3 32 -4 32 -6 0 -11 5 -11 10 0 6 9 10 20 10 11
0 20 -4 20 -9z m531 -88 c-6 -22 -5 -39 4 -57 12 -22 12 -26 0 -26 -8 0 -17 5
-20 11 -12 19 -9 77 4 93 19 22 22 16 12 -21z m1069 -3 c0 -5 -8 -10 -17 -10
-15 0 -14 -4 6 -19 l24 -18 -23 -16 c-13 -9 -27 -14 -32 -11 -10 6 -11 68 -1
77 10 11 43 8 43 -3z m-230 -53 c5 -42 -5 -66 -14 -34 -13 39 -14 88 -3 84 7
-2 14 -25 17 -50z m169 0 l0 -22 -9 23 c-12 30 -26 28 -38 -5 -10 -27 -10 -26
-11 14 l-1 41 30 -14 c20 -10 30 -23 29 -37z m131 43 c0 -5 -7 -10 -15 -10 -8
0 -15 5 -15 10 0 6 7 10 15 10 8 0 15 -4 15 -10z m70 -4 c0 -8 -4 -18 -10 -21
-5 -3 -10 -4 -10 -1 0 2 -3 11 -6 20 -4 11 -1 16 10 16 9 0 16 -6 16 -14z
m-294 -41 c-1 -40 -17 -41 -27 -2 -7 27 -3 37 16 37 7 0 11 -15 11 -35z
m-1386 -5 c-13 -8 -12 -12 5 -24 19 -14 19 -15 2 -33 -15 -16 -19 -16 -27 -3
-15 24 -12 58 7 69 22 12 33 3 13 -9z m1093 -13 c11 -4 17 -16 16 -34 -1 -27
-1 -27 -8 -4 -9 35 -25 36 -38 4 -10 -26 -11 -25 -12 22 0 41 2 47 12 34 7 -8
20 -18 30 -22z m507 17 c0 -2 -7 -4 -15 -4 -8 0 -15 4 -15 10 0 5 7 7 15 4 8
-4 15 -8 15 -10z m-342 -21 c4 -26 -34 -51 -51 -34 -7 7 -6 16 6 29 9 10 14
22 10 26 -5 5 1 7 12 4 11 -2 21 -13 23 -25z m-80 -6 c2 -11 -3 -17 -15 -17
-14 0 -15 -2 -4 -9 8 -5 9 -11 3 -15 -6 -3 -17 1 -26 10 -12 12 -14 20 -5 35
12 24 42 21 47 -4z m-298 -53 c0 -11 -6 -14 -22 -9 -18 6 -20 4 -14 -11 6 -16
5 -17 -6 -6 -11 11 -10 16 6 28 26 18 36 18 36 -2z m657 -11 c3 -7 -4 -10 -19
-6 l-23 5 25 -21 c24 -20 24 -22 7 -35 -30 -23 -49 -9 -41 28 3 17 8 35 11 39
7 11 36 4 40 -10z m-757 -14 c0 -5 -4 -9 -10 -9 -5 0 -10 7 -10 16 0 8 5 12
10 9 6 -3 10 -10 10 -16z m673 -2 c9 -3 17 -14 17 -24 0 -15 -2 -15 -15 3 -14
19 -15 19 -21 -3 -3 -13 -11 -23 -16 -23 -6 0 -8 10 -4 23 3 12 6 29 6 37 0 9
3 11 8 4 4 -6 15 -13 25 -17z m156 2 c3 -11 1 -12 -11 -2 -8 7 -19 9 -23 5 -5
-4 -5 -1 -1 6 9 16 28 11 35 -9z m61 1 c0 -11 -4 -20 -10 -20 -5 0 -10 9 -10
20 0 11 5 20 10 20 6 0 10 -9 10 -20z m-368 -35 c2 -25 0 -45 -4 -45 -5 0 -8
13 -8 29 0 16 -3 36 -6 45 -3 9 -2 16 4 16 5 0 12 -20 14 -45z m83 26 c3 -5 1
-13 -5 -16 -6 -4 -8 -15 -5 -26 4 -10 2 -19 -3 -19 -11 0 -23 50 -15 62 6 11
21 10 28 -1z m200 -29 c-3 -3 -11 0 -18 7 -9 10 -8 11 6 5 10 -3 15 -9 12 -12z
m-502 -15 c23 -8 33 -35 18 -50 -8 -8 -11 -5 -11 12 0 29 -22 23 -31 -10 -5
-17 -7 -10 -8 26 0 28 3 45 7 39 4 -6 15 -13 25 -17z m165 -7 c4 -23 -11 -40
-35 -40 -18 0 -16 29 1 36 9 3 12 12 9 21 -4 11 -2 14 8 11 8 -2 16 -15 17
-28z m-240 -25 c-1 -24 -5 -42 -10 -39 -9 6 -11 45 -2 68 10 25 12 19 12 -29z
m172 24 c0 -5 -7 -12 -16 -16 -8 -3 -13 -12 -10 -19 7 -17 -6 -18 -22 -2 -16
16 -15 23 3 42 16 15 45 12 45 -5z m750 -147 c0 -13 -12 -22 -22 -16 -10 6 -1
24 13 24 5 0 9 -4 9 -8z m110 -12 c0 -5 -4 -10 -10 -10 -5 0 -10 5 -10 10 0 6
5 10 10 10 6 0 10 -4 10 -10z m-382 -34 c-2 -1 -11 -8 -20 -15 -16 -12 -18
-11 -18 7 0 15 5 19 20 15 12 -3 19 -6 18 -7z m146 5 c3 -5 -1 -14 -9 -21 -13
-10 -15 -9 -15 9 0 21 14 28 24 12z m-87 -18 c-9 -9 -19 -14 -23 -11 -10 10 6
28 24 28 15 0 15 -1 -1 -17z"/>
<path d="M2798 4993 c7 -3 16 -2 19 1 4 3 -2 6 -13 5 -11 0 -14 -3 -6 -6z"/>
<path d="M2870 4950 c0 -5 5 -10 10 -10 6 0 10 5 10 10 0 6 -4 10 -10 10 -5 0
-10 -4 -10 -10z"/>
<path d="M1303 4934 c-8 -20 13 -42 27 -28 12 12 3 44 -11 44 -5 0 -12 -7 -16
-16z"/>
<path d="M1905 4881 c-11 -35 16 -58 29 -24 4 9 0 23 -8 31 -12 12 -15 11 -21
-7z"/>
<path d="M1488 4923 c7 -3 16 -2 19 1 4 3 -2 6 -13 5 -11 0 -14 -3 -6 -6z"/>
<path d="M1740 4900 c0 -5 7 -10 16 -10 8 0 12 5 9 10 -3 6 -10 10 -16 10 -5
0 -9 -4 -9 -10z"/>
<path d="M2230 4850 c0 -29 4 -40 13 -37 6 2 12 19 12 37 0 18 -6 35 -12 38
-9 2 -13 -9 -13 -38z"/>
<path d="M2550 4790 c0 -5 5 -10 10 -10 6 0 10 5 10 10 0 6 -4 10 -10 10 -5 0
-10 -4 -10 -10z"/>
<path d="M2790 4810 c0 -5 5 -10 11 -10 5 0 7 5 4 10 -3 6 -8 10 -11 10 -2 0
-4 -4 -4 -10z"/>
<path d="M1300 4725 c0 -16 6 -25 15 -25 9 0 15 9 15 25 0 16 -6 25 -15 25 -9
0 -15 -9 -15 -25z"/>
<path d="M1480 4730 c0 -5 5 -10 10 -10 6 0 10 5 10 10 0 6 -4 10 -10 10 -5 0
-10 -4 -10 -10z"/>
<path d="M1735 4710 c-3 -5 1 -10 10 -10 9 0 13 5 10 10 -3 6 -8 10 -10 10 -2
0 -7 -4 -10 -10z"/>
<path d="M2143 4664 c-8 -22 15 -44 26 -25 10 16 4 41 -10 41 -5 0 -12 -7 -16
-16z"/>
<path d="M2305 4630 c-3 -5 1 -10 10 -10 9 0 13 5 10 10 -3 6 -8 10 -10 10 -2
0 -7 -4 -10 -10z"/>
<path d="M2625 4630 c-3 -5 -1 -10 4 -10 6 0 11 5 11 10 0 6 -2 10 -4 10 -3 0
-8 -4 -11 -10z"/>
<path d="M2775 4630 c-3 -5 1 -10 10 -10 9 0 13 5 10 10 -3 6 -8 10 -10 10 -2
0 -7 -4 -10 -10z"/>
<path d="M2995 4570 c4 -6 11 -8 16 -5 14 9 11 15 -7 15 -8 0 -12 -5 -9 -10z"/>
<path d="M240 3810 c0 -5 5 -10 10 -10 6 0 10 5 10 10 0 6 -4 10 -10 10 -5 0
-10 -4 -10 -10z"/>
<path d="M1027 3797 c-3 -8 -1 -20 4 -28 11 -19 34 3 26 25 -8 20 -23 21 -30
3z"/>
<path d="M1205 3817 c-9 -22 -2 -62 10 -60 6 1 11 14 13 29 4 32 -14 56 -23
31z"/>
<path d="M852 3788 c2 -13 8 -23 13 -23 6 0 11 10 13 23 2 15 -2 22 -13 22
-11 0 -15 -7 -13 -22z"/>
<path d="M1627 3783 c-13 -12 -7 -43 8 -43 9 0 15 9 15 25 0 24 -10 32 -23 18z"/>
<path d="M1700 3760 c0 -11 7 -20 15 -20 8 0 15 9 15 20 0 11 -7 20 -15 20 -8
0 -15 -9 -15 -20z"/>
<path d="M2110 3730 c0 -5 5 -10 10 -10 6 0 10 5 10 10 0 6 -4 10 -10 10 -5 0
-10 -4 -10 -10z"/>
<path d="M2414 3745 c-7 -17 4 -37 17 -30 12 8 12 45 -1 45 -6 0 -13 -7 -16
-15z"/>
<path d="M240 3430 c0 -5 7 -10 15 -10 8 0 15 5 15 10 0 6 -7 10 -15 10 -8 0
-15 -4 -15 -10z"/>
<path d="M1198 3393 c7 -3 16 -2 19 1 4 3 -2 6 -13 5 -11 0 -14 -3 -6 -6z"/>
<path d="M1700 3420 c0 -5 5 -10 10 -10 6 0 10 5 10 10 0 6 -4 10 -10 10 -5 0
-10 -4 -10 -10z"/>
<path d="M2250 3410 c0 -5 5 -10 10 -10 6 0 10 5 10 10 0 6 -4 10 -10 10 -5 0
-10 -4 -10 -10z"/>
<path d="M250 3270 c0 -5 5 -10 10 -10 6 0 10 5 10 10 0 6 -4 10 -10 10 -5 0
-10 -4 -10 -10z"/>
<path d="M1845 3220 c3 -5 11 -10 16 -10 6 0 7 5 4 10 -3 6 -11 10 -16 10 -6
0 -7 -4 -4 -10z"/>
<path d="M1925 3220 c3 -5 11 -10 16 -10 6 0 7 5 4 10 -3 6 -11 10 -16 10 -6
0 -7 -4 -4 -10z"/>
<path d="M2465 3210 c-3 -5 -1 -10 4 -10 6 0 11 5 11 10 0 6 -2 10 -4 10 -3 0
-8 -4 -11 -10z"/>
<path d="M170 3050 c0 -5 5 -10 10 -10 6 0 10 5 10 10 0 6 -4 10 -10 10 -5 0
-10 -4 -10 -10z"/>
<path d="M250 3076 c0 -27 16 -44 23 -24 5 18 -3 48 -14 48 -5 0 -9 -11 -9
-24z"/>
<path d="M1917 2896 c-6 -15 1 -26 15 -26 4 0 8 9 8 20 0 23 -15 27 -23 6z"/>
<path d="M170 2870 c0 -5 7 -10 15 -10 8 0 15 5 15 10 0 6 -7 10 -15 10 -8 0
-15 -4 -15 -10z"/>
<path d="M1597 2897 c-3 -8 -1 -20 4 -28 11 -19 34 3 26 25 -8 20 -23 21 -30
3z"/>
<path d="M1680 2870 c0 -5 5 -10 10 -10 6 0 10 5 10 10 0 6 -4 10 -10 10 -5 0
-10 -4 -10 -10z"/>
<path d="M2132 2726 c1 -10 8 -17 13 -17 15 1 12 24 -3 29 -9 3 -13 -2 -10
-12z"/>
<path d="M175 2690 c-3 -5 1 -10 10 -10 9 0 13 5 10 10 -3 6 -8 10 -10 10 -2
0 -7 -4 -10 -10z"/>
<path d="M1830 2730 c0 -5 5 -10 11 -10 5 0 7 5 4 10 -3 6 -8 10 -11 10 -2 0
-4 -4 -4 -10z"/>
<path d="M1900 2700 c0 -5 4 -10 9 -10 6 0 13 5 16 10 3 6 -1 10 -9 10 -9 0
-16 -4 -16 -10z"/>
<path d="M1510 2720 c0 -5 5 -10 10 -10 6 0 10 5 10 10 0 6 -4 10 -10 10 -5 0
-10 -4 -10 -10z"/>
<path d="M1590 2690 c0 -5 5 -10 10 -10 6 0 10 5 10 10 0 6 -4 10 -10 10 -5 0
-10 -4 -10 -10z"/>
<path d="M180 2510 c0 -5 5 -10 10 -10 6 0 10 5 10 10 0 6 -4 10 -10 10 -5 0
-10 -4 -10 -10z"/>
<path d="M180 2330 c0 -5 7 -10 15 -10 8 0 15 5 15 10 0 6 -7 10 -15 10 -8 0
-15 -4 -15 -10z"/>
<path d="M186 2162 c-3 -6 -1 -14 5 -17 15 -10 25 3 12 16 -7 7 -13 7 -17 1z"/>
<path d="M1575 2060 c-8 -13 4 -32 16 -25 12 8 12 35 0 35 -6 0 -13 -4 -16
-10z"/>
<path d="M1175 2020 c-3 -5 1 -10 9 -10 9 0 16 5 16 10 0 6 -4 10 -9 10 -6 0
-13 -4 -16 -10z"/>
<path d="M270 1986 c0 -9 5 -16 10 -16 6 0 10 4 10 9 0 6 -4 13 -10 16 -5 3
-10 -1 -10 -9z"/>
<path d="M190 1980 c0 -5 5 -10 10 -10 6 0 10 5 10 10 0 6 -4 10 -10 10 -5 0
-10 -4 -10 -10z"/>
<path d="M2245 1939 c-10 -15 1 -23 20 -15 9 3 13 10 10 16 -8 13 -22 13 -30
-1z"/>
<path d="M1950 1910 c0 -5 5 -10 11 -10 5 0 7 5 4 10 -3 6 -8 10 -11 10 -2 0
-4 -4 -4 -10z"/>
<path d="M1875 1900 c3 -5 8 -10 11 -10 2 0 4 5 4 10 0 6 -5 10 -11 10 -5 0
-7 -4 -4 -10z"/>
<path d="M1572 1894 c4 -21 22 -23 26 -1 2 10 -3 17 -13 17 -10 0 -15 -6 -13
-16z"/>
<path d="M190 1810 c0 -5 7 -10 16 -10 8 0 12 5 9 10 -3 6 -10 10 -16 10 -5 0
-9 -4 -9 -10z"/>
<path d="M270 1680 c0 -5 5 -10 10 -10 6 0 10 5 10 10 0 6 -4 10 -10 10 -5 0
-10 -4 -10 -10z"/>
<path d="M270 1644 c0 -17 22 -14 28 4 2 7 -3 12 -12 12 -9 0 -16 -7 -16 -16z"/>
<path d="M195 1640 c-3 -5 1 -10 9 -10 9 0 16 5 16 10 0 6 -4 10 -9 10 -6 0
-13 -4 -16 -10z"/>
<path d="M1865 1610 c-7 -12 2 -30 16 -30 5 0 9 9 9 20 0 21 -15 27 -25 10z"/>
<path d="M1640 1570 c0 -5 5 -10 10 -10 6 0 10 5 10 10 0 6 -4 10 -10 10 -5 0
-10 -4 -10 -10z"/>
<path d="M1564 1585 c-7 -17 4 -37 17 -30 12 8 12 45 -1 45 -6 0 -13 -7 -16
-15z"/>
<path d="M270 1510 c0 -5 7 -10 15 -10 8 0 15 5 15 10 0 6 -7 10 -15 10 -8 0
-15 -4 -15 -10z"/>
<path d="M200 1470 c0 -5 5 -10 10 -10 6 0 10 5 10 10 0 6 -4 10 -10 10 -5 0
-10 -4 -10 -10z"/>
<path d="M2140 1455 c0 -8 7 -15 15 -15 8 0 15 7 15 15 0 8 -7 15 -15 15 -8 0
-15 -7 -15 -15z"/>
<path d="M276 1334 c-7 -18 0 -34 15 -34 5 0 9 11 9 25 0 28 -15 34 -24 9z"/>
<path d="M994 609 c-3 -6 -2 -15 4 -21 13 -13 32 -2 32 18 0 16 -26 19 -36 3z"/>
<path d="M834 589 c-3 -6 -2 -15 4 -21 13 -13 32 -2 32 18 0 16 -26 19 -36 3z"/>
<path d="M1820 410 c0 -5 5 -10 10 -10 6 0 10 5 10 10 0 6 -4 10 -10 10 -5 0
-10 -4 -10 -10z"/>
<path d="M290 360 c0 -5 7 -10 15 -10 8 0 15 5 15 10 0 6 -7 10 -15 10 -8 0
-15 -4 -15 -10z"/>
<path d="M1810 270 c0 -5 7 -10 15 -10 8 0 15 5 15 10 0 6 -7 10 -15 10 -8 0
-15 -4 -15 -10z"/>
<path d="M1310 5110 c0 -5 7 -10 15 -10 8 0 15 5 15 10 0 6 -7 10 -15 10 -8 0
-15 -4 -15 -10z"/>
<path d="M1745 5100 c-3 -5 1 -10 9 -10 9 0 16 5 16 10 0 6 -4 10 -9 10 -6 0
-13 -4 -16 -10z"/>
<path d="M1917 5083 c-13 -12 -7 -43 8 -43 9 0 15 9 15 25 0 24 -10 32 -23 18z"/>
<path d="M135 4619 c-10 -15 3 -25 16 -12 7 7 7 13 1 17 -6 3 -14 1 -17 -5z"/>
<path d="M220 380 c0 -5 5 -10 10 -10 6 0 10 5 10 10 0 6 -4 10 -10 10 -5 0
-10 -4 -10 -10z"/>
</g>
</svg>
